<svg width="40" height="36" viewBox="0 0 40 36" fill="none" xmlns="http://www.w3.org/2000/svg">
<path d="M20.0021 1.00015C9.52463 1.00015 1 8.1132 1 16.8581C1.05943 20.6615 2.60474 24.2556 5.34722 26.9628L5.73355 27.3435L4.41325 34.988L12.645 31.557L13.027 31.6867C15.1412 32.4022 17.5526 32.7787 19.9979 32.7787C30.4754 32.7787 39 25.6364 39 16.8581C39 8.07973 30.4796 1.00015 20.0021 1.00015Z" fill="#2251FF" stroke="#2251FF"/>
<path d="M12.0171 14.9357C13.1068 14.9359 14.0024 15.8089 14.0024 16.9005C14.0022 17.9919 13.1066 18.8641 12.0171 18.8644C10.9273 18.8644 10.031 17.9921 10.0308 16.9005C10.0308 15.8088 10.9272 14.9357 12.0171 14.9357Z" fill="white" stroke="white"/>
<path d="M20.0024 14.9358C21.0921 14.936 21.9878 15.809 21.9878 16.9006C21.9876 17.9921 21.092 18.8643 20.0024 18.8645C18.9127 18.8645 18.0163 17.9922 18.0161 16.9006C18.0161 15.8089 18.9125 14.9358 20.0024 14.9358Z" fill="white" stroke="white"/>
<path d="M27.988 14.9358C29.0777 14.936 29.9734 15.809 29.9734 16.9006C29.9732 17.9921 29.0776 18.8643 27.988 18.8645C26.8983 18.8645 26.0019 17.9922 26.0017 16.9006C26.0017 15.8089 26.8981 14.9358 27.988 14.9358Z" fill="white" stroke="white"/>
</svg>
