<?xml version="1.0" encoding="UTF-8"?>
<svg xmlns="http://www.w3.org/2000/svg" id="Layer_2" viewBox="0 0 694.49 694.49">
  <defs>
    <style>.cls-1,.cls-2,.cls-3,.cls-4{stroke-width:0px;}.cls-2{fill:#ccc;}.cls-3{fill:#fff;}.cls-4{fill:#ffc61e;}</style>
  </defs>
  <g id="July_2022">
    <circle class="cls-3" cx="347.24" cy="347.24" r="347.24"></circle>
    <polygon class="cls-4" points="503.48 429.81 408.29 429.89 459.94 227.15 556.79 227.15 503.48 429.81"></polygon>
    <polygon class="cls-4" points="527.43 467.85 386.23 468.16 397.34 426.59 538.23 426.59 527.43 467.85"></polygon>
    <circle class="cls-2" cx="543.63" cy="404.37" r="22.35"></circle>
    <polygon class="cls-2" points="388.77 435.63 123.65 435.63 179.16 227.2 441.13 227.15 388.77 435.63"></polygon>
    <g id="Layer_30">
      <path class="cls-1" d="m543.68,423.69c-11.05,0-19.84-8.47-19.84-19.4s8.81-19.27,19.84-19.27h.13c11.05,0,19.61,8.58,19.61,19.27s-8.58,19.4-19.74,19.4h0Zm-10.8,6.25l-9.5,36.53-2.16-2.8,2.16,2.8h-131.87l9.22-36.57h32.5v-.02l33.31-125.38h-24.47l10.22-39.26h0c37.21-2.33,45.43-35.23,45.43-35.23h55.73l-52.77,199.89h32.18-.02l.04.04Zm-146.95,1.32h-71.05l27.87-112.36,4.27-11.46-4.12,10.97-57.59,112.94h-55.93l1.09-114.18-31,114.18-.06-.09h-70.8l.75-.58-.73.58,53.3-201.23h105.51l.06-.04v.04h.09l-.09.09-2.37,93.01,45.53-93.2,106.28.11-51.02,201.26h-.02.02v-.02Zm158.22-57.14h-.19c-.49,0-.98,0-1.45.02,10.6-40.29,44.96-170.64,44.96-170.64l-137.29.04H161.84l-67.3,253.94h271.58l-9.94,36.04h195.88l21.36-80.42c7.75-29.38-12.08-38.98-29.28-38.98h0Z"></path>
      <path class="cls-1" d="m543.21,397.72c-1.17,0-1.98.11-2.45.23v5.53h2.11c2.45,0,4.46-.81,4.46-2.82,0-1.75-1.3-2.92-4.12-2.92h0v-.02Z"></path>
      <path class="cls-1" d="m548.27,414.28c-.6-.7-.94-2.35-1.54-4.57-.34-2.11-1.51-3.05-3.99-3.05h-2.11v7.64h-4.46v-19.14c1.77-.36,4.22-.7,7.4-.7,3.65,0,5.27.58,6.7,1.51,1.07.83,1.88,2.37,1.88,4.12,0,2.24-1.64,3.88-3.99,4.59v.23c1.88.58,2.94,2.11,3.52,4.69.58,2.94.94,4.12,1.41,4.69h-4.82v-.02Zm-4.59-25.37h-.11c-8.47,0-14.81,6.93-14.81,15.38s6.34,15.38,15.04,15.38c8.45.13,14.68-6.81,14.68-15.38s-6.23-15.38-14.81-15.38h0Z"></path>
    </g>
  </g>
</svg>
