<?xml version="1.0" encoding="utf-8"?>
<!-- Generator: Adobe Illustrator 26.2.1, SVG Export Plug-In . SVG Version: 6.00 Build 0)  -->
<svg version="1.1" id="Layer_1" xmlns="http://www.w3.org/2000/svg" xmlns:xlink="http://www.w3.org/1999/xlink" x="0px" y="0px"
	 viewBox="0 0 250 250" style="enable-background:new 0 0 250 250;" xml:space="preserve">
<style type="text/css">
	.st0{clip-path:url(#SVGID_00000060726446560687243640000014749081744978084272_);}
	.st1{fill-rule:evenodd;clip-rule:evenodd;fill:url(#SVGID_00000052076557651348224550000013150097699803427748_);}
</style>
<g>
	<defs>
		<rect id="SVGID_1_" width="250" height="250"/>
	</defs>
	<clipPath id="SVGID_00000048492117575894054490000009364190625715089539_">
		<use xlink:href="#SVGID_1_"  style="overflow:visible;"/>
	</clipPath>
	<g style="clip-path:url(#SVGID_00000048492117575894054490000009364190625715089539_);">
		
			<linearGradient id="SVGID_00000136400875167686202990000017562949242173449387_" gradientUnits="userSpaceOnUse" x1="147.0394" y1="211.4032" x2="85.5494" y2="47.1646" gradientTransform="matrix(1 0 0 -1 0 252)">
			<stop  offset="9.895830e-02" style="stop-color:#8F73DB"/>
			<stop  offset="0.3854" style="stop-color:#6483F9"/>
			<stop  offset="0.6875" style="stop-color:#4EC8FC"/>
			<stop  offset="0.901" style="stop-color:#B8E7DD"/>
		</linearGradient>
		<path style="fill-rule:evenodd;clip-rule:evenodd;fill:url(#SVGID_00000136400875167686202990000017562949242173449387_);" d="
			M75.2,89.2c-1.5,1.5-3,3-4.5,4.6c-0.1-0.2-0.3-0.3-0.4-0.5c-0.3-0.3-0.5-0.6-0.8-1c-0.4-0.6-0.9-1.1-1.4-1.6l0,0
			c-0.2-0.3-0.5-0.5-0.7-0.8c-0.1-0.1-0.2-0.3-0.3-0.4c-0.1-0.2-0.2-0.4-0.4-0.5c-0.5-0.3-0.9-0.7-1.2-1.1l0,0l0,0v0h0l0,0
			c-0.2-0.2-0.4-0.4-0.7-0.6c-0.1-0.1-0.1-0.1-0.2-0.2c-0.1-0.2-0.3-0.3-0.5-0.5l-2.4-1.8c-1.4-1-2.9-2-4.4-2.8
			c-1.4-0.8-2.9-1.4-4.4-2c-0.2-0.1-0.4-0.2-0.7-0.3c-2.2-0.9-4.5-1.5-6.8-2.1h0c-0.2,0-0.4-0.1-0.5-0.1c-0.5-0.1-1-0.2-1.6-0.1
			c-0.2-0.2-0.4-0.2-0.7-0.2c-0.1,0-0.3,0-0.4,0c-0.2,0-0.4-0.1-0.6-0.1C41.4,77.1,41.2,77,41,77h-3.9c-0.3,0-0.5,0-0.8,0
			c-1,0-2,0-3,0.2c-0.6,0.2-1.3,0.2-2,0.2c-0.3,0-0.7,0-1,0.1h-0.2c-0.9,0.3-1.7,0.5-2.6,0.7c-0.9,0.2-1.8,0.4-2.6,0.7l-3.3,1.2
			c-0.3,0.1-0.7,0.3-1,0.5l0,0c-0.7,0.3-1.4,0.7-2.2,0.8c-0.7,0.5-1.5,0.9-2.3,1.4v0c-0.5,0.3-1,0.6-1.5,0.9c-1.6,1-3.1,2.3-4.5,3.6
			l0,0l0,0l0,0c-0.2,0.2-0.5,0.4-0.7,0.6c-0.4,0.3-0.7,0.8-1.1,1.2l0,0c-0.2,0.3-0.5,0.6-0.7,0.8c-0.5,0.5-0.9,1.1-1.3,1.6
			c-0.2,0.4-0.5,0.7-0.7,1.1c-0.5,0.7-0.9,1.4-1.3,2.1c-0.6,1-1.2,2.1-1.6,3.2c-0.2,0.6-0.4,1.1-0.6,1.7c-0.2,0.5-0.4,1.1-0.5,1.6
			c-0.1,0.7-0.3,1.3-0.4,1.9h0h0h0l0,0h0c-0.1,0.6-0.3,1.2-0.4,1.9c-0.1,0.3-0.1,0.6-0.1,0.9c0,0.3,0,0.6-0.2,0.9
			c-0.1,0.4-0.1,0.8-0.1,1.2c0,0.2,0,0.5-0.1,0.7c0,0.3,0,0.6-0.1,0.9c0,0.3-0.1,0.6-0.1,0.9c0,0.6,0,1.2,0,1.8
			c0,1.1-0.1,2.1,0.2,3.2c0.1,0.5,0.1,1.1,0.1,1.6c0,0.4,0,0.7,0.1,1.1c0,0.2,0.1,0.5,0.1,0.7c0,0.5,0.1,1,0.2,1.5
			c0.1,0.3,0.1,0.5,0.1,0.8c0.1,0.5,0.1,0.9,0.4,1.4c0.1,1.5,0.5,2.8,1,4.2l0.1,0.3c0.8,2.4,1.7,4.8,2.8,7.1
			c1.1,2.2,2.2,4.4,3.5,6.5c1.5,2.3,3.1,4.7,4.9,6.8c0.2,0.3,0.5,0.6,0.7,0.9l0,0l0,0l0,0c0.8,0.9,1.5,1.9,2.4,2.7
			c2.1,2.2,4.2,4.4,6.5,6.4c0.2,0.1,0.3,0.3,0.5,0.4c1.1,0.9,2.1,1.8,3.2,2.8c0.6,0.4,1.1,0.9,1.7,1.3c0.5,0.4,1.1,0.9,1.6,1.3
			c1,0.8,2,1.5,3,2.2c1.4,1,2.9,2,4.3,2.9c0.3,0.2,0.6,0.4,0.9,0.6h0h0l0,0h0h0h0l0,0h0h0l0,0c1,0.6,2,1.3,3.2,1.7
			c0.7,0.6,1.5,0.9,2.3,1.3c0.4,0.2,0.8,0.3,1.2,0.5c0.3,0.1,0.7,0.2,1.1,0.2c0.2,0,0.4,0,0.6,0.1c0,0,0.1,0,0.1-0.1
			c0,0,0-0.1,0.1-0.1v-0.4c-0.7-0.9-1.6-1.5-2.5-2.1h0l0,0h0h0h0l0,0h0h0l0,0h0c-0.3-0.2-0.5-0.4-0.8-0.6c-0.3-0.2-0.6-0.4-0.9-0.6
			c-0.4-0.2-0.8-0.4-1.1-0.7c-0.9-0.7-1.8-1.4-2.8-2h0c-0.6-0.4-1.2-0.8-1.7-1.2c-1-0.7-2.1-1.5-3.1-2.3l0,0h0h0h0
			c-0.8-0.6-1.6-1.2-2.4-1.8c-0.4-0.2-0.6-0.5-1-0.8c-0.3-0.3-0.6-0.6-0.9-0.8c-1.1-0.8-2.1-1.7-3-2.6c-0.3-0.3-0.5-0.5-0.8-0.8l0,0
			c-2.2-2.1-4.5-4.3-6.5-6.8c-0.4-0.6-0.9-1.2-1.4-1.8c-0.5-0.6-1-1.2-1.4-1.8c-0.8-1.1-1.6-2.2-2.3-3.4c-0.2-0.4-0.4-0.8-0.7-1.1
			s-0.5-0.8-0.7-1.2c-0.1-0.1-0.1-0.3-0.2-0.4c-0.1-0.3-0.2-0.5-0.4-0.8c-0.4-0.6-0.7-1.3-1-2c-0.2-0.5-0.4-0.9-0.7-1.4
			c-0.3-0.5-0.5-1.1-0.7-1.7c-0.1-0.4-0.3-0.8-0.4-1.1c-0.5-1.1-0.8-2.2-1.1-3.3c-0.1-0.3-0.2-0.7-0.3-1c-0.2-0.5-0.3-1.1-0.4-1.6
			c-0.1-0.3-0.1-0.5-0.2-0.8c0-0.3-0.1-0.6-0.2-0.9c-0.1-0.5-0.2-1-0.2-1.6c0-0.1,0-0.1,0-0.2c0-0.2,0-0.3,0-0.4
			c-0.3-0.4-0.3-0.8-0.2-1.1c0-0.1,0-0.2,0-0.4c0-0.3-0.1-0.5-0.2-0.8c-0.1-0.2-0.2-0.5-0.2-0.8v-6.1c0-0.1,0-0.1,0-0.2
			c0-0.2,0-0.4,0-0.5c0.2-0.3,0.2-0.6,0.2-0.9c0-0.2,0-0.4,0.1-0.6c0.2-0.5,0.2-1,0.2-1.5c0-0.1,0-0.1,0.1-0.2c0-0.1,0-0.2,0-0.2
			c0-0.1,0.1-0.2,0.1-0.4c0.1-0.3,0.2-0.6,0.2-0.9c0-0.3,0.1-0.6,0.2-0.9l0,0h0c0-0.2,0.1-0.3,0.1-0.5c0.1-0.3,0.1-0.5,0.2-0.8
			c0.1-0.2,0.1-0.3,0.2-0.5c0.2-0.9,0.6-1.7,1-2.5c0.1-0.2,0.2-0.4,0.2-0.6h0c0.1-0.3,0.2-0.5,0.3-0.8c0.2-0.4,0.4-0.8,0.7-1.2
			c0.1-0.2,0.3-0.4,0.4-0.7c0.6-1.1,1.4-2.1,2.2-3.1c0.1-0.2,0.3-0.4,0.5-0.5c0.3-0.3,0.6-0.6,0.8-1c0.4-0.2,0.7-0.5,0.9-0.8
			c0.2-0.2,0.4-0.5,0.7-0.6c0.6-0.5,1.1-0.9,1.7-1.3h0c0.7-0.5,1.4-1,2.2-1.4h0v0c1.4-0.8,2.8-1.6,4.3-2.2c0.4-0.1,0.7-0.3,1.1-0.4
			h0l0,0c1-0.4,2-0.8,3.1-1c0.1,0,0.3,0,0.4-0.1c0.4,0,0.7-0.1,1-0.3c0.2-0.2,0.4-0.2,0.7-0.2c0.3,0,0.6,0,0.8-0.2h0
			c1.4-0.2,2.8-0.4,4.2-0.7c0.4-0.1,0.8,0,1.2,0c0.2,0,0.4,0,0.6,0c0.3,0,0.6-0.1,0.9-0.1c0.3-0.1,0.6-0.1,0.9-0.1
			c1.4,0,2.7,0.1,4.1,0.2h0l0.3,0c0.2,0,0.4,0,0.6,0c0.4,0,0.7-0.1,1,0c0.6,0.2,1.2,0.3,1.9,0.4c0.5,0.1,1,0.1,1.4,0.3
			c0.5,0.1,1,0.2,1.5,0.4c0.3,0.1,0.5,0.2,0.8,0.2h0c0.7,0.3,1.4,0.6,2.2,0.8c0.4,0.1,0.8,0.2,1.1,0.4c0.3,0.2,0.7,0.3,1.1,0.4
			c0.1,0,0.1,0,0.2,0.1l0,0c0.6,0.2,1.2,0.4,1.6,0.7c0.5,0.3,1.1,0.6,1.6,0.9c0.9,0.5,1.8,0.9,2.5,1.6c0.8,0.2,1.4,0.7,2,1.2l0,0
			l0,0l0,0h0v0h0l0,0l0,0l0,0h0c0.2,0.1,0.3,0.3,0.5,0.4c1.5,1.1,2.9,2.3,4.2,3.6c0.7,0.6,1.3,1.3,1.9,2l0,0
			c0.2,0.2,0.4,0.4,0.6,0.7c0.1,0.1,0.2,0.2,0.2,0.3c0,0.1,0,0.1,0.1,0.2h0.5c0.7-0.6,1.3-1.2,1.9-1.9c0.7-0.8,1.5-1.5,2.3-2.1
			c0.3-0.3,0.7-0.5,1-0.8c1-0.8,2.1-1.7,3.2-2.4c2.3-1.6,4.8-3,7.7-4.3c1.7-0.7,3.4-1.3,5.1-1.8c0.7-0.3,1.5-0.5,2.3-0.5
			c1.3-0.6,2.8-0.8,4.2-0.9c0.3,0,0.6-0.1,0.8-0.1c1.4-0.2,2.8-0.4,4.2-0.2h1.6c1-0.1,2,0,3.1,0.1c0.7,0.1,1.4,0.1,2,0.1h0.2
			c0.6,0.2,1.2,0.3,1.8,0.4c0.5,0.1,0.9,0.1,1.3,0.3c0.4,0.2,0.8,0.2,1.2,0.3c0.4,0.1,0.9,0.2,1.2,0.3c1.4,0.5,2.7,1,4,1.5v0
			c1.1,0.5,2.2,1,3.2,1.6l0,0c0.4,0.2,0.7,0.4,1.1,0.5c0.8,0.4,1.5,0.9,2.2,1.4c0.4,0.2,0.7,0.5,1.1,0.7c0.9,0.6,1.7,1.2,2.5,1.9
			c1.6,1.5,3.2,3.1,4.5,4.9c1.3,1.8,2.5,3.8,3.6,5.7c0.3,0.6,0.7,1.2,1,1.8c0.2,0.4,0.4,0.7,0.6,1h0.5c0.3-0.7,0.3-1.4,0.3-2.1l0,0
			l0,0l0,0l0,0l0,0c0-0.4,0-0.7,0-1.1c-0.3-0.7-0.4-1.5-0.6-2.2c-0.2-0.9-0.4-1.8-0.8-2.7c-0.2-0.5-0.5-1.1-0.7-1.7
			c-0.2-0.5-0.4-1.1-0.7-1.6c-0.5-1-1-2-1.6-3c-0.5-0.9-1.2-1.8-1.8-2.6c-0.3-0.3-0.5-0.7-0.8-1c-0.2-0.2-0.4-0.4-0.7-0.6
			c-0.2-0.2-0.4-0.4-0.6-0.7c-0.1-0.1-0.2-0.2-0.4-0.3c-0.3-0.3-0.7-0.6-0.8-1.1c-0.4-0.1-0.6-0.4-0.8-0.6c-0.2-0.2-0.3-0.4-0.6-0.5
			c-0.3-0.2-0.6-0.4-0.8-0.7v0v0c-0.3-0.3-0.7-0.6-1.1-0.8c-1-0.6-2-1.3-3-2v0c-0.3-0.2-0.6-0.3-1-0.5c-0.1,0-0.2-0.1-0.3-0.1
			c-0.2-0.1-0.3-0.2-0.5-0.3c-0.3-0.2-0.5-0.4-0.9-0.4c-0.6-0.5-1.4-0.7-2.1-1c-0.3-0.1-0.6-0.2-0.9-0.3c-0.8-0.3-1.6-0.6-2.4-0.9
			l0,0l0,0c-0.4-0.1-0.7-0.2-1.1-0.3l-2.4-0.6c-0.2,0-0.4-0.1-0.6-0.1c-0.4-0.1-0.8-0.2-1.3-0.2c-0.2,0.1-0.5,0.1-0.6,0
			c-0.2-0.2-0.4-0.2-0.6-0.2c-0.1,0-0.3,0-0.4,0c-0.2,0-0.4-0.1-0.6-0.1c-0.2-0.1-0.3-0.1-0.5-0.1c-0.5,0-1.1-0.1-1.6-0.2
			c-0.8-0.1-1.6-0.2-2.4-0.1c-0.1,0-0.1,0-0.2,0c-0.1,0-0.1,0-0.2,0c-0.5-0.3-1.1-0.3-1.6-0.2c-0.3,0-0.6,0.1-1,0
			c-0.5,0.4-1.1,0.3-1.7,0.2c-0.3-0.1-0.7,0-1,0.1c-0.3,0.1-0.5,0.2-0.8,0.2c-0.3,0-0.5,0-0.8,0.1c-0.5,0-1,0-1.5,0.2
			c-0.2,0.1-0.4,0.1-0.7,0.2s-0.4,0.1-0.7,0.2c-0.7,0.3-1.4,0.5-2.1,0.7c-0.7,0.2-1.5,0.4-2.2,0.7c-0.5,0.2-1.1,0.5-1.6,0.7l0,0l0,0
			c-0.5,0.2-1.1,0.4-1.6,0.7c-0.6,0.2-1.2,0.6-1.8,0.9c-0.4,0.2-0.7,0.4-1.1,0.6c-1.8,1-3.5,2.1-5.1,3.3
			C77.7,86.8,76.4,88,75.2,89.2z M51.7,124c-1-1.1-2.3-1.8-3.7-2.4c0.3-0.2,0.5-0.4,0.7-0.6c1.1-0.7,1.9-1.8,2.4-2.9
			c0.1-0.1,0.1-0.2,0.2-0.4c0.4-0.7,0.8-1.5,0.6-2.3c0.3-0.4,0.3-0.8,0.2-1.2c0-0.2-0.1-0.5,0-0.8c0.1-0.7,0.2-1.5,0-2.1
			c0-0.2-0.1-0.3-0.1-0.5c-0.3-1.3-0.7-2.6-1.5-3.7c-1.1-1.8-2.6-2.9-4.4-3.8c-0.7-0.4-1.4-0.6-2.2-0.8c-0.3-0.1-0.6-0.1-0.9-0.2
			l0,0h0l0,0l0,0h0l0,0l0,0h0l0,0h0c-0.8-0.2-1.5-0.3-2.3-0.3H30.1c-0.3,0-1.9,0.5-2.2,0.6c-0.5,0.3-0.9,0.7-1.3,1.1
			c-0.2,0.2-0.4,0.4-0.6,0.6c-0.4,1.6-0.4,3.1-0.3,4.7c0,0.4,0,0.9,0,1.3v32.5v1.2h0.6h15.2c0.2,0,0.4,0,0.5,0h0
			c0.7,0,1.3,0,2.1-0.2c0.2,0,0.3-0.1,0.5-0.2c0.5-0.2,1.1-0.3,1.7-0.3c0.5-0.3,0.9-0.5,1.4-0.7h0h0c0.5-0.2,0.9-0.4,1.4-0.7
			c1.3-0.9,2.4-1.9,3.3-3.2c0.3-0.4,0.5-0.9,0.8-1.4c0.1-0.3,0.3-0.6,0.4-0.8c0.5-1.1,0.9-2.1,0.9-3.3c0-0.1,0-0.1,0-0.2l0,0
			c0-0.2,0-0.3,0-0.5c0.3-0.6,0.2-1.1,0.1-1.6c-0.1-0.4-0.2-0.8-0.2-1.1c0-0.2,0-0.4-0.1-0.6c0-0.1,0-0.3-0.1-0.4
			c0-0.2,0-0.5-0.1-0.7c-0.1-0.3-0.2-0.5-0.3-0.8c-0.2-0.5-0.3-1-0.6-1.4c-0.2-0.3-0.5-0.6-0.8-1C52.2,124.6,52,124.3,51.7,124z
			 M32.6,137.7c-0.2-0.9-0.2-11,0-12.1c0.9,0,1.9,0,2.8,0h0h0h0h0h0h0h0h0h0h0c1.9,0,3.7,0,5.5,0c1,0,1.8,0.3,2.6,0.5h0
			c0.3,0.1,0.6,0.2,0.9,0.3c0.1,0,0.2,0.1,0.3,0.2c0.8,0.7,1.6,1.5,2.1,2.5c0.1,0.2,0.1,0.4,0.1,0.6c0.1,0.3,0.1,0.7,0.4,0.9
			c0,1.4,0,2.9-0.9,4.2c-0.1,0.1-0.2,0.3-0.4,0.5c-0.4,0.5-0.7,0.9-1.2,1.2c-0.8,0.5-1.6,0.8-2.6,1c-0.7,0.2-1.4,0.2-2.1,0.2l0,0
			H32.6z M33,119.2c0,0-0.1,0-0.1,0.1c-0.1-0.1-0.2-0.2-0.4-0.3v-10.3l0.3-0.3c0.7,0,1.3,0,2,0c1.3,0,2.7,0,4,0
			c0.4,0,0.8,0.1,1.2,0.1c0.4,0.1,0.9,0.1,1.2,0.1c0.2,0.1,0.4,0.2,0.6,0.3h0c0.3,0.2,0.5,0.3,0.8,0.4c1.1,0.3,1.6,1.2,2,2.1
			c0.2,0.3,0.2,0.7,0.3,1c0,0.4,0.1,0.7,0.2,1.1c0.1,0.1,0,0.2,0,0.3c0,0.1-0.1,0.1-0.1,0.1c-0.1,1.3-0.3,2.6-1.2,3.6
			c-0.8,0.9-1.7,1.5-2.8,1.5c-0.4,0-0.7,0.1-1.1,0.1h0h0l0,0h0h0l0,0h0h0c-0.7,0.1-1.5,0.2-2.3,0.2c-0.8-0.1-1.5,0-2.3,0h0
			c-0.4,0-0.8,0-1.2,0c-0.1,0-0.2,0-0.3,0c-0.3,0-0.5,0.1-0.7-0.2C33.1,119.2,33.1,119.2,33,119.2z M124.7,130.9
			c-0.1,2,0.6,3.6,1.8,4.9c0.1,0.1,0.2,0.2,0.2,0.3s0.2,0.2,0.2,0.4c0.2,0.1,0.4,0.3,0.6,0.5l0,0c0.2,0.2,0.4,0.4,0.6,0.5l1.2,0.6
			c0.9,0.4,1.8,0.8,2.9,0.7c0.3-0.1,0.5,0,0.7,0c0.1,0,0.2,0,0.4,0c1.9,0.1,3.5-0.7,5.1-1.7c1.1-0.6,1.8-1.5,2.4-2.7
			c0.4-0.2,0.8-0.1,1.1,0.2c0.2,0.2,0.4,0.3,0.6,0.4c0.4,0.3,0.9,0.5,1.1,1.1c0.3,0.7,0.4,1.6,0.3,2.2c-0.3,2.1-1.7,3.3-3.3,4.4
			c-1.4,1-3.5,1.6-4.9,1.9c-0.9,0.2-1.8,0.2-2.7,0.2c-0.3,0-0.6,0-0.9,0c-0.6,0-1.3,0-1.9,0c-1.1-0.1-2.1-0.4-3.2-0.8
			c-1.5-0.6-2.9-1.5-4.2-2.4c-0.8-0.5-1.4-1.2-2-2c-0.5-0.6-1-1.3-1.4-2c-0.2-0.3-0.3-0.5-0.5-0.8c-0.3-0.5-0.6-1.1-0.8-1.7
			l-0.6-1.8c-0.2-1.1-0.4-2.2-0.5-3.3c0-0.2,0-0.3-0.1-0.5c-0.1-0.6-0.2-1.2-0.1-1.7c0.2-2.3,0.5-4.6,1.4-6.7
			c0.7-1.6,1.5-3.1,2.6-4.4c0.6-0.7,1.3-1.4,2.2-2c0.2-0.1,0.4-0.3,0.6-0.4c0.7-0.5,1.3-0.9,2.1-1.3c1.3-0.6,2.6-1.1,4.1-1.2
			c0.3,0,0.6-0.1,0.9-0.1l0,0c0.4-0.1,0.9-0.1,1.3-0.1c0.3,0.1,0.6,0.1,1,0.1c0.9,0.1,1.8,0.3,2.7,0.6c1.2,0.4,2.3,1,3.4,1.6
			c1.4,0.7,2.5,1.9,3.4,3.1c1.2,1.4,2.1,3.1,2.6,5c0.5,1.5,0.9,3,0.7,4.7c-0.1,0.7,0,1.3,0,2c0,0.3,0,0.7,0,1c0,0.4-0.1,0.8-0.2,1.2
			l0,0c0,0.1,0,0.1,0,0.2C139,130.9,131.9,130.9,124.7,130.9z M139.6,125.6c-0.1-0.3-0.1-0.5-0.2-0.8c-0.1-0.6-0.2-1.2-0.4-1.7
			c-0.6-1.7-1.4-3.3-3-4.3c-1.9-1.2-3.9-1.5-6.1-0.9c-0.9,0.2-2.4,1.1-2.9,1.7l-0.1,0.1l-0.1,0.2c-0.8,1-1.6,1.9-1.9,3.2
			c0,0.2-0.1,0.4-0.2,0.6c-0.2,0.6-0.4,1.2-0.2,1.9H139.6z M64,131h21.3c0.3-0.9,0.4-1.9,0.4-2.7l0,0c0-0.5,0-1,0.1-1.4
			c0-1.1-0.2-2.3-0.5-3.4c-0.4-1.8-1-3.4-2-4.9c-1.1-1.7-2.4-3.2-4-4.3c-0.3-0.2-0.6-0.3-0.8-0.5c-0.3-0.2-0.6-0.3-0.9-0.4
			c-0.2-0.1-0.4-0.2-0.6-0.3h0h0c-0.4-0.2-0.9-0.4-1.3-0.5c-0.6-0.3-1.3-0.5-1.9-0.5c-0.3,0-0.7-0.1-1.1-0.2l0,0h0
			c-0.3-0.1-0.7-0.1-1-0.1c-1.7-0.1-3.3,0.1-4.8,0.7c-0.3,0.1-0.6,0.2-0.9,0.4c-0.6,0.2-1.2,0.4-1.8,0.8c-0.2,0.1-0.3,0.2-0.5,0.3
			c-0.7,0.5-1.4,0.9-2,1.6c-1,1.1-2,2.2-2.8,3.5c-0.7,1.1-1.4,2.3-1.8,3.6c-0.4,1.1-0.5,2.3-0.7,3.4c0,0.3-0.1,0.6-0.1,0.9
			c-0.1,0.4,0,0.9,0,1.3v0l0,0l0,0l0,0l0,0l0,0l0,0l0,0l0,0c0,0.2,0,0.4,0,0.6c0,0.1,0,0.3,0,0.5c0,0.5,0,1,0.1,1.3
			c0.1,0.3,0.1,0.5,0.1,0.8c0,0.4,0,0.7,0.3,1c-0.1,1,0.3,1.9,0.7,2.8h0c0,0.1,0.1,0.1,0.1,0.2c1.1,2.5,2.7,4.8,5,6.5
			c1.2,0.9,2.5,1.6,3.9,2.1c1.5,0.6,2.9,1,4.5,0.9c0.2,0,0.4,0,0.6,0h0c0.4,0,0.7,0,1.1,0c0.6,0.1,1.2,0,1.8-0.1
			c0.4-0.1,0.9-0.2,1.3-0.2c0.4,0,0.7-0.1,1-0.3c0.1-0.1,0.3-0.1,0.4-0.2c1.8-0.7,3.5-1.5,4.8-2.9c1.2-1.3,1.6-2.7,1.4-4.4
			c0-0.2-0.1-0.4-0.3-0.6c0-0.1-0.1-0.1-0.1-0.2c-0.1-0.1-0.2-0.2-0.3-0.4l0,0c-0.1-0.1-0.2-0.2-0.3-0.4c-0.1-0.1-0.2-0.2-0.3-0.3
			c-0.5-0.4-1-0.9-1.5-0.7c-0.5,0.4-0.8,0.8-1.1,1.2c-0.4,0.4-0.7,0.9-1.2,1.2c-1.7,1.2-3.5,2.1-5.6,2h-1.3
			c-1.1-0.1-2.1-0.3-3.1-0.9c-1.4-0.8-2.5-1.7-3.3-2.9c-0.3-0.4-0.6-0.9-0.7-1.4l-0.3-0.9c0-0.3,0-0.6-0.2-0.9
			c-0.1-0.1,0-0.3,0.1-0.6C63.9,131.2,64,131.1,64,131z M74.4,118.1c2.4,1.5,4.5,4.3,4.2,7.5c-4.9,0-9.8,0-14.7-0.1
			c-0.2-0.7,0-1.3,0.1-1.9c0.1-0.4,0.3-0.9,0.3-1.3c0.2-0.3,0.4-0.6,0.7-1c0.5-0.8,1.1-1.7,1.8-2.2c1-0.7,2.1-1.2,3.2-1.4
			c0.8-0.2,1.8-0.2,2.7-0.1C73.3,117.6,73.9,117.8,74.4,118.1z M205.5,128.2v0.8c0.1,1.6-0.3,3.1-0.7,4.5c-0.7,2.1-1.3,3.3-2.2,4.5
			c-1.1,1.7-2.1,2.7-3.6,3.8c-0.8,0.7-1.7,1.3-2.7,1.7c-0.2,0.1-0.4,0.2-0.6,0.2h0c-1.4,0.5-2.7,1-4.3,1h-2.3c-1.4,0-2.7-0.5-4-1
			c-0.6-0.2-1.3-0.5-1.8-0.9c-0.3-0.3-0.7-0.5-1.1-0.7c-0.6-0.4-1.3-0.8-1.8-1.4c-1-1.1-1.9-2.3-2.6-3.6c-0.6-1-1-2.2-1.4-3.3l0,0
			c-0.2-0.4-0.3-0.8-0.5-1.2c-0.1-0.2-0.1-0.4-0.1-0.6c0-0.2,0-0.5-0.2-0.7c-0.3-0.7-0.5-4.2-0.3-4.8c0.1-0.5,0.2-1,0.3-1.6
			c0.2-1,0.4-2.1,0.9-3c0.8-2,1.9-4,3.2-5.3c1-1,2-2,3.2-2.8c1-0.6,3-1.4,4.1-1.7c1.2-0.3,2.4-0.5,3.7-0.5c0.8,0.1,1.5,0.2,2.3,0.4
			c0.4,0.1,0.8,0.2,1.2,0.2c1,0.2,1.9,0.7,2.8,1.2l0,0h0v0h0l0,0c0.3,0.1,0.5,0.3,0.8,0.4c0.4,0.1,0.7,0.4,1,0.6
			c0.1,0.1,0.2,0.2,0.3,0.3c1.7,1.5,3.2,3.1,4.3,5.2c0.8,1.5,1.5,3.6,1.7,4.9c0,0.1,0,0.1,0,0.2l0,0l0,0c0.1,0.5,0.2,1,0.2,1.5
			C205.5,127,205.5,127.6,205.5,128.2z M192.8,117.9c-0.1,0-0.3,0-0.4,0c-0.3,0-0.5,0-0.7,0l-0.2,0c-1.4-0.3-1.9-0.3-2.9,0
			c-1.7,0.6-2.8,1.2-3.9,2.8c-0.8,1.1-1.5,2.2-1.8,3.6c-0.3,1.4-0.5,2.7-0.7,4.1c-0.1,0.3,0,0.6,0.1,0.9c0.1,0.2,0.2,0.5,0.2,0.8
			c0,1.4,0.5,2.7,1,3.9c0.5,1.2,1.3,2.2,2.3,3c0.5,0.4,2.2,1.2,2.8,1.4c0.6,0.2,1.3,0.2,2,0.2c0.2,0,0.4,0,0.5,0
			c1.5,0.1,2.8-0.6,3.9-1.5c1.2-0.9,2.2-2,2.8-3.4c0.1-0.2,0.1-0.3,0.2-0.5l0,0v0l0,0c0.5-1.2,0.9-2.5,0.8-3.8v-2.9
			c0-1.3-0.4-2.5-0.9-3.7c-1-2.2-2.4-3.9-4.7-4.8C193,118.1,192.9,118,192.8,117.9z M107.7,144h7.1c0-4.8,0-9.6,0.2-14.5
			c0-0.5,0-1,0-1.5c0-2.3,0.1-4.6-0.5-6.9c-0.1-0.4-0.8-2.7-1-3.1c-0.2-0.3-0.4-0.6-0.6-0.9c-0.6-0.9-1.1-1.8-1.9-2.5
			c-1.5-1.3-2.6-2.1-4.4-2.6c-0.9-0.3-1.7-0.5-2.6-0.6c-0.8-0.1-1.5,0-2.3,0.1c-0.5,0.1-1,0.1-1.5,0.1c-0.4,0.2-0.8,0.4-1.2,0.5
			c-0.5,0.2-1,0.4-1.5,0.7c-0.7,0.4-1.2,0.8-1.8,1.3c-0.1,0.1-0.2,0.2-0.3,0.3c-0.1,0.1-0.1,0.1-0.2,0.2c-0.1,0-0.1,0.1-0.2,0.2
			c-0.1,0.1-0.2,0.2-0.4,0.2v-2.6h-3.4l-0.1,0l-0.1,0c-0.4,0.1-0.8,0.2-1,0.4c-1.3,0.8-1.9,1.5-1.9,3.4v26.7v1h6.8v-1.2v-16
			c0-1.5,0.1-3,0.5-4.5c0.4-1.7,1.5-3,3.1-3.9c0.7-0.3,1.4-0.4,2.2-0.6c0.2,0,0.5-0.1,0.7-0.1c0.1-0.1,0.3,0,0.5,0
			c0.1,0,0.2,0,0.3,0c0.2,0,0.3,0.1,0.5,0.1c0.2,0.1,0.3,0.1,0.4,0.1c1.5,0.2,2.6,1,3.4,2.2s1.1,2.7,1.2,4.1c0.1,2.5,0.1,4.9,0,7.4
			c0,1.2,0.1,2.5,0.2,3.7c0.1,1.2,0.2,2.4,0.2,3.7v2.8c0,0.1,0,0.3,0,0.4v0C108,142.7,108,143.3,107.7,144z M170.7,132.9
			c1.5,0,2.7,0.5,3.4,1.9c0.6,1.2,0.6,2.4,0,3.6c-1.2,2.7-3.2,4.7-6.3,5.6c-0.2,0.1-0.5,0.2-0.7,0.3c-0.2,0.1-0.3,0.2-0.4,0.2
			c-0.4,0-0.8,0.1-1.2,0.2c-0.5,0.1-0.9,0.2-1.4,0.1c-0.4-0.1-0.7,0-1.1,0c-0.2,0-0.4,0-0.6,0c-2.6,0-5-0.9-7.2-2.3
			c-1.4-0.9-2.5-2.2-3.5-3.5c-0.1-0.1-0.2-0.2-0.3-0.3c-0.2-0.6-0.5-1.2-0.9-1.8c-0.6-1.2-1.2-2.4-1.3-3.7c-0.2-0.3-0.2-0.6-0.2-0.9
			c0-0.3,0-0.5-0.1-0.7c-0.2-0.3-0.2-0.6-0.2-0.9c0-0.2,0-0.4,0-0.6c0-0.2,0-0.5,0-0.7c0-0.4,0-0.7-0.2-1c-0.1-0.1,0-0.4,0.1-0.4
			c0.2-0.2,0.2-0.4,0.2-0.7c-0.1-1.2,0.1-2.3,0.4-3.5c0.2-1.1,0.6-2.1,1.1-3.1c0.8-1.6,1.4-2.7,2.2-3.9c1.3-1.8,3-3,4.9-3.9
			c1.2-0.6,2.5-1.1,3.9-1.1c0.3,0,0.5-0.1,0.8-0.1c0.3-0.1,0.7-0.1,1-0.1c2.6,0.1,5,0.7,7.2,2c0.5,0.3,0.9,0.6,1.3,0.9
			c0.1,0.1,0.2,0.2,0.3,0.2c0.3,0.2,0.6,0.4,0.8,0.7c0.1,0.2,0.3,0.3,0.4,0.5c0.6,0.6,1.2,1.3,1.6,2.2c0.1,0.2,0.3,0.4,0.6,0.7
			c-0.8,0.8-1.7,1.4-2.6,2.1l0,0c-0.8,0.6-1.7,1.2-2.4,1.9c-0.1-0.3-0.1-0.4-0.1-0.5c-1-1.9-2.6-3.4-4.7-4.1
			c-1.2-0.4-2.5-0.6-3.9-0.2c-1,0.3-1.9,0.7-2.7,1.3c-0.6,0.5-1.1,1.2-1.6,1.9c-0.5,0.8-0.8,1.7-1.1,2.6v0c-0.1,0.3-0.2,0.5-0.3,0.7
			c-0.1,0.4-0.2,0.9-0.2,1.4l0,0c0,0.2,0,0.5-0.1,0.7c0,0.4,0,0.8,0,1.2v0c0,0.8,0,1.6,0,2.4c0.1,1.5,0.4,2.9,1,4.3
			c0.5,1.1,1,2.1,1.9,2.8c1,0.8,2.1,1.5,3.5,1.6c0.2,0,0.4,0.1,0.6,0.1c0.3,0.1,0.6,0.1,0.9,0.1c0.1,0,0.2,0,0.3,0l0.1,0
			c1.1-0.2,2-0.3,2.9-1c0.4-0.3,0.8-0.6,1.2-0.8c0.6-0.4,0.9-0.9,1.3-1.4c0.1-0.2,0.3-0.4,0.4-0.5c0.2-0.4,0.4-0.8,0.5-1.2
			C170.4,133.7,170.5,133.3,170.7,132.9z M221.8,108.9c0.6,0.2,1.1,0.3,1.6,0.7c0.3,0,0.7,0,1.1,0.2c0.8,0.2,1.6,0.4,2.4,0.4
			c0.2,0,0.4,0,0.6,0c0.4,0,0.7,0,1.1,0c0.6,0.1,1.1,0,1.7-0.1c0.3-0.1,0.6-0.1,0.9-0.2c0.8,0,4.2-1.4,5.1-1.9
			c0.7-0.3,1.3-0.7,1.9-1.1l0,0c0.5-0.3,0.9-0.6,1.4-0.9c0.2-0.1,0.4-0.3,0.5-0.5c0.1-0.2,0.3-0.3,0.5-0.5c0.2-0.2,0.4-0.4,0.6-0.5
			l0,0l0,0l0,0c0.2-0.1,0.3-0.2,0.5-0.4c0.5-0.4,0.9-0.9,1.3-1.3v0c0.2-0.2,0.4-0.4,0.6-0.6c0.3-0.3,0.6-0.7,0.8-1l0,0l0,0l0,0h0
			c0.3-0.3,0.5-0.6,0.8-1c0.2-0.2,0.4-0.5,0.6-0.8c0.2-0.2,0.3-0.5,0.5-0.7c0.1-0.1,0.2-0.3,0.4-0.4s0.2-0.3,0.4-0.4
			c0.1-0.1,0.1-0.2,0.1-0.3c0.1-0.2,0.3-0.5,0.6-0.6c0.1-0.1,0.2-0.3,0.3-0.5c0.1-0.2,0.1-0.3,0.2-0.5c0.4-0.7,0.8-1.4,1.2-2.1v0
			c0.2-0.3,0.3-0.5,0.5-0.8c-0.2,0-0.4-0.1-0.5-0.2c-0.2-0.1-0.4-0.1-0.7-0.1h-1.9c-0.3,0-0.6,0-0.9-0.1c-0.3,0-0.6-0.1-0.9-0.1
			c-0.5,0-1,0-1.6,0.1c-0.8,0-1.6,0-2.4,0.1c-0.7,0.2-1.4,0.2-2.2,0.2c-0.7,0-1.4,0-2.1,0.2c-0.2,0-0.5,0-0.7,0.1
			c-0.5,0-1,0-1.5,0.2c-0.2,0.1-0.4,0.1-0.6,0.1c-0.2,0-0.4,0-0.6,0.1c-0.5,0.3-1,0.4-1.5,0.5c-0.4,0.1-0.8,0.2-1.2,0.4
			c-0.4,0.2-0.8,0.3-1.3,0.5c-0.4,0.2-0.9,0.3-1.3,0.5c-1.4,0.6-2.6,1.5-3.7,2.4c-1.4,1.1-2.5,2.5-3.2,4.1c-0.2,0.5-0.4,1-0.6,1.4
			c-0.2,0.5-0.4,1-0.6,1.5c-0.1,0.3-0.1,0.5-0.1,0.8c0,0.3,0,0.6-0.2,0.9c-0.1,0.2-0.1,0.5,0,0.9v0l0,0l0,0l0,0c0,0.2,0,0.3,0,0.4
			C220.2,108.5,221,108.7,221.8,108.9z M215.5,137.8c0.2,0.2,0.4,0.3,0.6,0.4c0.1,0.1,0.2,0.1,0.3,0.2h3.3l0.3,0.3v4.7
			c0,0.1,0,0.1-0.1,0.1c0,0-0.1,0-0.1,0.1l0,0c0.1,0.1,0.2,0.2,0.2,0.3c-0.1,0-0.1,0-0.1,0.1c0,0,0,0.1-0.1,0.1h-5.3
			c-1.2,0-2.4-0.4-3.4-1.2c-0.9-0.7-1.6-1.6-2.1-2.6c-0.4-0.8-0.5-1.6-0.6-2.5c-0.3-2.6-0.3-5.2-0.2-7.7c0-0.9,0-1.7,0-2.6v-10.3
			v-10.4c0-0.7,0.1-1.5,0.3-2.2s0.7-1.2,1.3-1.6c0.7-0.4,1.5-0.7,2.4-0.7c0.7-0.1,1.3,0,2,0c0.4,0,0.7,0,1.1,0v1.2v29.1
			c0,0.5,0,0.9,0,1.4l0,0C215.2,135.2,215.1,136.6,215.5,137.8z M222.7,84.3c-0.1-0.5-0.1-1.1-0.3-1.7c-0.6,0.5-1.1,0.9-1.7,1.3v0
			l0,0c-0.4,0.3-0.8,0.6-1.2,0.9c-0.3,0.2-0.6,0.5-0.9,0.8c-0.5,0.5-1.1,1.1-1.6,1.7c-1.2,1.4-2.3,2.9-2.9,4.6
			c-0.1,0.2-0.1,0.3-0.2,0.5c-0.3,0.7-0.5,1.4-0.4,2.2c0.1,1.1,0.2,2.1,0.7,3.2c0.3,0.7,0.6,1.4,1.2,1.9v0c0.3-0.1,0.6-0.2,0.8-0.3
			c1.4-0.5,2.7-1.2,3.7-2.2c0.9-0.8,1.5-1.8,2-2.9c0.7-1.4,1.1-3,1.1-4.6c0-0.3,0-0.7,0-1c0-1.3,0-2.6-0.2-3.9
			C222.8,84.6,222.8,84.4,222.7,84.3z M229.7,137c3.4,1.5,3.5,5.5,0,7h-1.4c-1.3-0.1-2.3-0.4-2.9-1.8c-0.4-1-0.6-1.9-0.2-3
			c0.5-1.4,1.7-2.2,2.9-2.2H229.7z M229.2,143.3c1.9-1.3,1.9-1.5,1.8-3.4v0c0-0.2,0-0.3,0-0.5l0,0l0,0c-0.3-0.4-0.6-0.8-1-1.2
			c-1-0.4-1-0.4-2-0.4c-0.1,0.1-0.3,0.1-0.4,0.2c-0.6,0.3-1.2,0.6-1.4,1.2c-0.4,0.9-0.3,1.9,0.1,3c0.2,0.2,0.4,0.4,0.7,0.6l0,0l0,0
			c0.2,0.2,0.5,0.4,0.7,0.6C228.2,143.3,228.6,143.3,229.2,143.3L229.2,143.3z M229.3,142.6h0.7c0.2-0.6-0.2-1-0.6-1.5
			c-0.1-0.1-0.2-0.3-0.3-0.4c0.1-0.1,0.3-0.2,0.4-0.2s0.2-0.1,0.4-0.2c0-0.2,0-0.3,0-0.5c0-0.4,0.1-0.7-0.3-1
			c-0.4-0.1-0.8-0.1-1.2-0.1c-0.4,0-0.8,0-1.2-0.1c0,0-0.1,0.1-0.2,0.3v3.4l0.4,0.4c0.1-0.2,0.2-0.3,0.4-0.5V141l0.3-0.3
			c0.2,0.3,0.4,0.6,0.6,0.9C228.9,142,229.1,142.3,229.3,142.6z M228.3,139.2h0.7c0.1,0.2,0.2,0.3,0.5,0.4c-0.2,0.2-0.3,0.3-0.4,0.5
			H228v-0.7C228,139.3,228.2,139.2,228.3,139.2z"/>
	</g>
</g>
</svg>
