<?xml version="1.0" encoding="utf-8"?>
<!-- Generator: Adobe Illustrator 26.2.1, SVG Export Plug-In . SVG Version: 6.00 Build 0)  -->
<svg version="1.1" id="Layer_1" xmlns="http://www.w3.org/2000/svg" xmlns:xlink="http://www.w3.org/1999/xlink" x="0px" y="0px"
	 viewBox="0 0 250 250" style="enable-background:new 0 0 250 250;" xml:space="preserve">
<style type="text/css">
	.st0{fill-rule:evenodd;clip-rule:evenodd;fill:url(#SVGID_1_);}
	.st1{fill:#FFFFFF;}
	.st2{fill-rule:evenodd;clip-rule:evenodd;fill:url(#SVGID_00000119092826141059701840000006115733883500740782_);}
</style>
<linearGradient id="SVGID_1_" gradientUnits="userSpaceOnUse" x1="146.5247" y1="198.3907" x2="99.4277" y2="55.6912" gradientTransform="matrix(1 0 0 -1 0 252)">
	<stop  offset="9.895830e-02" style="stop-color:#8F73DB"/>
	<stop  offset="0.3854" style="stop-color:#6483F9"/>
	<stop  offset="0.6875" style="stop-color:#4EC8FC"/>
	<stop  offset="0.901" style="stop-color:#B8E7DD"/>
</linearGradient>
<path class="st0" d="M210.5,165.2c-1,0-2.1-0.3-2.9-0.9c-1.2-0.8-1.9-2.1-2.2-3.5l-1.7-10.7c-0.2-1.4,0.1-2.8,0.9-3.9
	c0.8-1.1,2-1.9,3.4-2.1l2-0.3l-11.7-21.9c-0.2,0.3-0.5,0.5-0.7,0.7l-8.8,7.1l5,0.6c2.8,0.4,4.8,2.9,4.5,5.8l-1.3,11.3
	c-0.2,1.4-0.9,2.7-1.9,3.5c-0.9,0.7-2,1.1-3.2,1.1c-0.2,0-0.4,0-0.6,0l-36-4.6c-0.8-0.1-1.6-0.4-2.3-0.9l-13.1,2.2
	c-0.3,0-0.6,0.1-0.8,0.1c-1.1,0-2.1-0.3-3-1c-1.1-0.8-1.9-2.1-2.1-3.4l-3.2-20.5c-0.2-1.1-0.4-1.7-0.5-2c-0.1,0-0.2,0-0.2,0
	c0,0.2-0.1,0.4-0.1,0.7c0,0.6,0.1,1.4,0.2,2.2l3,19.7c0.4,2.8-1.5,5.5-4.3,6l-14.8,2.4c-0.3,0-0.5,0.1-0.8,0.1c-1.1,0-2.1-0.3-3-1
	c-1.1-0.8-1.9-2.1-2.1-3.4l-6-38.7c-0.4-2.8,1.5-5.5,4.3-6l13.5-2.2c0.3,0,0.6-0.1,0.8-0.1c0.9,0,1.8,0.2,2.6,0.7
	c0.8-0.6,1.6-1.2,2.4-1.7c0.1,0,0.1-0.1,0.2-0.1c1.9-1,4-1.7,6.3-2.1c1.5-0.3,2.9-0.4,4.3-0.4c6.5,0,11.7,2.8,15,8.2
	c1.8,2.9,3.1,6.5,3.7,10.7c0,0,1.3,8.5,1.3,8.5l6.5-5.2L160,120c-2.8-0.4-4.8-3-4.5-5.8l1.4-11.3c0.2-1.4,0.9-2.6,2-3.5
	c0.9-0.7,2-1.1,3.2-1.1c0.2,0,0.4,0,0.6,0l33.7,4.3c1,0.1,1.8,0.5,2.6,1.1l12.7-2.1c0.3,0,0.6-0.1,0.8-0.1c2,0,3.8,1.2,4.7,3.1
	l2.5,5.6l0.7-6c0.3-2.3,2-4.2,4.3-4.6l14.2-2.4c0.3,0,0.6-0.1,0.8-0.1c1.4,0,2.7,0.5,3.7,1.5c1.2,1.2,1.7,2.9,1.4,4.6l-6.4,38
	c-0.8,4.9-1.2,6.6-1.4,7.4c-0.8,3.5-2,6.2-3.6,8.3c-2.8,3.7-7.8,6.1-15.4,7.4c-0.1,0-0.1,0-0.2,0c-0.8,0.1-2,0.2-3.5,0.4
	c-1.6,0.1-2.4,0.3-2.7,0.3C211.2,165.2,210.9,165.2,210.5,165.2L210.5,165.2z M59.4,153.2c-0.2,0-0.4,0-0.7,0l-10.9-1.4
	c-1.4-0.2-2.6-0.9-3.4-2c-2.7,1-5.6,1.5-8.7,1.5c-4.6,0-9.1-1-13.3-2.8c-4.4-2-8.1-4.8-10.9-8.5c-4.2-5.5-6.4-12.2-6.4-19.9
	c0-1.8,0.1-3.6,0.3-5.5c1.2-10,5-17.8,11.5-23.3c5.4-4.6,12-6.9,19.7-6.9c9.6,0,17.4,3,23.3,8.8c5.1,5.1,7.9,11.6,8,19.4
	c0,1.1-0.3,2.1-0.8,3c0.6,1,1,2.2,0.8,3.5l-3.5,29.7c-0.2,1.4-0.9,2.6-2,3.5C61.7,152.8,60.6,153.2,59.4,153.2L59.4,153.2z
	 M32.6,117.7c-0.1,1.1-0.2,2.2-0.2,3.2c0,2.3,0.4,3.8,1,4.8l1.3-11c0.2-1.4,0.9-2.6,1.9-3.5c0.9-0.7,2-1.1,3.2-1.1
	c0.2,0,0.4,0,0.7,0l1.2,0.1c-0.3-0.8-0.6-1.2-0.9-1.5c-0.4-0.4-1.2-0.9-2.9-0.9c-1.2,0-2,0.4-2.7,1.5
	C34.3,110.5,33.2,112.9,32.6,117.7L32.6,117.7z"/>
<path class="st1" d="M36.7,89.5c8.2,0,14.8,2.4,19.7,7.3c4.2,4.1,6.3,9.4,6.5,15.8l-16-2c-0.3-2.5-1.3-4.4-3-5.8s-3.7-2.1-6.1-2.1
	c-5.7,0-9.2,4.8-10.3,14.4c-0.1,1.3-0.2,2.6-0.2,3.8c0,7.2,3.1,11.3,9.3,12.1c0.4,0.1,0.8,0.1,1.2,0.1c1.4,0,2.9-0.4,4.2-1
	c2-0.9,3.3-2.3,3.9-4.1l-7.4-0.9l1.4-11.7l23.1,3L59.4,148l-10.9-1.4v-5.4c-3.4,3.2-7.6,4.8-12.8,4.8c-3.9,0-7.7-0.8-11.2-2.4
	c-3.6-1.6-6.6-4-9-7c-3.5-4.5-5.3-10.1-5.3-16.7c0-1.6,0.1-3.2,0.3-4.9c1-8.6,4.2-15.3,9.7-19.9C24.8,91.4,30.3,89.4,36.7,89.5
	 M239.7,102.4l-6.4,38c-0.6,3.6-1,5.9-1.3,7c-0.7,2.8-1.6,4.9-2.7,6.4c-1.9,2.6-6,4.4-12.2,5.4c-0.7,0.1-1.8,0.2-3.3,0.3
	c-1.5,0.1-2.6,0.3-3.3,0.4l-1.7-10.7c0.7-0.1,1.7-0.2,3-0.4c3.2-0.5,4.7-1.7,4.5-3.5c-0.1-0.7-0.5-1.7-1.1-2.8l-17.7-33.3l14.8-2.4
	l10.3,22.8l2.7-24.8L239.7,102.4 M136.7,103.3c4.7,0,8.2,1.9,10.6,5.7c1.4,2.3,2.5,5.3,3,8.8l3.5,23.2l-14.8,2.4l-3.2-20.5
	c-0.7-4.3-2.4-6.4-5.2-6.4c-0.1,0-0.2,0-0.3,0c-1.8,0-3.2,0.5-4.1,1.5c-1,1-1.5,2.5-1.5,4.5c0,0.9,0.1,1.9,0.2,3l3,19.8l-14.8,2.4
	l-6-38.7l13.5-2.2l0.9,6.1c1.9-3.7,4.1-6.2,6.6-7.7c1.4-0.7,3.1-1.3,4.8-1.6C134.5,103.4,135.6,103.3,136.7,103.3 M162,103.5
	l33.7,4.3l-1.2,10.7L176,133.3l17.1,2.2l-1.3,11.3l-36-4.6l1.2-10.3l18.9-15.1l-15.4-2L162,103.5 M36.7,79c-8.9,0-16.7,2.7-23,8.2
	c-7.5,6.4-12,15.4-13.3,26.7v0C0.1,116,0,118,0,120c0,8.9,2.5,16.7,7.4,23.1c0,0,0,0,0,0c3.4,4.4,7.7,7.7,12.9,10
	c4.8,2.2,10,3.3,15.3,3.3c2.6,0,5.2-0.3,7.6-0.9c1.2,0.7,2.5,1.2,3.9,1.4l10.9,1.4c0.4,0.1,0.9,0.1,1.3,0.1c2.3,0,4.5-0.8,6.3-2.2
	c2.2-1.7,3.6-4.2,3.9-7l3.5-29.7c0.2-1.4,0-2.8-0.3-4.1c0.3-1,0.4-2,0.4-3.1c-0.1-4.5-0.9-8.7-2.5-12.5c-1.6-3.9-4-7.5-7.1-10.5
	C56.7,82.5,47.7,79,36.7,79z M239.7,91.9c-0.1,0-0.2,0-0.3,0c-0.5,0-1,0.1-1.5,0.2l-14.1,2.3c-2.4,0.4-4.5,1.6-6.1,3.4
	c-1.6-1-3.4-1.5-5.3-1.5c-0.6,0-1.1,0-1.7,0.1l-10.9,1.8c-0.9-0.4-1.9-0.7-2.9-0.8l-33.7-4.3c-0.4-0.1-0.9-0.1-1.3-0.1
	c-2.3,0-4.5,0.8-6.3,2.2c-1.3,1-2.4,2.4-3,3.9c-4.1-4.1-9.6-6.3-15.9-6.3c-1.6,0-3.4,0.2-5.1,0.4c-2.8,0.5-5.5,1.3-7.8,2.6
	c-0.1,0.1-0.2,0.1-0.3,0.2c-0.2,0.1-0.5,0.3-0.7,0.4c-0.6-0.1-1.2-0.2-1.8-0.2c-0.6,0-1.1,0-1.7,0.1l-13.5,2.2
	c-5.6,0.9-9.4,6.3-8.6,11.9l6,38.7c0.4,2.7,1.9,5.2,4.1,6.8c1.8,1.3,3.9,2,6.1,2c0.5,0,1.1,0,1.6-0.1l14.8-2.4
	c2-0.3,3.8-1.2,5.2-2.5c1.3,0.6,2.7,0.9,4.2,0.9c0.6,0,1.1,0,1.7-0.1l11.4-1.9c0.8,0.3,1.6,0.5,2.4,0.6l36,4.6
	c0.4,0.1,0.9,0.1,1.3,0.1c2.3,0,4.5-0.8,6.4-2.2c0.3-0.3,0.6-0.5,0.9-0.8l1.1,7.3c0.4,2.8,2,5.4,4.3,7c1.7,1.2,3.8,1.9,5.9,1.9
	c0.7,0,1.4-0.1,2.1-0.2c0,0,0.5-0.1,2-0.2h0c1.6-0.1,2.8-0.3,3.8-0.4c0.1,0,0.2,0,0.3-0.1c9-1.5,15.1-4.6,18.7-9.4
	c2-2.7,3.5-6,4.5-10.1c0.3-1.1,0.7-2.9,1.5-7.9l6.4-37.8c0.1-0.6,0.2-1.3,0.2-2c0-5.7-4.5-10.3-10-10.5
	C239.9,91.9,239.8,91.9,239.7,91.9L239.7,91.9z"/>
<linearGradient id="SVGID_00000140003543974655201860000010887193167406295196_" gradientUnits="userSpaceOnUse" x1="116.991" y1="145.9278" x2="54.0999" y2="101.0012" gradientTransform="matrix(1 0 0 -1 0 252)">
	<stop  offset="9.895830e-02" style="stop-color:#8F73DB"/>
	<stop  offset="0.3854" style="stop-color:#6483F9"/>
	<stop  offset="0.6875" style="stop-color:#4EC8FC"/>
	<stop  offset="0.901" style="stop-color:#B8E7DD"/>
</linearGradient>
<path style="fill-rule:evenodd;clip-rule:evenodd;fill:url(#SVGID_00000140003543974655201860000010887193167406295196_);" d="
	M106.3,112.1l1.8-9.7l3.6-1.2c-0.2-0.9-0.7-1.8-1.4-2.5c-1-1-2.3-1.5-3.7-1.5c-0.3,0-0.6,0-0.8,0.1l-14.3,2.4
	c-2.3,0.4-4,2.3-4.3,4.6l-0.7,6l-2.5-5.6c-0.9-1.9-2.7-3.1-4.7-3.1c-0.3,0-0.6,0-0.8,0.1L64.2,104v15.6l12.9,24.2l-2,0.3
	c-1.4,0.2-2.6,0.9-3.4,2.1c-0.8,1.1-1.2,2.5-0.9,3.9l1.7,10.7c0.2,1.4,1,2.7,2.2,3.5c0.9,0.6,1.9,0.9,2.9,0.9c0.3,0,0.7,0,1-0.1
	c0.3-0.1,1-0.2,2.7-0.3c1.5-0.1,2.7-0.3,3.5-0.4c0.1,0,0.1,0,0.2,0c7.6-1.3,12.7-3.7,15.4-7.4c1.6-2.1,2.8-4.8,3.6-8.3
	c0.2-0.8,0.6-2.5,1.4-7.4l2.3-13.7L106.3,112.1L106.3,112.1z"/>
<path class="st1" d="M107.4,109l1.9-1.7l-1.2-3.1l8.7-3.7c-0.9-4.7-4.9-8.4-9.8-8.5c-0.1,0-0.2,0-0.3,0c-0.1,0-0.2,0-0.3,0h0
	c-0.5,0-1,0.1-1.5,0.2l-14.1,2.3c-2.4,0.4-4.5,1.6-6.1,3.4c-1.6-1-3.4-1.5-5.3-1.5c-0.6,0-1.1,0-1.7,0.1l-13.5,2.2v31.9l5.4,10.2
	c-0.8,0.6-1.5,1.3-2.1,2.2c-1.6,2.2-2.3,5.1-1.9,7.8l1.7,10.7c0.4,2.8,2,5.3,4.3,7c1.7,1.2,3.8,1.9,5.9,1.9c0.7,0,1.4-0.1,2.1-0.2
	c0,0,0.5-0.1,2-0.2h0c1.6-0.1,2.8-0.3,3.8-0.4c0.1,0,0.2,0,0.3,0c9-1.5,15.1-4.6,18.7-9.4c2-2.7,3.5-6,4.5-10.1
	c0.2-0.9,0.6-2.5,1.3-6.5L107.4,109L107.4,109z M100.3,140.4c-0.6,3.6-1,5.9-1.3,7c-0.7,2.8-1.6,4.9-2.7,6.4
	c-1.9,2.6-6,4.4-12.2,5.4c-0.7,0.1-1.8,0.2-3.3,0.3c-1.5,0.1-2.6,0.3-3.3,0.4l-1.7-10.7c0.7-0.1,1.7-0.2,3-0.4
	c3.2-0.5,4.7-1.7,4.5-3.5c-0.1-0.7-0.5-1.7-1.1-2.8l-17.7-33.3l14.8-2.4l10.3,22.8l2.7-24.8l14.3-2.4L100.3,140.4L100.3,140.4z"/>
</svg>
