<?xml version="1.0" encoding="utf-8"?>
<!-- Generator: Adobe Illustrator 26.2.1, SVG Export Plug-In . SVG Version: 6.00 Build 0)  -->
<svg version="1.1" id="Layer_1" xmlns="http://www.w3.org/2000/svg" xmlns:xlink="http://www.w3.org/1999/xlink" x="0px" y="0px"
	 viewBox="0 0 250 250" style="enable-background:new 0 0 250 250;" xml:space="preserve">
<style type="text/css">
	.st0{clip-path:url(#SVGID_00000046313793470670357670000007519572180904887720_);}
	.st1{fill:url(#SVGID_00000015341130426442289380000013675104284898881980_);}
	.st2{fill:url(#SVGID_00000074424626987016285420000012844203821947723146_);}
	.st3{fill:url(#SVGID_00000080927355634684540190000008500521226162418855_);}
	.st4{fill:url(#SVGID_00000130614668221394081830000005880865613124587913_);}
	.st5{fill:url(#SVGID_00000022559491483509035110000005207811829204376194_);}
	.st6{fill:url(#SVGID_00000168839293547806519000000009996826545872878232_);}
	.st7{fill:url(#SVGID_00000044148415147050717700000010949338197698989221_);}
	.st8{fill:url(#SVGID_00000141452292236078292500000011906412176721109417_);}
	.st9{fill:url(#SVGID_00000085932701732159168050000008974161255870589591_);}
</style>
<g>
	<defs>
		<rect id="SVGID_1_" width="250" height="250"/>
	</defs>
	<clipPath id="SVGID_00000093860526910371591740000013459074902159179398_">
		<use xlink:href="#SVGID_1_"  style="overflow:visible;"/>
	</clipPath>
	<g style="clip-path:url(#SVGID_00000093860526910371591740000013459074902159179398_);">
		
			<linearGradient id="SVGID_00000096750239083380888540000010014527290857543822_" gradientUnits="userSpaceOnUse" x1="280.6373" y1="166.924" x2="199.0303" y2="-17.886" gradientTransform="matrix(1 0 0 -1 0 252)">
			<stop  offset="9.895830e-02" style="stop-color:#8F73DB"/>
			<stop  offset="0.3854" style="stop-color:#6483F9"/>
			<stop  offset="0.6875" style="stop-color:#4EC8FC"/>
			<stop  offset="0.901" style="stop-color:#B8E7DD"/>
		</linearGradient>
		<path style="fill:url(#SVGID_00000096750239083380888540000010014527290857543822_);" d="M241.6,181.8c-1.7,0-3.3-0.5-4.7-1.4
			c-1.4-0.9-2.5-2.2-3.1-3.8c-0.6-1.5-0.8-3.2-0.5-4.8c0.3-1.6,1.1-3.1,2.3-4.3c1.2-1.2,2.7-2,4.3-2.3s3.3-0.2,4.8,0.5
			c1.5,0.6,2.8,1.7,3.8,3.1c0.9,1.4,1.4,3,1.4,4.7c0,1.1-0.2,2.2-0.6,3.2c-0.4,1-1,1.9-1.8,2.7c-0.8,0.8-1.7,1.4-2.7,1.8
			C243.8,181.6,242.7,181.8,241.6,181.8z M241.6,165.8c-1.5,0-3,0.4-4.3,1.3c-1.3,0.8-2.2,2-2.8,3.4c-0.6,1.4-0.7,2.9-0.4,4.4
			c0.3,1.5,1,2.9,2.1,3.9c1.1,1.1,2.4,1.8,3.9,2.1c1.5,0.3,3,0.1,4.4-0.4c1.4-0.6,2.6-1.6,3.4-2.8c0.8-1.3,1.3-2.7,1.3-4.3
			c0-2-0.9-3.9-2.3-5.4C245.6,166.6,243.6,165.8,241.6,165.8z"/>
		
			<linearGradient id="SVGID_00000073696491818369822300000015945788383770057375_" gradientUnits="userSpaceOnUse" x1="279.7037" y1="167.3362" x2="198.0967" y2="-17.4738" gradientTransform="matrix(1 0 0 -1 0 252)">
			<stop  offset="9.895830e-02" style="stop-color:#8F73DB"/>
			<stop  offset="0.3854" style="stop-color:#6483F9"/>
			<stop  offset="0.6875" style="stop-color:#4EC8FC"/>
			<stop  offset="0.901" style="stop-color:#B8E7DD"/>
		</linearGradient>
		<path style="fill:url(#SVGID_00000073696491818369822300000015945788383770057375_);" d="M237.2,177.5c0-1.1,0.3-2.1,1-2.9
			c0.6-0.8,1.6-1.4,2.6-1.7c0.7-0.4,0.9-0.5,0.9-0.9c0-0.4-0.4-0.7-1.2-0.7c-0.4,0-0.8,0.1-1.2,0.2c-0.4,0.2-0.7,0.4-1,0.7l-1.1-1.2
			c0.4-0.4,0.9-0.7,1.5-1c0.6-0.2,1.1-0.3,1.7-0.3c1.8,0,2.9,0.7,2.9,2.3s-0.7,1.8-2,2.5c-1.2,0.7-2.1,0.9-2.1,1.4h4.1v1.4
			L237.2,177.5z"/>
		
			<linearGradient id="SVGID_00000126299504853267960960000011725355215367554473_" gradientUnits="userSpaceOnUse" x1="283.5864" y1="165.6217" x2="201.9794" y2="-19.1883" gradientTransform="matrix(1 0 0 -1 0 252)">
			<stop  offset="9.895830e-02" style="stop-color:#8F73DB"/>
			<stop  offset="0.3854" style="stop-color:#6483F9"/>
			<stop  offset="0.6875" style="stop-color:#4EC8FC"/>
			<stop  offset="0.901" style="stop-color:#B8E7DD"/>
		</linearGradient>
		<path style="fill:url(#SVGID_00000126299504853267960960000011725355215367554473_);" d="M244.8,177.5v-5.7h-1.4v-1.1
			c0.4,0.1,0.7,0,1-0.2s0.5-0.5,0.6-0.8h1.2v7.8H244.8z"/>
		
			<linearGradient id="SVGID_00000016762584865068753410000010367593328988627618_" gradientUnits="userSpaceOnUse" x1="154.949" y1="222.4245" x2="73.342" y2="37.6145" gradientTransform="matrix(1 0 0 -1 0 252)">
			<stop  offset="9.895830e-02" style="stop-color:#8F73DB"/>
			<stop  offset="0.3854" style="stop-color:#6483F9"/>
			<stop  offset="0.6875" style="stop-color:#4EC8FC"/>
			<stop  offset="0.901" style="stop-color:#B8E7DD"/>
		</linearGradient>
		<path style="fill:url(#SVGID_00000016762584865068753410000010367593328988627618_);" d="M30.9,69v21H13.7V69h-12v52.8h12v-21.2
			h17v21.2h12.1V69H30.9z M50,69v52.8h30.2v-10.5H61.9v-10.7h17.5V90H61.9V79.5h18.2V69H50z M117.1,69L106,85.9L95.1,69H80.7
			l19.5,29.1v23.7h12V98.1L131.5,69H117.1z M132.8,69v52.8h30.2v-10.5h-18V69H132.8z M168.3,69v52.8h30.2v-10.5h-18.2v-10.7h17.5V90
			h-17.5V79.5h18.2V69H168.3z M237.9,69v32.8h-0.2L216.8,69h-12.1v52.8h12.1V89h0.2l21.1,32.8h12V69H237.9z"/>
		
			<linearGradient id="SVGID_00000166656634551008914540000015907967924839534011_" gradientUnits="userSpaceOnUse" x1="258.1611" y1="176.8488" x2="176.5541" y2="-7.9612" gradientTransform="matrix(1 0 0 -1 0 252)">
			<stop  offset="9.895830e-02" style="stop-color:#8F73DB"/>
			<stop  offset="0.3854" style="stop-color:#6483F9"/>
			<stop  offset="0.6875" style="stop-color:#4EC8FC"/>
			<stop  offset="0.901" style="stop-color:#B8E7DD"/>
		</linearGradient>
		<path style="fill:url(#SVGID_00000166656634551008914540000015907967924839534011_);" d="M231.4,126.6h-19.8v54.2h12.3v-20h7.5
			c10.5,0,18.6-6.2,18.6-17.5C250,132.1,242,126.6,231.4,126.6z M227.5,150.8h-3.6v-14.4h3.6c4.8,0,9.5,1.6,9.5,7.3
			C237,149.4,232.3,150.8,227.5,150.8z"/>
		
			<linearGradient id="SVGID_00000077323318820644558870000013109641216721682058_" gradientUnits="userSpaceOnUse" x1="220.8583" y1="193.3207" x2="139.2513" y2="8.5107" gradientTransform="matrix(1 0 0 -1 0 252)">
			<stop  offset="9.895830e-02" style="stop-color:#8F73DB"/>
			<stop  offset="0.3854" style="stop-color:#6483F9"/>
			<stop  offset="0.6875" style="stop-color:#4EC8FC"/>
			<stop  offset="0.901" style="stop-color:#B8E7DD"/>
		</linearGradient>
		<path style="fill:url(#SVGID_00000077323318820644558870000013109641216721682058_);" d="M190.6,157.9c0,9.1-2.9,11.8-8.9,11.8
			s-8.7-2.7-8.7-11.8v-31.4h-12.3v35.1c0,13.4,7.3,20.3,21.2,20.3c13.9,0,21.2-7,21.2-20.3v-35.1h-12.3v31.4H190.6z"/>
		
			<linearGradient id="SVGID_00000142871848942306345160000000428548810008536507_" gradientUnits="userSpaceOnUse" x1="177.9699" y1="212.2591" x2="96.3628" y2="27.4491" gradientTransform="matrix(1 0 0 -1 0 252)">
			<stop  offset="9.895830e-02" style="stop-color:#8F73DB"/>
			<stop  offset="0.3854" style="stop-color:#6483F9"/>
			<stop  offset="0.6875" style="stop-color:#4EC8FC"/>
			<stop  offset="0.901" style="stop-color:#B8E7DD"/>
		</linearGradient>
		<path style="fill:url(#SVGID_00000142871848942306345160000000428548810008536507_);" d="M127.8,125.7c-7.3,0.1-14.3,3.1-19.5,8.3
			c-5.1,5.2-8,12.2-8,19.5v0.2c0,15.9,11.2,28.2,27.3,28.2c15.5,0,27.3-12.3,27.3-28.2c0.1-3.6-0.5-7.2-1.8-10.5
			c-1.3-3.4-3.2-6.4-5.7-9c-2.5-2.6-5.5-4.7-8.8-6.1c-3.3-1.4-6.9-2.2-10.5-2.3H127.8z M127.8,169.9c-10.2,0-14.1-8-14.1-16.2
			c0-8.2,4.5-16.2,14.1-16.2s13.9,8,13.9,16.2C141.7,161.9,137.6,169.9,127.8,169.9z"/>
		
			<linearGradient id="SVGID_00000165913140463960484910000003453073402562681497_" gradientUnits="userSpaceOnUse" x1="138.3984" y1="229.7328" x2="56.7913" y2="44.9228" gradientTransform="matrix(1 0 0 -1 0 252)">
			<stop  offset="9.895830e-02" style="stop-color:#8F73DB"/>
			<stop  offset="0.3854" style="stop-color:#6483F9"/>
			<stop  offset="0.6875" style="stop-color:#4EC8FC"/>
			<stop  offset="0.901" style="stop-color:#B8E7DD"/>
		</linearGradient>
		<path style="fill:url(#SVGID_00000165913140463960484910000003453073402562681497_);" d="M95.1,142.8c0-10.7-7.7-16-17.7-16H58
			v54.2h12.3v-21.4l16.6,21.4h15.7L84,158.5c3.4-1,6.3-3,8.3-5.9C94.4,149.7,95.3,146.3,95.1,142.8z M71.9,150.6h-1.4v-14.3h1.4
			c4.6,0,10.3,0.4,10.3,7.1C82.3,150.3,76.6,150.6,71.9,150.6z"/>
		
			<linearGradient id="SVGID_00000103242541839994389490000001075616593430303915_" gradientUnits="userSpaceOnUse" x1="93.3933" y1="249.6058" x2="11.7862" y2="64.7958" gradientTransform="matrix(1 0 0 -1 0 252)">
			<stop  offset="9.895830e-02" style="stop-color:#8F73DB"/>
			<stop  offset="0.3854" style="stop-color:#6483F9"/>
			<stop  offset="0.6875" style="stop-color:#4EC8FC"/>
			<stop  offset="0.901" style="stop-color:#B8E7DD"/>
		</linearGradient>
		<path style="fill:url(#SVGID_00000103242541839994389490000001075616593430303915_);" d="M26.4,160.1h12.5
			c0,6.6-5.9,10.5-11.8,10.5c-7.7,0-13.9-7.5-13.9-16.8c0-9.3,6.4-17.1,13.9-17.1c2.5,0,4.9,0.7,7,1.9c2.1,1.3,3.9,3.1,5.1,5.2
			l8-8.9c-2.5-3-5.7-5.5-9.4-7.1c-3.6-1.6-7.6-2.4-11.5-2.2C11.2,125.7,0,138.2,0,153.8C0,169.5,11.8,182,26.4,182
			c10.7,0,22.1-5.9,25.2-19.6v-11.8H26.4V160.1z"/>
	</g>
</g>
</svg>
