<svg width="248" height="82" viewBox="0 0 248 82" fill="none" xmlns="http://www.w3.org/2000/svg">
<path d="M39.9199 81.1346C61.9638 81.1346 79.8339 62.972 79.8339 40.5673C79.8339 18.1626 61.9638 0 39.9199 0C17.876 0 0.00585938 18.1626 0.00585938 40.5673C0.00585938 62.972 17.876 81.1346 39.9199 81.1346Z" fill="white"/>
<path fill-rule="evenodd" clip-rule="evenodd" d="M65.3323 34.5551L65.7977 35.9334L66.2125 37.283L66.5993 38.6787L66.9373 40.0509L68 39.046L69.0121 38.0166L69.9727 36.9558L70.9463 35.9334L71.8196 34.8552L72.6928 33.777L73.4508 32.7302L74.1494 31.618L74.7694 30.5258L75.289 29.3778L75.7317 28.2516L76.0461 27.1176L76.2207 25.9399L76.3194 24.7823L76.2408 23.5907L76.0347 22.3921L75.4068 21.1848L74.7519 20.0272L74.0533 18.8801L73.3198 17.746L72.5662 16.6565L70.907 14.6039L70.0399 13.5884L69.8941 14.4233L69.6985 15.2302L69.4252 16.0589L69.1518 16.8876L68.7903 17.6989L68.3886 18.5215L67.952 19.3537L67.4621 20.1589L66.8954 20.985L66.3173 21.7701L65.6999 22.5683L65.0441 23.377L64.3001 24.1682L63.5448 24.921L62.751 25.6834L61.9179 26.4581L62.7038 28.0824L63.4897 29.7067L64.2067 31.3912L64.8572 33.1358L64.9935 33.4752L65.0895 33.8241L65.2362 34.2019L65.3323 34.5551ZM47.8876 51.5902L49.2175 51.0973L50.5754 50.5547L51.8451 49.9947L53.1419 49.3841L54.4002 48.7856L55.6227 48.1977L56.8313 47.5713L57.9517 46.9276L59.072 46.2829L60.1033 45.6217L61.0578 44.9814L61.9616 44.314L62.7475 43.6781L63.4959 43.0526L63.0793 41.2434L62.6514 39.3949L62.1179 37.6171L61.5346 35.8113L61.4472 35.5008L61.311 35.1614L61.2237 34.8509L61.0979 34.5499L60.5338 33.1158L59.9697 31.6825L59.3384 30.3077L58.7175 28.973L57.8023 29.602L56.8872 30.2318L55.9266 30.8329L54.9233 31.4435L53.9086 32.0166L52.8554 32.6002L51.8023 33.1838L50.6889 33.7003L49.586 34.2559L48.4334 34.7837L47.2702 35.2722L46.107 35.766L44.8548 36.237L43.6419 36.6976L42.3792 37.1338L41.106 37.5272L43.0507 44.5574L45.2452 52.487L46.5856 52.0334L47.8876 51.5902ZM24.283 61.5L24.9039 62.8338L25.5632 64.1589L26.0548 65.0312L26.5465 65.9036L27.0381 66.7759L27.6075 67.623L28.2187 68.4595L28.8658 69.2848L29.5513 70.1004L30.277 70.9038L30.7869 70.93L31.3353 70.9466L31.8846 70.9623L32.3946 70.9884L32.9325 70.9658L33.4817 70.9815L34.0197 70.9588L34.5681 70.9745L35.1068 70.9509L35.6448 70.9283L36.1827 70.9047L36.7599 70.8716L37.2978 70.848L37.8645 70.7756L38.4025 70.752L38.9692 70.6796L39.418 70.6386L39.907 70.588L40.3437 70.5087L40.8327 70.4572L41.2693 70.3778L41.7574 70.3272L42.1941 70.2478L42.6717 70.1606L43.1607 70.1091L43.6384 70.0219L44.075 69.9425L44.5527 69.8553L45.0199 69.727L45.4975 69.6398L45.9752 69.5526L46.4424 69.4243L44.6033 62.7771L43.0507 57.1104L42.4569 57.2325L41.912 57.3834L41.3173 57.5056L40.7619 57.6163L40.169 57.7393L39.6136 57.851L39.0478 57.9234L38.4915 58.0351L37.8872 58.1179L37.331 58.2296L36.7651 58.3029L36.1984 58.3753L35.6282 58.4468L35.0614 58.5192L34.4842 58.5524L33.9184 58.6248L33.2198 58.6911L32.5264 58.7574L31.8217 58.7844L31.1284 58.8507L30.4237 58.8786L29.7583 58.8943L29.0431 58.883L28.3768 58.8987L27.7114 58.9153L27.0355 58.8934L26.3587 58.8708L25.682 58.8481L25.0061 58.8254L24.3573 58.7539L23.6814 58.7312L23.0334 58.6588L23.636 60.0825L24.283 61.5ZM18.6533 42.9671L18.8847 44.4091L19.1274 45.8921L19.1955 46.2907L19.2925 46.6397L19.3615 47.0392L19.4296 47.4387L19.8575 49.2872L20.3526 51.0755L20.8966 52.8917L21.4695 54.6582L21.9122 54.7455L22.3942 54.8222L22.9182 54.8877L23.4002 54.9636L23.9486 54.9801L24.4725 55.0456L25.0209 55.0613L25.6191 55.1049L26.2077 55.1101L26.7954 55.1153L27.383 55.1197L28.01 55.1145L28.637 55.1092L29.3024 55.0927L29.9285 55.0874L30.5835 55.0316L31.2821 54.9653L31.9868 54.9383L32.7194 54.8615L33.4128 54.7961L34.1454 54.7193L34.8781 54.6417L35.6002 54.5265L36.3329 54.4497L37.055 54.3337L37.7772 54.2186L38.4985 54.1026L39.2102 53.9481L39.9324 53.833L40.6432 53.6777L41.3156 53.5338L42.0264 53.3794L39.8643 45.5658L37.8855 38.4126L37.0577 38.5993L36.2298 38.786L35.402 38.9727L34.5628 39.121L33.7533 39.2553L32.9534 39.3923L32.1151 39.5406L31.3537 39.6671L30.5433 39.7648L29.7329 39.8633L28.961 39.9506L28.189 40.0378L27.4197 40.1277L26.6338 40.1765L25.8479 40.2245L25.1039 40.2629H24.6437L24.2333 40.2925H23.7731L23.3522 40.2829H22.8911L22.4702 40.2733L22.0484 40.2646L21.6275 40.255L21.2057 40.2463L20.784 40.2367L20.3631 40.228L19.9413 40.2184L19.5588 40.1983L19.1379 40.1896L18.7013 40.1416L18.3284 40.1277L18.4716 41.5522L18.6533 42.9671ZM40.073 33.7892L41.2955 33.3679L42.4805 32.9562L43.6541 32.5069L44.7893 32.0707L45.9525 31.5822L47.0772 31.1042L48.1513 30.5982L49.2263 30.0923L50.2907 29.547L51.3046 28.9748L52.28 28.4121L53.2554 27.8503L54.181 27.2598L55.1066 26.6692L55.9799 26.0507L56.8531 25.4322L56.4654 24.7867L56.0768 24.1403L55.6996 23.5296L55.2726 22.8946L54.8953 22.2839L54.4788 21.6881L54.0736 21.1298L53.6571 20.534L52.9279 19.564L52.1595 18.6044L51.4024 17.6832L50.6557 16.8013L49.8698 15.9289L49.0944 15.0967L48.3303 14.3038L47.5278 13.5187L46.9305 13.9339L46.3192 14.3116L45.6835 14.7382L45.0373 15.1255L44.351 15.5242L43.6524 15.8836L42.9538 16.243L42.2552 16.6033L41.5199 16.9731L40.7742 17.3046L40.0284 17.6361L39.232 17.9397L38.4461 18.2816L37.6392 18.5433L36.8437 18.846L35.9984 19.1217L38.0741 26.6238L40.073 33.7892ZM32.7875 20.0254L32.3099 20.1127L31.8435 20.2418L31.3659 20.329L30.9293 20.4075L30.4516 20.4948L29.9739 20.582L29.5242 20.6221L29.0466 20.7094L28.6099 20.7887L28.1602 20.8297L27.7105 20.8699L27.2328 20.9571L26.7831 20.9981L26.3727 21.0278L25.923 21.0679L25.4733 21.108L24.7686 21.1351L24.0752 21.2014L23.36 21.19L22.6946 21.2066L21.9794 21.1944L21.3027 21.1717L20.6652 21.1394L19.9893 21.1167L19.7195 22.1112L19.4575 23.1449L19.2488 24.2074L19.0366 25.2865L18.827 26.3482L18.669 27.4386L18.5197 28.5674L18.4105 29.6849L18.3319 30.4604L18.2638 31.2743L18.2236 32.0384L18.1948 32.841L18.166 33.6444L18.1468 34.4862L18.118 35.2888L18.1389 36.1201L18.6489 36.1472L19.1309 36.2231L19.64 36.2501L20.15 36.2763L20.66 36.3033L21.1699 36.3295L21.7192 36.3452L22.2685 36.3609L22.7785 36.3879L23.3164 36.3644L23.8648 36.3801L24.4035 36.3574L24.9415 36.3339L25.5178 36.3007L26.0566 36.2771L26.6338 36.244L27.2451 36.1995L27.8616 36.1541L28.5052 36.0599L29.1164 36.0163L29.7216 35.9291L30.366 35.8349L31.021 35.7799L31.6541 35.6464L32.3099 35.5557L32.9534 35.4615L33.5874 35.3289L34.2319 35.2347L34.865 35.1012L35.5374 34.9573L36.1705 34.8247L36.8428 34.6808L34.7995 27.2947L32.7875 20.0254ZM64.9227 53.9595L64.8817 53.0496L64.79 52.1127L64.6983 51.1758L64.5961 50.1997L64.4651 49.2733L64.3577 48.2971L64.2058 47.2931L63.2627 47.9717L62.2803 48.6618L61.249 49.323L60.2064 49.9459L59.1637 50.5687L58.1211 51.1907L57.0295 51.7856L55.8873 52.3518L54.746 52.9179L53.5933 53.4457L52.4302 53.9342L51.2277 54.4332L50.0261 54.933L48.8036 55.3544L47.5523 55.8298L46.2817 56.2188L48.3906 63.8379L49.6803 68.5023L50.6819 68.1847L51.7106 67.8166L52.7009 67.459L53.6518 67.11L54.6316 66.714L55.5616 66.29L56.53 65.8539L57.46 65.429L58.3403 64.9771L59.2589 64.5139L60.1391 64.0629L61.0124 63.5709L61.8708 63.0414L62.7012 62.5608L63.5107 62.0025L64.3298 61.4834L64.5149 60.6373L64.6494 59.7649L64.7568 58.9406L64.8249 58.1267L64.893 57.3128L64.9219 56.5093L64.9515 55.7068L64.9411 54.9147L64.9227 53.9595ZM51.0758 10.5824L50.6173 11.0438L51.1413 11.5672L51.6137 12.0645L52.1376 12.5879L52.6214 13.1244L53.1157 13.6992L53.5986 14.2349L54.0928 14.8097L54.5871 15.3846L55.2953 16.277L56.0026 17.1694L56.6715 18.0731L57.3404 18.976L58.0303 19.9574L58.6712 20.91L59.3226 21.9019L59.9339 22.9042L60.7958 22.0807L61.607 21.2293L62.3406 20.3988L63.0243 19.5404L63.6303 18.7039L64.1875 17.8385L64.7053 16.9845L65.1052 16.1627L65.4545 15.3122L65.7663 14.473L66.0012 13.6547L66.1077 12.8304L66.1758 12.0174L66.1942 11.1747L66.1068 10.4035L65.9322 9.61843L65.3428 9.15347L64.7036 8.6606L64.0757 8.20611L63.4365 7.71323L62.7693 7.27009L62.1406 6.8156L61.435 6.37943L60.7775 5.97902L60.1208 5.57513L59.4222 5.18083L58.7769 4.81532L58.0923 4.46028L57.4592 4.13402L56.7955 3.85662L56.1842 3.608L55.573 3.35851L55.4577 3.85051L55.304 4.35298L55.1005 4.8284L54.9076 5.34134L54.6648 5.82723L54.422 6.31225L54.1408 6.80862L53.8483 7.26572L53.5278 7.77255L53.1585 8.25147L52.7882 8.73038L52.4075 9.16655L51.9979 9.65594L51.5395 10.1174L51.0758 10.5824ZM38.3797 0.573128L38.4723 0.756319L38.5265 0.950851L38.5631 1.23349L38.5885 1.47774L38.5361 1.73945L38.4837 2.00115L38.86 2.14857L39.246 2.33438L39.6721 2.50885L40.0581 2.69553L40.4947 2.90926L40.9418 3.16223L41.3889 3.41521L41.836 3.66906L42.5416 4.10523L43.2585 4.5763L43.9868 5.08662L44.7247 5.63619L45.4844 6.2634L46.2939 6.91853L47.037 7.63385L47.8282 8.37796L48.6901 7.55447L49.4236 6.724L50.0794 5.91534L50.6479 5.09447L51.0985 4.30064L51.4321 3.53821L51.7159 2.74874L51.8442 2.00202L50.8548 1.60598L49.9266 1.27623L48.9189 0.968298L47.9723 0.727532L47.037 0.523404L46.1123 0.362894L45.198 0.238149L44.2846 0.114277L43.4314 0.0567021L42.5774 0L41.7452 0.0200638L40.9549 0.0305319H40.2013L39.4687 0.106426L38.7718 0.174468L38.1169 0.227681L38.2479 0.402149L38.3797 0.573128ZM33.3674 6.22502L33.1831 6.31749L32.9491 6.38204L32.7657 6.47451L32.5317 6.53906L33.3062 9.3384L34.9732 15.3628L35.6631 15.1307L36.353 14.8987L37.0428 14.6667L37.7239 14.3936L38.364 14.1319L39.0041 13.8702L39.5944 13.5815L40.224 13.2823L40.8248 13.0328L41.4046 12.7056L41.9557 12.4274L42.5355 12.1002L43.0481 11.8333L43.5886 11.5166L44.0794 11.1677L44.5815 10.8615L44.2174 10.4681L43.8052 10.038L43.4035 9.64634L43.0018 9.25553L42.5652 8.87519L42.1286 8.49398L41.6989 8.15289L41.23 7.8214L40.6021 7.36779L39.935 6.92377L39.2783 6.51987L38.6146 6.11511L37.9693 5.7496L37.3345 5.42247L36.6603 5.10668L35.9967 4.82928L35.7854 4.97234L35.5732 5.11453L35.3505 5.21834L35.1383 5.36053L34.9156 5.46347L34.665 5.61613L34.403 5.7304L34.1524 5.88394L33.969 5.97553L33.7743 6.02874L33.5909 6.12121L33.3674 6.22502ZM26.4932 4.69232L26.908 4.8284L27.4319 4.89383L28.0589 4.8886L28.7139 4.83277L29.4745 4.70628L30.2604 4.53181L30.5721 4.44457L30.8839 4.35734L31.1458 4.24306L31.4078 4.12879L31.6803 4.05377L31.9422 3.93949L32.1937 3.78683L32.4155 3.68302L32.7343 3.47017L33.0128 3.26691L33.253 3.075L33.4433 2.85517L33.6057 2.68506L33.68 2.49751L33.7035 2.28117V2.11543L33.5499 1.86506L33.2521 1.69583L32.8338 1.56062L32.302 1.45681L31.7143 1.45157L31.021 1.51787L30.2988 1.63389L29.5129 1.80836L28.7453 2.06221L28.0275 2.34398L27.4372 2.63272L26.8966 2.94938L26.4941 3.3114L26.2085 3.64115L26.0391 3.93949V4.2326L26.1919 4.48383L26.4932 4.69232ZM21.6991 15.2215L21.4712 15.9115L21.3324 16.619L21.1926 17.3273L21.7803 17.3325L22.4187 17.3657L23.0448 17.3604L23.6997 17.3046L24.3651 17.288L25.0698 17.261L25.7684 17.1947L26.4618 17.1293L27.1167 17.0734L27.7219 16.9906L28.4047 16.8859L29.0492 16.7917L29.7321 16.6861L30.4044 16.5422L31.0768 16.3991L31.7492 16.2552L30.876 13.106L29.2954 7.39221L28.7785 7.49253L28.2895 7.544L27.8013 7.59547L27.3516 7.6356L26.853 7.64781H26.3928L25.971 7.63821L25.5344 7.59111L25.2034 8.05868L24.8332 8.5376L24.5127 9.04443L24.2045 9.59575L23.884 10.1026L23.5853 10.6879L23.2753 11.2331L22.9767 11.8185L22.699 12.4806L22.3829 13.154L22.155 13.844L21.8877 14.5419L21.6991 15.2215ZM11.5844 14.541L12.3005 15.0121L13.096 15.4622L13.9692 15.8914L14.9865 16.2404L16.0432 16.5762L17.2054 16.8379L17.3801 16.1191L17.5547 15.4003L17.7826 14.7103L17.9826 14.0691L18.221 13.4175L18.4708 12.8068L18.6812 12.204L18.9432 11.63L19.344 10.8083L19.7169 10.0354L20.1395 9.2913L20.5334 8.59343L20.9385 7.93743L21.3263 7.3704L21.714 6.80338L22.1235 6.314L21.9917 6.13953L21.8598 5.96506L21.7672 5.78187L21.7131 5.58734L21.6485 5.35443L21.6729 5.13808L21.6467 4.89383L21.7105 4.66789L21.3035 4.8633L20.8861 5.02032L20.4801 5.2166L20.0435 5.46172L19.5981 5.66847L19.1615 5.91447L18.6882 6.17094L18.2254 6.46579L17.7119 6.73272L17.2605 7.06683L16.7583 7.37302L16.2676 7.7176L15.7375 8.07351L15.2572 8.45647L14.777 8.8403L14.2687 9.27647L13.7605 9.71264L13.2628 10.1846L12.7755 10.6958L12.2786 11.1677L11.8018 11.7173L11.3652 12.2564L10.8998 12.8452L10.4789 13.4236L10.9731 13.9984L11.5844 14.541ZM2.80485 28.6808L3.21439 29.4049L3.69118 30.0678L4.24569 30.7099L4.86744 31.2908L5.52848 31.8622L6.26637 32.4118L7.07237 32.9003L7.95521 33.3679L8.87735 33.8241L9.82831 34.2315L10.8561 34.6171L11.9127 34.9529L13.0479 35.2678L14.2102 35.5296V34.6101L14.246 33.6802L14.2539 32.7991L14.3002 31.9076L14.3875 31.0056L14.4338 30.1141L14.5578 29.2007L14.6538 28.3371L14.7962 27.3357L14.8992 26.3447L15.0905 25.372L15.2319 24.3697L15.4336 23.4354L15.665 22.4514L15.8668 21.5171L16.1078 20.5715L15.438 20.4215L14.8075 20.2619L14.2155 20.0874L13.6129 19.8771L13.0209 19.7027L12.4568 19.4811L11.9328 19.2499L11.3975 18.9795L10.9111 18.737L10.4143 18.4552L9.91825 18.1743L9.4991 17.8716L9.06946 17.5297L8.65031 17.227L8.25997 16.878L7.91068 16.5151L7.51248 17.0429L7.11428 17.5716L6.68814 18.1499L6.3109 18.7606L5.90572 19.4166L5.53023 20.0638L5.13639 20.7617L4.78099 21.4456L4.38628 22.1435L4.04223 22.8658L3.6973 23.589L3.39166 24.3008L3.05808 25.0623L2.75245 25.7742L2.49659 26.5148L2.23025 27.2127L2.48437 27.9786L2.80485 28.6808ZM2.50445 47.4257L3.39603 48.2256L4.31555 48.9758L5.35208 49.6937L6.44451 50.3131L7.61465 50.9098L8.84242 51.4079L10.1077 51.8955L11.4517 52.3614L12.7737 52.7496L14.1447 53.1665L15.5419 53.5329L16.9697 53.8496L16.554 52.4992L16.2047 51.0895L15.8292 49.7295L15.5192 48.3076L15.3708 47.4701L15.1839 46.6432L15.0363 45.8057L14.8879 44.9683L14.7132 43.5926L14.5534 42.2562L14.4399 40.9128L14.329 39.6043L13.2165 39.3679L12.1424 39.1201L11.1076 38.8584L10.0597 38.5609L9.08169 38.2033L8.14208 37.8351L7.20423 37.4661L6.33099 37.0378L5.49792 36.6017L4.69192 36.1123L3.92958 35.6098L3.20217 35.0995L2.50358 34.5394L1.88183 33.9576L1.29938 33.3661L0.744873 32.7241L0.517831 34.0405L0.334451 35.349L0.151944 36.6575L0.0567606 37.9756L0.0122254 39.3269L0.00611268 40.6676L0 42.0084L0.0873239 43.3658L0.523944 44.4998L1.06885 45.5632L1.74648 46.5053L2.50445 47.4257ZM13.1065 66.215L14.5255 66.953L15.9715 67.6413L17.4473 68.2798L18.9895 68.8582L20.5613 69.3868L22.1497 69.8274L23.8045 70.2068L25.4488 70.5479L24.6804 69.5883L23.9617 68.6576L23.2928 67.7538L22.6527 66.8012L22.1008 65.8661L21.5489 64.93L21.0355 63.9836L20.5613 63.024L20.0225 61.8332L19.4732 60.6076L18.9624 59.368L18.4804 58.0778L17.2028 57.8458L15.9095 57.5745L14.6093 57.2639L13.3082 56.9542L12.0507 56.6323L10.8133 56.266L9.56896 55.8568L8.40231 55.425L7.2671 54.9452L6.2 54.4384L5.17918 53.9255L4.22735 53.3523L3.38992 52.7461L2.61972 52.0787L1.92637 51.3913L1.33955 50.6324L1.37186 50.7493L1.39369 50.8269L1.3867 50.9543L1.40854 51.0319L1.99535 53.0043L2.6887 54.9042L3.49296 56.7361L4.3662 58.5436L5.17744 59.6585L6.09434 60.7053L7.10031 61.7617L8.16217 62.7213L9.29738 63.6617L10.5147 64.5811L11.7887 65.4002L13.1065 66.215ZM34.4135 79.9552L33.8782 79.6848L33.342 79.4144L32.874 79.0829L32.3771 78.8011L31.9579 78.4993L31.5397 78.1966L30.9991 77.7604L30.4988 77.312L30.0473 76.8933L29.6246 76.4249L29.2125 75.9939L28.8283 75.5142L28.4938 75.0623L28.1594 74.6113L27.2066 74.4979L26.1972 74.3164L25.0952 74.1184L23.9434 73.8925L22.7811 73.6308L21.6083 73.3281L20.4137 72.946L19.2296 72.6031L18.063 72.1722L16.9356 71.7299L15.8475 71.2781L14.7997 70.8148L13.8662 70.3185L12.972 69.8134L12.1948 69.2743L11.5451 68.7422L12.793 70.0716L14.1351 71.2929L15.5437 72.4461L17.0098 73.506L18.5424 74.5057L20.1317 75.4051L21.6991 76.2277L23.3242 76.9509L24.9755 77.6243L26.5683 78.235L28.1768 78.7532L29.7757 79.2321L31.3144 79.6447L32.8303 79.9797L34.2467 80.2553L35.6151 80.5048L35.0038 80.2562L34.4135 79.9552ZM47.4772 73.1266L47.01 73.2557L46.5323 73.3429L46.0546 73.4301L45.549 73.5697L45.0714 73.6569L44.5544 73.7581L44.0768 73.8454L43.5528 73.9073L43.0359 74.0076L42.5198 74.1088L42.0316 74.1603L41.5077 74.2222L40.9907 74.3225L40.4668 74.3845L39.9786 74.4359L39.4547 74.4979L39.005 74.5389L38.5553 74.5781L38.1448 74.6078L37.6951 74.6488L37.2454 74.6889L36.8245 74.6802L36.4141 74.709H35.9539L35.5426 74.7386L35.1217 74.729L34.6999 74.7203L34.3279 74.7395L33.907 74.7299L33.5245 74.7099L33.1307 74.6514L32.7482 74.6305L33.2468 75.372L33.6669 76.1353L34.0773 76.8584L34.6205 77.4621L35.0999 77.832L35.6072 78.1521L36.1154 78.4723L36.6507 78.7418L37.214 78.9625L37.7886 79.2242L38.3422 79.4065L38.895 79.588L39.487 79.7624L40.0284 79.9046L40.61 80.0381L41.1802 80.1314L41.712 80.2353L42.2438 80.3399L42.7678 80.4054L43.2917 80.4708L44.1955 80.558L45.0382 80.5763L45.859 80.5162L46.645 80.4682L47.3671 80.353L48.0893 80.2361L48.7617 80.0931L49.3948 79.9596L48.3941 76.3446L47.4772 73.1266ZM62.2899 67.3203L61.5267 67.7407L60.7521 68.1219L59.9392 68.5136L59.1655 68.894L58.3132 69.297L57.4897 69.6503L56.6767 70.042L55.8035 70.3673L54.98 70.7163L54.1068 71.0417L53.272 71.3557L52.3987 71.6802L51.5534 71.955L50.7081 72.2307L51.6687 75.6904L52.6039 79.0724L53.2152 78.8622L53.8658 78.6406L54.5452 78.3693L55.2132 78.0596L55.9205 77.7386L56.606 77.34L57.3194 76.8916L58.0617 76.3935L58.3691 76.1414L58.6747 75.8936L59.01 75.5918L59.3349 75.2516L59.6597 74.9105L60.009 74.5206L60.3505 74.0914L60.6928 73.6622L61.0246 73.1937L61.394 72.7148L61.704 72.1696L62.0245 71.6628L62.3231 71.0783L62.5851 70.5043L62.8339 69.8937L63.0837 69.283L63.2033 68.9568L63.3116 68.5921L63.3919 68.2772L63.5002 67.9126L63.5701 67.5584L63.6399 67.2095L63.7089 66.8544L63.7788 66.5011L63.054 66.9103L62.2899 67.3203ZM78.616 51.6836L78.1095 52.5768L77.5245 53.491L76.901 54.4166L76.2024 55.3631L75.4619 56.3227L74.6829 57.291L73.8429 58.1921L73.0142 59.1325L72.1252 60.0048L71.2633 60.8283L70.4303 61.6021L69.5867 62.3374L68.8104 63.0118L68.0507 63.5989L67.9572 64.1685L67.8525 64.6989L67.759 65.2685L67.6158 65.8102L67.5119 66.3415L67.3792 66.9216L67.1967 67.4738L67.022 68.0661L66.8578 68.5293L66.6928 68.9934L66.5278 69.4575L66.285 69.9425L66.0422 70.4284L65.7995 70.9143L65.493 71.4595L65.1725 71.9655L66.2204 71.0495L67.2936 70.0838L68.3415 69.037L69.461 67.9335L70.5193 66.7628L71.6056 65.545L72.6203 64.2191L73.6254 62.853L74.6192 61.4494L75.5134 59.9891L76.3866 58.4512L77.121 56.867L77.8344 55.2096L78.4204 53.5416L78.9068 51.8162L79.2936 50.0366L79.009 50.826L78.616 51.6836ZM80.0306 35.602L79.7372 33.6322L79.3548 31.6459L78.8448 29.6526L78.8238 29.575L78.7915 29.4581L78.7662 29.3804L78.7339 29.2635L78.6204 30.2161L78.3794 31.1609L78.0676 32.1274L77.6598 33.0774L77.1359 34.0588L76.5246 35.0227L75.8732 35.998L75.1431 36.9942L74.3642 37.9625L73.5067 38.9526L72.6395 39.9035L71.7165 40.8255L70.7603 41.7589L69.8041 42.6923L68.8366 43.5874L67.8586 44.4431L68.1048 46.0901L68.3406 47.6996L68.5371 49.3186L68.6951 50.949L68.7484 51.8964V52.8159L68.7615 53.7754L68.7257 54.7062L68.6619 55.6859L68.5589 56.6768L68.4672 57.7071L68.2865 58.719L69.5212 57.5849L70.7438 56.4099L71.879 55.2165L72.9548 53.9577L73.9809 52.6702L74.9178 51.3617L75.8059 50.0287L76.6049 48.6783L77.355 47.3L78.0266 45.9427L78.5985 44.5295L79.0928 43.1381L79.5102 41.7677L79.8272 40.3405L80.0778 38.9744L80.2001 37.6014L80.0306 35.602Z" fill="url(#paint0_linear_2177_22183)"/>
<path fill-rule="evenodd" clip-rule="evenodd" d="M35.9634 32.6194C36.2507 33.4045 37.0759 35.629 37.2122 36.2135H29.0841L28.7706 31.529L28.6081 25.4392C29.6441 25.4692 30.5864 24.8435 30.9598 23.8777C34.5278 24.7073 34.9636 29.8864 35.9634 32.6194ZM37.1266 79.2539V80.9349C41.5268 81.5542 46.2712 80.6077 50.0339 79.8008V79.2582H48.6202L48.5704 78.2202L48.9354 55.8882H57.2198C58.2214 55.8882 59.5636 56.7196 59.5636 57.6059C59.5636 58.0342 59.251 58.1153 59.251 58.5428C59.251 58.7329 59.575 59.0112 59.8762 59.0112H61.1267C61.8052 59.0112 61.6096 58.7626 62.3781 58.6989H62.5344L64.4092 57.6059C64.9 57.2779 65.816 56.5181 65.816 55.7321C65.816 55.1764 65.2816 55.1214 64.8257 55.0342L61.7519 50.895C60.1857 49.8509 58.3165 49.3566 56.4383 49.4896H49.4035C49.1074 45.8363 49.696 40.481 48.1565 37.3065C47.4579 36.1358 46.3838 36.8651 46.2781 35.5915H47.5278C47.8299 35.5915 47.8063 35.5426 47.9976 35.4362V32.6255H41.9015L41.7408 19.1915C42.9249 19.0929 43.1511 18.4247 43.1511 17.1616C40.0074 15.0557 38.7849 12.9455 34.554 12.9455H34.2414C29.2587 12.9455 25.8007 17.3238 25.8007 22.0022L25.957 24.9681L26.2696 32.1501V39.3338C25.5885 65.1961 14.3936 68.4918 14.3936 71.9681C14.3936 74.2362 28.9906 63.9661 29.2028 37.3056H37.84C38.0079 37.2987 38.171 37.3622 38.2898 37.4809C38.4086 37.5996 38.4723 37.7625 38.4653 37.9302V41.3664L38.1527 79.2539H37.1266ZM40.3384 18.1028C40.3384 16.4567 37.9632 15.4483 36.4306 15.4483H35.1801C33.7782 15.6547 32.4491 16.2046 31.3117 17.049C30.7441 17.5314 28.995 19.7219 29.553 20.6012L30.9598 21.9969C37.771 22.9984 35.8849 33.798 40.2414 36.5903L41.1199 35.5915H39.7131C39.3525 35.5915 39.2442 35.4833 39.2442 35.1239V32.6255H40.9627V22.7847L40.9776 19.0249L40.3384 18.1028Z" fill="#231F20"/>
<path d="M92.3588 43.2463V9.08455H85.1982V6.478H102.838V9.08455H95.6099V43.2463H92.3588Z" fill="#0671B9"/>
<path d="M107.4 43.2463V6.478H120.232V9.08455H110.651V23.0141H117.495V25.4723H110.651V40.6388H120.232V43.2463H107.4Z" fill="#0671B9"/>
<path fill-rule="evenodd" clip-rule="evenodd" d="M126.848 6.478V43.2463H130.099V26.9021H135.83C142.845 26.9021 144.555 21.6035 144.555 16.3695C144.555 11.0717 142.417 6.478 135.851 6.478H126.848ZM136.211 24.3174L130.099 24.2955V9.08455H136.211C139.613 9.08455 141.302 11.3282 141.302 16.434C141.302 21.7535 139.933 24.3383 136.211 24.3174Z" fill="#0671B9"/>
<path d="M150.85 43.2463V6.478H154.101V23.117H165.434V6.478H168.686V43.2463H165.434V25.3851H154.101V43.2463H150.85Z" fill="#0671B9"/>
<path d="M177.098 43.2463V6.478H180.347V43.2463H177.098Z" fill="#0671B9"/>
<path d="M188.802 43.2463V6.478H191.304L202.96 35.5976V6.478H205.718V43.2463H203.28L191.603 14.7425V43.2463H188.802Z" fill="#0671B9"/>
<path d="M214.151 43.2463V6.478H226.984V9.08455H217.402V23.0141H224.248V25.4723H217.404V40.6388H226.985V43.2463H214.151Z" fill="#0671B9"/>
<path d="M236.892 43.2463V9.08455H229.731V6.478H247.371V9.08455H240.141V43.2463H236.892Z" fill="#0671B9"/>
<path d="M91.3406 57.8972V52.4669H89.4072V51.79H94.0476V52.4669H92.1038V57.8972H91.3406Z" fill="#231F20"/>
<path d="M94.25 57.8972V53.4745H94.9372V54.1889C95.2747 53.7031 95.8215 53.4045 96.413 53.3829V54.0851C96.3226 54.0661 96.2303 54.057 96.1379 54.0581C95.6515 54.1 95.2102 54.3594 94.9372 54.7638V57.8972H94.25Z" fill="#231F20"/>
<path fill-rule="evenodd" clip-rule="evenodd" d="M100.044 57.3939V57.8972H100.732V54.8519C100.732 53.7807 99.9528 53.3593 99.0176 53.3593C98.3497 53.3372 97.7047 53.6043 97.2484 54.0921L97.5689 54.5684C97.9086 54.1743 98.4054 53.9508 98.9259 53.9577C99.5669 53.9577 100.044 54.2962 100.044 54.8911V55.6876C99.6702 55.2771 99.1321 55.0555 98.5775 55.0839C98.1747 55.0562 97.7787 55.1976 97.4846 55.4739C97.1906 55.7503 97.0252 56.1366 97.0284 56.5399C97.03 56.9424 97.1965 57.3267 97.4891 57.6034C97.7818 57.8801 98.1751 58.025 98.5775 58.0045C99.1317 58.0227 99.6665 57.8 100.044 57.3939ZM100.044 56.1299V56.9638C99.7469 57.3309 99.293 57.5349 98.8211 57.5134C98.4477 57.5583 98.0817 57.3845 97.8808 57.0669C97.6799 56.7492 97.6799 56.3445 97.8808 56.0268C98.0817 55.7092 98.4477 55.5354 98.8211 55.5803C99.293 55.5588 99.7469 55.7628 100.044 56.1299Z" fill="#231F20"/>
<path fill-rule="evenodd" clip-rule="evenodd" d="M102.451 51.9226C102.195 51.9226 101.988 52.1296 101.988 52.3849C101.988 52.6403 102.195 52.8473 102.451 52.8473C102.707 52.8473 102.914 52.6403 102.914 52.3849C102.914 52.1296 102.707 51.9226 102.451 51.9226ZM102.108 53.4745V57.8972H102.795V53.4745H102.108Z" fill="#231F20"/>
<path d="M107.159 57.8972V55.0037C107.159 54.2256 106.764 53.9778 106.169 53.9778C105.651 53.9961 105.169 54.2487 104.859 54.6643V57.8972H104.171V53.4745H104.859V54.1156C105.258 53.6581 105.828 53.3861 106.435 53.3646C106.827 53.3121 107.22 53.4465 107.498 53.7274C107.775 54.0082 107.905 54.403 107.847 54.7934V57.8972H107.159Z" fill="#231F20"/>
<path fill-rule="evenodd" clip-rule="evenodd" d="M109.329 51.9671C109.182 52.0543 109.096 52.2148 109.103 52.3849C109.114 52.6327 109.318 52.828 109.566 52.828C109.814 52.828 110.019 52.6327 110.029 52.3849C110.037 52.2148 109.95 52.0543 109.804 51.9671C109.657 51.8798 109.475 51.8798 109.329 51.9671ZM109.223 53.4745V57.8972H109.91V53.4745H109.223Z" fill="#231F20"/>
<path d="M114.273 57.8972V55.0037C114.273 54.2256 113.88 53.9778 113.283 53.9778C112.765 53.9965 112.283 54.249 111.973 54.6643V57.8972H111.286V53.4745H111.973V54.1156C112.373 53.6583 112.943 53.3864 113.55 53.3646C113.942 53.3121 114.335 53.4465 114.613 53.7274C114.891 54.0082 115.02 54.403 114.962 54.7934V57.8972H114.273Z" fill="#231F20"/>
<path fill-rule="evenodd" clip-rule="evenodd" d="M116.678 58.5201L116.328 59.033C116.799 59.5041 117.453 59.7441 118.117 59.689C119.199 59.689 120.226 59.2354 120.226 57.7699V53.4745H119.538V54.1409C119.197 53.6572 118.645 53.3672 118.053 53.3619C116.889 53.3619 116.083 54.2317 116.083 55.6606C116.083 57.0894 116.899 57.9504 118.053 57.9504C118.645 57.9408 119.197 57.649 119.538 57.1653V57.7969C119.559 58.1717 119.412 58.5365 119.138 58.793C118.864 59.0496 118.49 59.1713 118.117 59.1255C117.567 59.1702 117.03 58.9442 116.678 58.5201ZM119.537 54.6957V56.6254C119.24 57.0668 118.748 57.3374 118.216 57.3512C117.327 57.3512 116.796 56.6454 116.796 55.6658C116.796 54.6862 117.327 53.9804 118.216 53.9804C118.747 53.9901 119.239 54.2569 119.537 54.6957Z" fill="#231F20"/>
<path fill-rule="evenodd" clip-rule="evenodd" d="M123.994 51.7908V57.8972H124.755V55.4713H126.451C127.125 55.4967 127.76 55.1516 128.105 54.5718C128.45 53.9919 128.45 53.2702 128.105 52.6903C127.76 52.1105 127.125 51.7654 126.451 51.7908H123.994ZM127.227 52.7766C127.46 52.9985 127.588 53.309 127.579 53.6306H127.581C127.59 53.9521 127.462 54.2623 127.229 54.4841C126.995 54.7059 126.679 54.8183 126.358 54.7934H124.752V52.4669H126.356C126.677 52.442 126.994 52.5546 127.227 52.7766Z" fill="#231F20"/>
<path d="M129.349 57.8972V53.4745H130.036V54.1889C130.373 53.7031 130.92 53.4045 131.512 53.3829V54.0851C131.421 54.0661 131.329 54.057 131.237 54.0581C130.75 54.1002 130.309 54.3596 130.036 54.7638V57.8972H129.349Z" fill="#231F20"/>
<path fill-rule="evenodd" clip-rule="evenodd" d="M134.4 53.6246C133.207 53.5762 132.194 54.4904 132.121 55.6815C132.077 56.2867 132.289 56.8825 132.706 57.3243C133.122 57.7662 133.704 58.0138 134.312 58.0072C135.506 58.0068 136.481 57.0521 136.505 55.8591C136.529 54.666 135.594 53.6729 134.4 53.6246ZM134.158 54.4359C134.944 54.3542 135.656 54.9017 135.778 55.6815H135.774C135.824 56.1057 135.694 56.5311 135.416 56.8559C135.139 57.1808 134.739 57.3756 134.312 57.3939C133.522 57.3941 132.87 56.7762 132.829 55.988C132.788 55.1998 133.372 54.5176 134.158 54.4359Z" fill="#231F20"/>
<path fill-rule="evenodd" clip-rule="evenodd" d="M137.959 58.5201L137.61 59.033C138.08 59.504 138.734 59.744 139.398 59.689C140.48 59.689 141.507 59.2354 141.507 57.7699V53.4745H140.82V54.1409C140.48 53.6572 139.927 53.3672 139.335 53.3619C138.171 53.3619 137.364 54.2317 137.364 55.6606C137.364 57.0894 138.18 57.9504 139.335 57.9504C139.927 57.9407 140.479 57.6489 140.82 57.1653V57.7969C140.841 58.1718 140.694 58.5366 140.42 58.7931C140.145 59.0495 139.771 59.1713 139.398 59.1255C138.848 59.1702 138.311 58.9442 137.959 58.5201ZM140.819 54.6957V56.6254C140.522 57.0666 140.03 57.3371 139.498 57.3512C138.609 57.3512 138.077 56.6454 138.077 55.6658C138.077 54.6862 138.609 53.9804 139.498 53.9804C140.029 53.9902 140.521 54.257 140.819 54.6957Z" fill="#231F20"/>
<path d="M142.881 57.8972V53.4745H143.569V54.1889C143.906 53.7031 144.453 53.4045 145.045 53.3829V54.0851C144.954 54.0661 144.862 54.057 144.77 54.0581C144.283 54.1 143.842 54.3594 143.569 54.7638V57.8972H142.881Z" fill="#231F20"/>
<path fill-rule="evenodd" clip-rule="evenodd" d="M148.676 57.3939V57.8972H149.364V54.8519C149.364 53.7807 148.584 53.3593 147.649 53.3593C146.982 53.3373 146.337 53.6044 145.88 54.0921L146.201 54.5684C146.54 54.1743 147.037 53.9508 147.558 53.9577C148.2 53.9577 148.676 54.2962 148.676 54.8911V55.6876C148.302 55.2771 147.764 55.0556 147.209 55.0839C146.807 55.0562 146.41 55.1976 146.116 55.4739C145.822 55.7503 145.657 56.1366 145.66 56.5399C145.662 56.9424 145.828 57.3267 146.121 57.6034C146.414 57.8801 146.807 58.025 147.209 58.0045C147.764 58.0229 148.299 57.8001 148.676 57.3939ZM148.676 56.1299V56.9638C148.38 57.3309 147.926 57.5349 147.454 57.5134C147.08 57.5583 146.714 57.3845 146.514 57.0669C146.313 56.7492 146.313 56.3445 146.514 56.0268C146.714 55.7092 147.08 55.5354 147.454 55.5803C147.926 55.5588 148.38 55.7628 148.676 56.1299Z" fill="#231F20"/>
<path d="M156.083 57.8972V54.8938C156.083 54.3355 155.836 53.9778 155.268 53.9778C154.793 54.0118 154.36 54.262 154.094 54.6565V57.8972H153.407V54.8938C153.407 54.3355 153.169 53.9778 152.591 53.9778C152.118 54.0164 151.689 54.2694 151.426 54.6643V57.8972H150.739V53.4745H151.426V54.1156C151.769 53.6666 152.292 53.3917 152.857 53.3646C153.401 53.3171 153.902 53.6635 154.049 54.1889C154.382 53.6916 154.935 53.3849 155.533 53.3646C156.34 53.3646 156.771 53.8138 156.771 54.701V57.8972H156.083Z" fill="#231F20"/>
<path d="M157.763 57.3128L158.12 56.8181C158.498 57.2198 159.025 57.4482 159.577 57.4497C160.256 57.4497 160.625 57.1296 160.625 56.6899C160.625 55.6178 157.885 56.2773 157.885 54.6382C157.885 53.9516 158.48 53.3654 159.534 53.3654C160.146 53.346 160.739 53.5777 161.175 54.0066L160.855 54.482C160.516 54.1138 160.035 53.9105 159.534 53.9246C158.929 53.9246 158.553 54.2264 158.553 54.6225C158.553 55.5925 161.295 54.9522 161.295 56.6733C161.295 57.4148 160.699 58.0098 159.553 58.0098C158.884 58.0419 158.233 57.7885 157.763 57.3128Z" fill="#231F20"/>
<path fill-rule="evenodd" clip-rule="evenodd" d="M165.121 51.9226C164.865 51.9226 164.658 52.1296 164.658 52.3849C164.658 52.6403 164.865 52.8473 165.121 52.8473C165.377 52.8473 165.584 52.6403 165.584 52.3849C165.584 52.1296 165.377 51.9226 165.121 51.9226ZM164.777 53.4745V57.8972H165.464V53.4745H164.777Z" fill="#231F20"/>
<path d="M169.827 57.8972V55.0037C169.827 54.2256 169.433 53.9778 168.838 53.9778C168.32 53.9963 167.838 54.2488 167.528 54.6643V57.8972H166.841V53.4745H167.528V54.1156C167.927 53.6582 168.497 53.3863 169.104 53.3646C169.496 53.3121 169.889 53.4465 170.167 53.7274C170.444 54.0082 170.574 54.403 170.516 54.7934V57.8972H169.827Z" fill="#231F20"/>
<path d="M174.285 57.8972V51.7908H178.291V52.4678H175.046V54.434H178.228V55.111H175.047V57.2177H178.292V57.8946L174.285 57.8972Z" fill="#231F20"/>
<path fill-rule="evenodd" clip-rule="evenodd" d="M180.162 59.5808V57.2255C180.501 57.7154 181.06 58.0075 181.656 58.0071C182.821 58.0071 183.628 57.1191 183.628 55.6815C183.628 54.2439 182.821 53.3645 181.656 53.3645C181.063 53.3671 180.508 53.6532 180.162 54.134V53.4745H179.475V59.5808H180.162ZM181.482 53.9743C182.372 53.9743 182.903 54.6975 182.903 55.678V55.6815C182.903 56.6611 182.372 57.3939 181.482 57.3904C180.953 57.3782 180.461 57.1123 180.162 56.676V54.68C180.462 54.2461 180.954 53.9834 181.482 53.9743Z" fill="#231F20"/>
<path fill-rule="evenodd" clip-rule="evenodd" d="M184.829 51.9671C184.682 52.0543 184.596 52.2148 184.603 52.3849C184.614 52.6327 184.818 52.828 185.066 52.828C185.314 52.828 185.519 52.6327 185.529 52.3849C185.537 52.2148 185.45 52.0543 185.304 51.9671C185.157 51.8798 184.975 51.8798 184.829 51.9671ZM184.723 53.4745V57.8972H185.41V53.4745H184.723Z" fill="#231F20"/>
<path fill-rule="evenodd" clip-rule="evenodd" d="M189.99 57.2386V57.8972L190.678 57.8946V51.7882H189.99V54.1436C189.647 53.6592 189.091 53.3694 188.496 53.3646C187.331 53.3646 186.525 54.2805 186.525 55.6902C186.525 57.1287 187.341 58.0072 188.496 58.0072C189.088 58.0025 189.643 57.7172 189.99 57.2386ZM189.99 54.6957V56.6978V56.7021C189.685 57.1335 189.19 57.3918 188.661 57.3965C187.771 57.3965 187.241 56.6725 187.241 55.6928C187.241 54.7132 187.771 53.9804 188.661 53.9804C189.194 53.9921 189.688 54.2581 189.99 54.6957Z" fill="#231F20"/>
<path fill-rule="evenodd" clip-rule="evenodd" d="M192.397 54.0603C191.985 54.4972 191.769 55.0823 191.797 55.6815C191.759 56.2973 191.983 56.9005 192.413 57.3433C192.843 57.786 193.44 58.0273 194.057 58.008C194.711 58.0312 195.347 57.7867 195.817 57.3311L195.487 56.8818C195.123 57.2412 194.632 57.4423 194.121 57.441C193.706 57.4503 193.304 57.2942 193.005 57.007C192.706 56.7198 192.534 56.3254 192.526 55.9109H196.107V55.7364C196.17 55.1332 195.975 54.5313 195.57 54.0794C195.165 53.6276 194.587 53.3679 193.98 53.3645C193.38 53.3724 192.808 53.6235 192.397 54.0603ZM192.522 55.4111C192.523 54.608 193.166 53.9529 193.97 53.9368V53.9324C194.363 53.9251 194.742 54.0791 195.018 54.3586C195.294 54.6381 195.443 55.0186 195.431 55.4111H192.522Z" fill="#231F20"/>
<path d="M202.561 57.8972V54.8938C202.561 54.3355 202.314 53.9778 201.745 53.9778C201.27 54.012 200.837 54.2622 200.571 54.6565V57.8972H199.885V54.8938C199.885 54.3355 199.647 53.9778 199.069 53.9778C198.596 54.0163 198.167 54.2693 197.905 54.6643V57.8972H197.218V53.4745H197.905V54.1156C198.247 53.6666 198.77 53.3916 199.335 53.3646C199.879 53.3167 200.38 53.6631 200.527 54.1889C200.861 53.6916 201.413 53.3849 202.012 53.3646C202.819 53.3646 203.249 53.8138 203.249 54.701V57.8972H202.561Z" fill="#231F20"/>
<path fill-rule="evenodd" clip-rule="evenodd" d="M204.969 51.9226C204.713 51.9226 204.506 52.1296 204.506 52.3849C204.506 52.6403 204.713 52.8473 204.969 52.8473C205.224 52.8473 205.431 52.6403 205.431 52.3849C205.431 52.1296 205.224 51.9226 204.969 51.9226ZM204.625 53.4745V57.8972H205.313V53.4745H204.625Z" fill="#231F20"/>
<path fill-rule="evenodd" clip-rule="evenodd" d="M208.713 53.6228C207.519 53.5748 206.506 54.4898 206.433 55.6815C206.39 56.2869 206.602 56.8828 207.019 57.3247C207.435 57.7666 208.018 58.0141 208.625 58.0071C209.82 58.0069 210.796 57.0516 210.82 55.858C210.843 54.6643 209.907 53.6708 208.713 53.6228ZM208.472 54.4359C209.258 54.3544 209.97 54.9018 210.092 55.6815H210.089C210.138 56.1057 210.008 56.5312 209.73 56.856C209.453 57.1808 209.052 57.3756 208.625 57.3939C207.835 57.3937 207.184 56.7755 207.143 55.9874C207.102 55.1993 207.687 54.5174 208.472 54.4359Z" fill="#231F20"/>
<path d="M211.936 57.8972V51.7908H212.624V57.8972H211.936Z" fill="#231F20"/>
<path fill-rule="evenodd" clip-rule="evenodd" d="M216.018 53.6228C214.824 53.5746 213.81 54.4897 213.738 55.6815C213.695 56.2867 213.907 56.8825 214.323 57.3243C214.739 57.7662 215.322 58.0138 215.929 58.0071C217.124 58.0073 218.1 57.0523 218.124 55.8585C218.148 54.6648 217.212 53.671 216.018 53.6228ZM215.776 54.4359C216.562 54.3544 217.274 54.9018 217.396 55.6815C217.445 56.1063 217.315 56.5323 217.036 56.8572C216.758 57.1821 216.357 57.3766 215.929 57.3939C215.139 57.3937 214.488 56.7755 214.447 55.9874C214.406 55.1993 214.99 54.5174 215.776 54.4359Z" fill="#231F20"/>
<path fill-rule="evenodd" clip-rule="evenodd" d="M219.58 58.5201L219.231 59.033C219.701 59.5041 220.355 59.7441 221.019 59.689C222.101 59.689 223.128 59.2354 223.128 57.7699V53.4745H222.44V54.1409C222.1 53.6572 221.547 53.3672 220.955 53.3619C219.791 53.3619 218.984 54.2317 218.984 55.6606C218.984 57.0894 219.801 57.9504 220.955 57.9504C221.547 57.9408 222.099 57.649 222.44 57.1653V57.7969C222.461 58.1716 222.314 58.5362 222.04 58.7927C221.766 59.0491 221.392 59.171 221.019 59.1255C220.469 59.1702 219.932 58.9442 219.58 58.5201ZM222.439 54.6957V56.6254C222.143 57.0667 221.651 57.3372 221.119 57.3512C220.23 57.3512 219.698 56.6454 219.698 55.6658C219.698 54.6862 220.23 53.9804 221.119 53.9804C221.65 53.9901 222.142 54.2569 222.439 54.6957Z" fill="#231F20"/>
<path d="M224.366 59.006C224.485 59.0534 224.613 59.0782 224.741 59.0793C225.045 59.1013 225.321 58.9057 225.402 58.6126L225.695 57.9435L223.843 53.4745H224.585L226.062 57.1008L227.529 53.4745H228.28L226.062 58.7957C225.875 59.3505 225.345 59.7159 224.76 59.6925C224.59 59.6905 224.421 59.6692 224.256 59.6288L224.366 59.006Z" fill="#231F20"/>
<path fill-rule="evenodd" clip-rule="evenodd" d="M234.13 57.3939V57.8972H234.817V54.8519C234.817 53.7807 234.038 53.3593 233.103 53.3593C232.435 53.3373 231.79 53.6044 231.333 54.0921L231.654 54.5684C231.994 54.1744 232.49 53.9509 233.011 53.9577C233.653 53.9577 234.13 54.2962 234.13 54.8911V55.6876C233.756 55.277 233.217 55.0555 232.662 55.0839C232.26 55.0562 231.864 55.1976 231.57 55.4739C231.276 55.7503 231.11 56.1366 231.113 56.5399C231.115 56.9424 231.281 57.3267 231.574 57.6034C231.867 57.8801 232.26 58.025 232.662 58.0045C233.217 58.0229 233.752 57.8001 234.13 57.3939ZM234.13 56.1299V56.9638C233.833 57.3309 233.379 57.5349 232.907 57.5134C232.534 57.5583 232.168 57.3845 231.967 57.0669C231.766 56.7492 231.766 56.3445 231.967 56.0268C232.168 55.7092 232.534 55.5354 232.907 55.5803C233.379 55.5588 233.833 55.7628 234.13 56.1299Z" fill="#231F20"/>
<path d="M239.181 57.8972V55.0037C239.181 54.2256 238.787 53.9778 238.191 53.9778C237.673 53.9961 237.191 54.2487 236.881 54.6643V57.8972H236.193V53.4745H236.881V54.1156C237.28 53.6582 237.851 53.3863 238.458 53.3646C238.849 53.3121 239.243 53.4465 239.52 53.7274C239.798 54.0082 239.927 54.403 239.87 54.7934V57.8972H239.181Z" fill="#231F20"/>
<path fill-rule="evenodd" clip-rule="evenodd" d="M244.452 57.2386V57.8972L245.141 57.8946V51.7882H244.452V54.1436C244.109 53.659 243.553 53.3691 242.958 53.3646C241.794 53.3646 240.988 54.2805 240.988 55.6902C240.988 57.1287 241.804 58.0072 242.958 58.0072C243.55 58.0025 244.105 57.7172 244.452 57.2386ZM244.452 54.6957V56.6978V56.7021C244.147 57.1335 243.653 57.3919 243.124 57.3965C242.234 57.3965 241.703 56.6725 241.703 55.6928C241.703 54.7132 242.234 53.9804 243.124 53.9804C243.656 53.9923 244.15 54.2584 244.452 54.6957Z" fill="#231F20"/>
<path fill-rule="evenodd" clip-rule="evenodd" d="M89.8311 62.7832V68.8896L90.5916 68.8922V66.4654H92.2875C92.9625 66.4908 93.5974 66.1456 93.9425 65.5655C94.2875 64.9854 94.2875 64.2632 93.9425 63.6831C93.5974 63.103 92.9625 62.7578 92.2875 62.7832H89.8311ZM93.0637 63.7678C93.2969 63.9895 93.4248 64.2998 93.4157 64.6212C93.4251 64.9429 93.2973 65.2533 93.0641 65.4753C92.8309 65.6973 92.5143 65.8098 92.1932 65.7849H90.589V63.4584H92.1932C92.5141 63.4335 92.8306 63.546 93.0637 63.7678Z" fill="#231F20"/>
<path d="M98.1739 68.8896V68.2667C97.7738 68.7204 97.2019 68.9861 96.5968 68.9995C96.2074 69.0569 95.8137 68.9269 95.5352 68.649C95.2567 68.3711 95.1261 67.978 95.183 67.5889V64.466H95.8703V67.3787C95.8703 68.1568 96.2641 68.3854 96.8605 68.3854C97.3763 68.3737 97.8585 68.1277 98.1704 67.7172V64.466H98.8576V68.8896H98.1739Z" fill="#231F20"/>
<path fill-rule="evenodd" clip-rule="evenodd" d="M100.237 62.7832V68.8896L100.925 68.894V68.2345C101.272 68.7133 101.827 68.9988 102.419 69.0039C103.574 69.0039 104.39 68.1246 104.39 66.6869C104.39 65.2764 103.574 64.3604 102.419 64.3604C101.824 64.3632 101.267 64.6531 100.925 65.1385V62.7832H100.237ZM103.676 66.6826C103.676 67.6622 103.144 68.3854 102.246 68.3854H102.245C101.718 68.3805 101.227 68.1214 100.925 67.6901V65.6837C101.225 65.2477 101.716 64.9822 102.246 64.9702C103.144 64.9702 103.676 65.7029 103.676 66.6826Z" fill="#231F20"/>
<path d="M105.509 68.8896V62.7832H106.197V68.8896H105.509Z" fill="#231F20"/>
<path fill-rule="evenodd" clip-rule="evenodd" d="M107.916 62.9141C107.66 62.9141 107.453 63.1211 107.453 63.3764C107.453 63.6317 107.66 63.8387 107.916 63.8387C108.172 63.8387 108.379 63.6317 108.379 63.3764C108.379 63.1211 108.172 62.9141 107.916 62.9141ZM107.572 64.466V68.8896H108.26V64.466H107.572Z" fill="#231F20"/>
<path d="M109.378 66.673C109.34 66.0668 109.557 65.4723 109.977 65.0325C110.396 64.5927 110.98 64.3476 111.588 64.3561C112.224 64.3238 112.833 64.6129 113.21 65.1255L112.752 65.5468C112.5 65.1738 112.074 64.9561 111.624 64.9702C110.752 65.0648 110.091 65.8009 110.091 66.6778C110.091 67.5547 110.752 68.2908 111.624 68.3854C112.073 68.3948 112.497 68.1781 112.752 67.8088L113.21 68.2301C112.833 68.7427 112.224 69.0318 111.588 68.9995C110.979 69.0061 110.394 68.759 109.975 68.3175C109.556 67.8761 109.34 67.2802 109.378 66.673Z" fill="#231F20"/>
<path d="M120.904 68.8896V66.0868H117.328V68.8896H116.567V62.7832H117.328V65.4124H120.904V62.7806H121.664V68.887L120.904 68.8896Z" fill="#231F20"/>
<path fill-rule="evenodd" clip-rule="evenodd" d="M123.411 65.0516C122.999 65.4885 122.783 66.0737 122.812 66.673C122.774 67.2888 122.997 67.8922 123.427 68.3351C123.857 68.778 124.454 69.0195 125.072 69.0004C125.726 69.0233 126.362 68.7785 126.831 68.3226L126.501 67.8733C126.138 68.2331 125.647 68.4342 125.135 68.4325C124.721 68.4416 124.32 68.2855 124.02 67.9985C123.721 67.7116 123.549 67.3175 123.541 66.9033H127.121V66.7288C127.185 66.1255 126.99 65.5235 126.585 65.0715C126.18 64.6195 125.602 64.3596 124.995 64.356C124.394 64.3636 123.823 64.6147 123.411 65.0516ZM123.536 66.3991C123.536 65.5955 124.179 64.9396 124.984 64.9239C125.376 64.9169 125.754 65.0705 126.03 65.3492C126.306 65.6278 126.456 66.0072 126.445 66.3991H123.536Z" fill="#231F20"/>
<path fill-rule="evenodd" clip-rule="evenodd" d="M130.999 68.3854V68.8896L131.686 68.8826V65.8425C131.686 64.7704 130.906 64.3491 129.972 64.3491C129.303 64.327 128.658 64.5941 128.202 65.0818L128.523 65.5581C128.862 65.1642 129.359 64.9406 129.879 64.9475C130.522 64.9475 130.999 65.2868 130.999 65.8826V66.6791C130.625 66.2677 130.087 66.0454 129.531 66.0737C129.129 66.0462 128.732 66.1878 128.438 66.4642C128.144 66.7407 127.979 67.1271 127.981 67.5305C127.983 67.9332 128.15 68.3175 128.443 68.5943C128.736 68.8711 129.129 69.0163 129.531 68.996C130.086 69.0141 130.621 68.7914 130.999 68.3854ZM130.999 67.1222V67.9553C130.702 68.3224 130.248 68.5264 129.776 68.5049C129.402 68.5513 129.035 68.378 128.833 68.0598C128.631 67.7417 128.631 67.3359 128.833 67.0177C129.035 66.6996 129.402 66.5263 129.776 66.5727C130.248 66.5511 130.702 66.7552 130.999 67.1222Z" fill="#231F20"/>
<path d="M133.062 68.8896V62.7832H133.749V68.8896H133.062Z" fill="#231F20"/>
<path d="M135.265 67.9649V65.0705H134.531V64.466H135.265V63.2569H135.953V64.466H136.851V65.0705H135.953V67.8184C135.953 68.1472 136.099 68.3854 136.402 68.3854C136.576 68.388 136.743 68.3222 136.869 68.2022L137.071 68.7151C136.845 68.9172 136.548 69.0198 136.245 68.9995C135.968 69.0257 135.694 68.9229 135.503 68.7209C135.311 68.5189 135.224 68.2401 135.265 67.9649Z" fill="#231F20"/>
<path d="M140.818 68.8896V65.9769C140.818 65.1987 140.415 64.9702 139.818 64.9702C139.301 64.9931 138.821 65.2447 138.508 65.6567V68.8896H137.82V62.7832H138.508V65.1097C138.91 64.6505 139.484 64.3785 140.094 64.3587C140.483 64.3019 140.877 64.4322 141.155 64.71C141.433 64.9878 141.563 65.3805 141.506 65.7692V68.8922L140.818 68.8896Z" fill="#231F20"/>
<path d="M145.274 68.8896V62.7832H146.035V68.8896H145.274Z" fill="#231F20"/>
<path d="M150.428 68.8896V65.996C150.428 65.217 150.033 64.9702 149.437 64.9702C148.919 64.9889 148.437 65.2414 148.128 65.6567V68.8896H147.439V64.466H148.128V65.1071C148.527 64.6496 149.098 64.3777 149.705 64.356C150.096 64.3039 150.489 64.4384 150.767 64.7192C151.044 65.0001 151.173 65.3946 151.116 65.7849V68.8896H150.428Z" fill="#231F20"/>
<path d="M152.628 67.9649V65.0705H151.895V64.466H152.628V63.2569H153.315V64.466H154.214V65.0705H153.315V67.8184C153.315 68.1472 153.462 68.3854 153.765 68.3854C153.939 68.388 154.107 68.3222 154.232 68.2022L154.434 68.7151C154.208 68.917 153.911 69.0196 153.609 68.9995C153.331 69.0257 153.058 68.9229 152.866 68.7209C152.675 68.5189 152.587 68.2401 152.628 67.9649Z" fill="#231F20"/>
<path fill-rule="evenodd" clip-rule="evenodd" d="M155.529 65.0518C155.117 65.4887 154.901 66.0738 154.929 66.673C154.891 67.288 155.113 67.8908 155.542 68.3339C155.971 68.777 156.566 69.0195 157.183 69.0021C157.84 69.0262 158.478 68.7807 158.949 68.3226L158.619 67.8733C158.256 68.2326 157.764 68.4336 157.253 68.4325C156.838 68.4421 156.436 68.2861 156.137 67.9991C155.838 67.712 155.666 67.3177 155.658 66.9033H159.238V66.7288C159.302 66.1255 159.107 65.5235 158.702 65.0715C158.297 64.6195 157.719 64.3596 157.112 64.356C156.512 64.3639 155.94 64.615 155.529 65.0518ZM155.654 66.3991C155.654 65.5955 156.297 64.9396 157.102 64.9239C157.493 64.9178 157.871 65.0719 158.146 65.3505C158.421 65.629 158.57 66.0078 158.559 66.3991H155.654Z" fill="#231F20"/>
<path d="M160.349 68.8896V64.466H161.036V65.1804C161.374 64.6948 161.92 64.3963 162.512 64.3744V65.0766C162.421 65.0564 162.329 65.047 162.237 65.0487C161.751 65.0912 161.31 65.3501 161.036 65.7535V68.8861L160.349 68.8896Z" fill="#231F20"/>
<path d="M164.556 68.8896L162.714 64.466H163.457L164.932 68.0923L166.399 64.466H167.151L165.308 68.8896H164.556Z" fill="#231F20"/>
<path fill-rule="evenodd" clip-rule="evenodd" d="M168.209 65.0516C167.797 65.4885 167.581 66.0737 167.61 66.673C167.572 67.289 167.795 67.8925 168.226 68.3354C168.656 68.7783 169.253 69.0197 169.87 69.0004C170.525 69.0234 171.161 68.7786 171.631 68.3226L171.301 67.8733C170.938 68.2328 170.447 68.4339 169.936 68.4325C169.521 68.4419 169.12 68.2858 168.82 67.9989C168.521 67.712 168.348 67.3178 168.34 66.9033H171.92V66.7288C171.983 66.1253 171.788 65.5232 171.383 65.0712C170.978 64.6192 170.4 64.3594 169.793 64.356C169.192 64.3636 168.62 64.6147 168.209 65.0516ZM168.334 66.3991C168.334 65.595 168.978 64.9392 169.783 64.9239C170.175 64.9176 170.553 65.0716 170.828 65.3501C171.104 65.6287 171.253 66.0076 171.242 66.3991H168.334Z" fill="#231F20"/>
<path d="M176.018 68.8896V65.996C176.018 65.217 175.624 64.9702 175.028 64.9702C174.51 64.9885 174.028 65.2411 173.718 65.6567V68.8896H173.029V64.466H173.718V65.1071C174.117 64.6495 174.688 64.3776 175.294 64.356C175.686 64.3039 176.079 64.4384 176.356 64.7192C176.634 65.0001 176.763 65.3946 176.706 65.7849V68.8896H176.018Z" fill="#231F20"/>
<path d="M178.219 67.9649V65.0705H177.485V64.466H178.219V63.2569H178.906V64.466H179.805V65.0705H178.906V67.8184C178.906 68.1472 179.053 68.3854 179.356 68.3854C179.53 68.388 179.697 68.3222 179.823 68.2022L180.025 68.7151C179.799 68.9172 179.502 69.0198 179.2 68.9995C178.922 69.0257 178.648 68.9229 178.457 68.7209C178.265 68.5189 178.178 68.2401 178.219 67.9649Z" fill="#231F20"/>
<path fill-rule="evenodd" clip-rule="evenodd" d="M180.883 62.9593C180.737 63.0464 180.65 63.2066 180.658 63.3764C180.668 63.6237 180.872 63.8187 181.12 63.8187C181.368 63.8187 181.572 63.6237 181.582 63.3764C181.59 63.2066 181.503 63.0464 181.357 62.9593C181.211 62.8722 181.029 62.8722 180.883 62.9593ZM180.776 64.466V68.8896H181.465V64.466H180.776Z" fill="#231F20"/>
<path fill-rule="evenodd" clip-rule="evenodd" d="M184.863 64.6196C183.671 64.5707 182.658 65.4829 182.583 66.673C182.538 67.2794 182.751 67.8767 183.168 68.3194C183.585 68.7622 184.169 69.0099 184.777 69.0021C185.971 68.9998 186.944 68.0449 186.967 66.8528C186.991 65.6606 186.056 64.6685 184.863 64.6196ZM184.62 65.4274C185.406 65.3457 186.118 65.8932 186.24 66.673C186.289 67.0977 186.159 67.5237 185.881 67.8487C185.603 68.1736 185.202 68.3681 184.774 68.3854C183.984 68.3856 183.332 67.7676 183.291 66.9795C183.25 66.1913 183.834 65.509 184.62 65.4274Z" fill="#231F20"/>
<path d="M191.072 68.8896V65.996C191.072 65.217 190.678 64.9702 190.082 64.9702C189.564 64.9889 189.082 65.2414 188.772 65.6567V68.8896H188.085V64.466H188.772V65.1071C189.171 64.6499 189.742 64.378 190.348 64.356C190.74 64.3037 191.134 64.438 191.411 64.7189C191.689 64.9997 191.818 65.3944 191.761 65.7849V68.8896H191.072Z" fill="#231F20"/>
<path d="M192.75 68.3043L193.109 67.8096C193.487 68.2113 194.014 68.4397 194.566 68.4412C195.244 68.4412 195.614 68.1211 195.614 67.6814C195.614 66.6102 192.873 67.2697 192.873 65.6305C192.873 64.9431 193.47 64.3569 194.524 64.3569C195.135 64.3379 195.728 64.5695 196.164 64.9981L195.843 65.4744C195.505 65.1056 195.024 64.9016 194.524 64.9152C193.918 64.9152 193.543 65.2179 193.543 65.6131C193.543 66.5849 196.283 65.9428 196.283 67.6648C196.283 68.4063 195.688 69.0021 194.542 69.0021C193.872 69.0345 193.221 68.7807 192.75 68.3043Z" fill="#231F20"/>
<path d="M204.119 68.8896L200.553 64.0176V68.8896H199.797V62.7832H200.576L204.097 67.5549V62.7832H204.857V68.8896H204.119Z" fill="#231F20"/>
<path fill-rule="evenodd" clip-rule="evenodd" d="M206.597 65.0516C206.185 65.4885 205.969 66.0737 205.997 66.673C205.959 67.289 206.183 67.8925 206.613 68.3354C207.044 68.7783 207.641 69.0197 208.258 69.0004C208.913 69.0234 209.549 68.7786 210.019 68.3226L209.688 67.8733C209.326 68.2328 208.835 68.4339 208.324 68.4325C207.909 68.4419 207.507 68.2858 207.208 67.9989C206.908 67.712 206.735 67.3178 206.727 66.9033H210.308V66.7288C210.371 66.1253 210.176 65.5232 209.771 65.0712C209.366 64.6192 208.788 64.3594 208.18 64.356C207.58 64.3636 207.008 64.6147 206.597 65.0516ZM206.721 66.3991C206.722 65.595 207.366 64.9391 208.171 64.9239H208.173C208.565 64.9185 208.941 65.073 209.216 65.3515C209.49 65.63 209.639 66.0084 209.627 66.3991H206.721Z" fill="#231F20"/>
<path d="M211.557 67.9649V65.0705H210.823V64.466H211.557V63.2569H212.244V64.466H213.142V65.0705H212.244V67.8184C212.244 68.1472 212.391 68.3854 212.693 68.3854C212.867 68.388 213.034 68.3222 213.16 68.2022L213.362 68.7151C213.137 68.9172 212.839 69.0197 212.537 68.9995C212.26 69.0257 211.986 68.9229 211.795 68.7209C211.603 68.5189 211.516 68.2401 211.557 67.9649Z" fill="#231F20"/>
<path d="M217.947 68.8896L216.792 65.3383L215.636 68.8913H214.949L213.537 64.466H214.252L215.334 67.992L216.498 64.466H217.085L218.25 67.992L219.331 64.466H220.046L218.634 68.8896H217.947Z" fill="#231F20"/>
<path fill-rule="evenodd" clip-rule="evenodd" d="M222.868 64.6152C221.674 64.5668 220.66 65.4814 220.588 66.673C220.544 67.2785 220.756 67.8746 221.173 68.3167C221.589 68.7588 222.172 69.0064 222.78 68.9995C223.975 68.9992 224.95 68.0441 224.974 66.8506C224.998 65.657 224.062 64.6635 222.868 64.6152ZM222.627 65.4274C223.412 65.3459 224.124 65.8933 224.247 66.673H224.248C224.297 67.0981 224.167 67.5244 223.888 67.8493C223.609 68.1743 223.208 68.3685 222.78 68.3854C221.99 68.3852 221.338 67.767 221.297 66.9789C221.257 66.1908 221.841 65.5089 222.627 65.4274Z" fill="#231F20"/>
<path d="M226.089 68.8896V64.466H226.777V65.1804C227.115 64.6948 227.661 64.3963 228.253 64.3744V65.0766C228.162 65.0564 228.07 65.047 227.978 65.0487C227.492 65.091 227.051 65.3499 226.777 65.7535V68.8861L226.089 68.8896Z" fill="#231F20"/>
<path d="M232.13 68.8896L230.535 66.9024L229.801 67.6256V68.8896H229.113V62.7832H229.801V66.8213L232.129 64.466H233.003L231.041 66.4723L233.012 68.8896H232.13Z" fill="#231F20"/>
<defs>
<linearGradient id="paint0_linear_2177_22183" x1="0" y1="80.5842" x2="80.207" y2="80.5842" gradientUnits="userSpaceOnUse">
<stop stop-color="#56C5D0"/>
<stop offset="0.4" stop-color="#8ED8F8"/>
<stop offset="1" stop-color="#0069B4"/>
</linearGradient>
</defs>
</svg>
