<?xml version="1.0" encoding="utf-8"?>
<!-- Generator: Adobe Illustrator 26.2.1, SVG Export Plug-In . SVG Version: 6.00 Build 0)  -->
<svg version="1.1" id="Layer_1" xmlns="http://www.w3.org/2000/svg" xmlns:xlink="http://www.w3.org/1999/xlink" x="0px" y="0px"
	 viewBox="0 0 1769.9 512.8" style="enable-background:new 0 0 1769.9 512.8;" xml:space="preserve">
<style type="text/css">
	.st0{fill:#D01857;}
	.st1{fill:#F5A900;}
	.st2{fill:#F7A800;}
	.st3{fill:#FBAF00;}
	.st4{fill:#D61857;}
	.st5{fill:url(#SVGID_1_);}
</style>
<path class="st0" d="M68.9,174.3c0-8.7,2.4-15.4,7.1-20.1c4.7-4.7,11.4-7.1,20.1-7.1c4.8,0,8.8,0.7,11.9,2.2c3.1,1.4,6,3.5,8.7,6.1
	l30-30.4c-6.5-6.8-13.9-12.1-22.1-15.9s-18-5.8-29.3-5.8c-15,0-28,3.1-39.1,9.4c-11.1,6.3-19.7,14.8-25.7,25.5s-9,23.1-9,37.1v1.6H0
	v41.6h21.5v133.3h47.4V218.6h41.7V177H68.9L68.9,174.3L68.9,174.3z"/>
<path class="st0" d="M271.7,177c-14.1-8.1-30.1-12.1-47.9-12.1s-33.2,4-47.4,12.1c-14.2,8.1-25.4,18.9-33.6,32.6
	c-8.2,13.6-12.3,29-12.3,46.1s4.2,32.6,12.5,46.5s19.5,24.8,33.6,32.9s30,12.1,47.6,12.1s33.5-4,47.6-12.1
	c14.1-8.1,25.3-19,33.5-32.9s12.3-29.4,12.3-46.5s-4.1-32.5-12.3-46.1C296.9,196,285.8,185.1,271.7,177z M263.3,280.5
	c-3.7,7.1-9,12.7-15.9,16.6c-6.9,4-14.8,6-23.7,6s-16.4-2-23.1-6s-12.1-9.5-15.9-16.6c-3.9-7.1-5.8-15.2-5.8-24.4s1.9-17.2,5.8-24.2
	s9.2-12.5,15.9-16.5c6.8-4,14.5-6,23.1-6s16.8,2,23.5,6s12.1,9.5,15.9,16.5c3.9,7,5.8,15.1,5.8,24.2S267.1,273.4,263.3,280.5
	L263.3,280.5z"/>
<path class="st0" d="M477.5,177c-14.1-8.1-30.1-12.1-47.9-12.1s-33.2,4-47.4,12.1s-25.5,18.9-33.6,32.6c-8.2,13.6-12.3,29-12.3,46.1
	s4.2,32.6,12.5,46.5s19.5,24.8,33.6,32.9c14.1,8.1,30,12.1,47.6,12.1c17.6,0,33.5-4,47.6-12.1s25.3-19,33.5-32.9
	s12.3-29.4,12.3-46.5s-4.1-32.5-12.3-46.1S491.6,185.1,477.5,177z M469.2,280.5c-3.7,7.1-9,12.7-15.9,16.6c-6.9,4-14.8,6-23.7,6
	s-16.4-2-23.1-6s-12.1-9.5-15.9-16.6c-3.9-7.1-5.8-15.2-5.8-24.4s1.9-17.2,5.8-24.2c3.9-7,9.2-12.5,15.9-16.5c6.8-4,14.5-6,23.1-6
	s16.8,2,23.5,6s12.1,9.5,15.9,16.5c3.8,7,5.8,15.1,5.8,24.2S472.9,273.4,469.2,280.5z"/>
<g>
	<path class="st1" d="M1206.1,193.4c-4.8-5.1-10.5-9.3-17-12.7c-9.9-5.1-21.1-7.6-33.6-7.6c-15.9,0-30.3,4-43.1,11.9
		c-12.8,8-22.8,18.8-30,32.6s-10.8,29.3-10.8,46.7s3.6,32.6,10.8,46.3c7.2,13.8,17.2,24.6,30,32.6s27.1,11.9,43.1,11.9
		c12.5,0,23.8-2.6,33.6-7.8c6.5-3.4,12.2-7.7,17-12.8v17h47V176.8h-47V193.4L1206.1,193.4z M1196.3,298.1
		c-8.2,8.8-18.9,13.2-32.2,13.2c-8.7,0-16.3-2-23-6c-6.6-4-11.8-9.5-15.6-16.6c-3.7-7.1-5.6-15.4-5.6-24.8s1.9-17.3,5.6-24.4
		s8.9-12.7,15.6-16.6s14.3-6,23-6s16.7,2,23.3,6s11.8,9.5,15.6,16.6c3.7,7.1,5.6,15.3,5.6,24.4
		C1208.6,277.9,1204.5,289.3,1196.3,298.1L1196.3,298.1z"/>
	<polygon class="st1" points="1368.1,111.8 1320.7,111.8 1320.7,176.8 1279.9,176.8 1279.9,218.4 1320.7,218.4 1320.7,351.5 
		1368.1,351.5 1368.1,218.4 1409,218.4 1409,176.8 1368.1,176.8 	"/>
	<path class="st1" d="M1568,181.8c-10.2-5.8-22-8.7-35.3-8.7s-25,2.9-35.3,8.7c-5.4,3-10.1,6.7-14.3,11v-81h-47.4v239.7h47.4V251.3
		c0-7,1.5-13.1,4.5-18.5c3-5.3,7.2-9.4,12.5-12.3s11.3-4.3,18.1-4.3c10.4,0,18.8,3.3,25.3,9.8s9.8,15,9.8,25.3v100.2h47.4V240.8
		c0-13.3-2.9-25-8.7-35.1S1578.2,187.6,1568,181.8L1568,181.8z"/>
	<path class="st1" d="M1745.2,257.5c-6.6-4.1-13.6-7.3-21-9.6c-7.4-2.3-14.4-4.3-21.2-6.1s-12.2-3.9-16.5-6.3
		c-4.2-2.4-6.3-5.8-6.3-10.1c0-3.9,1.9-6.9,5.6-9s9.1-3.3,16.1-3.3c7.7,0,14.9,1.5,21.5,4.3c6.6,2.9,12.6,7.6,17.9,14.1l28.6-28.6
		c-7.7-10.1-17.4-17.7-29.1-22.8c-11.7-5.1-24.8-7.6-39.2-7.6s-25.7,2.3-35.8,6.9c-10.1,4.6-17.9,11-23.3,19.2s-8.1,17.9-8.1,28.9
		s2.1,19.2,6.3,25.9c4.2,6.6,9.7,11.8,16.5,15.5s13.8,6.8,21.2,9c7.3,2.3,14.4,4.3,21.2,6.1s12.2,4,16.5,6.7
		c4.2,2.7,6.3,6.4,6.3,11.2c0,4.3-2,7.6-6,9.8c-4,2.2-9.8,3.3-17.5,3.3c-9.7,0-18.4-1.7-26.4-5.1s-15-8.4-21-15.2l-28.2,28.6
		c5.8,6.8,12.7,12.5,20.6,17.2c8,4.7,16.7,8.4,26.2,11s19.2,4,29.1,4c21.2,0,38-5,50.3-15s18.4-23.6,18.4-40.7
		c0-10.6-2.1-19.3-6.3-26C1757.3,267,1751.9,261.5,1745.2,257.5L1745.2,257.5z"/>
</g>
<g>
	<path class="st2" d="M1040.2,217.7c-7.4-13.8-17.4-24.6-30.2-32.6c-12.8-8-27.3-11.9-43.4-11.9c-12.5,0-23.8,2.7-33.8,8
		c-5.9,3.1-11.2,6.9-15.7,11.4v-15.7h-47.4v265c0,13.2-11.1,24-24.7,24s-24.6-10.8-24.6-24V71c0-39.1-32.1-71-71.6-71
		S677,31.8,677,71v113c-4.6-4.4-9.8-8.1-15.7-11.1c-10-5.1-21.3-7.6-33.8-7.6c-16.4,0-30.9,4-43.6,11.9c-12.7,8-22.7,18.8-30,32.6
		c-7.4,13.8-11,29.3-11,46.7s3.7,32.6,11,46.3c7.3,13.8,17.4,24.6,30.2,32.6s27.2,11.9,43.4,11.9c12.5,0,23.9-2.7,34-8
		c6-3.2,11.3-7,15.9-11.5v15.9h47V71c0-13.2,10.9-24,24.4-24s24.6,10.8,24.6,24v370.8c0,39.1,32.1,71,71.6,71s71.6-31.8,71.6-71
		l0.1-105.7c4.6,4.4,9.9,8.2,15.9,11.3c10.1,5.2,21.5,7.8,34,7.8c16.2,0,30.6-4,43.4-11.9c12.8-8,22.8-18.8,30.2-32.6
		c7.3-13.8,11-29.2,11-46.3S1047.6,231.4,1040.2,217.7L1040.2,217.7z M674.3,280.9c-3.7,7.1-8.9,12.7-15.6,16.6
		c-6.6,4-14.4,6-23.3,6c-8.4,0-16-2-22.8-6s-12-9.5-15.7-16.6s-5.6-15.4-5.6-24.8s1.9-17.2,5.6-24.2c3.7-7,8.9-12.5,15.6-16.6
		c6.6-4.1,14.4-6.1,23.3-6.1s16.3,2,23,6s11.8,9.5,15.6,16.6c3.7,7.1,5.6,15.3,5.6,24.4S678,273.8,674.3,280.9L674.3,280.9z
		 M997.2,288.8c-3.7,7.1-9,12.7-15.7,16.6c-6.8,4-14.5,6-23.2,6s-16.3-2-23-6c-6.6-4-11.8-9.5-15.6-16.6c-3.7-7.1-5.6-15.4-5.6-24.8
		s1.9-17.3,5.6-24.4c3.7-7.1,9-12.7,15.7-16.6c6.8-4,14.3-6,22.8-6c8.4,0,16.4,2,23.2,6s12,9.5,15.7,16.6s5.6,15.3,5.6,24.4
		S1000.9,281.6,997.2,288.8L997.2,288.8z"/>
	<path class="st3" d="M1040.2,217.7c-7.4-13.8-17.4-24.6-30.2-32.6c-12.8-8-27.3-11.9-43.4-11.9c-12.5,0-23.8,2.7-33.8,8
		c-5.9,3.1-11.2,6.9-15.7,11.4v-15.7h-47.4v265c0,13.2-11.1,24-24.7,24s-24.6-10.8-24.6-24V71c0-39.1-32.1-71-71.6-71
		S677,31.8,677,71v113c-4.6-4.4-9.8-8.1-15.7-11.1c-10-5.1-21.3-7.6-33.8-7.6c-16.4,0-30.9,4-43.6,11.9c-12.7,8-22.7,18.8-30,32.6
		c-7.4,13.8-11,29.3-11,46.7s3.7,32.6,11,46.3c7.3,13.8,17.4,24.6,30.2,32.6s27.2,11.9,43.4,11.9c12.5,0,23.9-2.7,34-8
		c6-3.2,11.3-7,15.9-11.5v15.9h47V71c0-13.2,10.9-24,24.4-24s24.6,10.8,24.6,24v370.8c0,39.1,32.1,71,71.6,71s71.6-31.8,71.6-71
		l0.1-105.7c4.6,4.4,9.9,8.2,15.9,11.3c10.1,5.2,21.5,7.8,34,7.8c16.2,0,30.6-4,43.4-11.9c12.8-8,22.8-18.8,30.2-32.6
		c7.3-13.8,11-29.2,11-46.3S1047.6,231.4,1040.2,217.7L1040.2,217.7z M674.3,280.9c-3.7,7.1-8.9,12.7-15.6,16.6
		c-6.6,4-14.4,6-23.3,6c-8.4,0-16-2-22.8-6s-12-9.5-15.7-16.6s-5.6-15.4-5.6-24.8s1.9-17.2,5.6-24.2c3.7-7,8.9-12.5,15.6-16.6
		c6.6-4.1,14.4-6.1,23.3-6.1s16.3,2,23,6s11.8,9.5,15.6,16.6c3.7,7.1,5.6,15.3,5.6,24.4S678,273.8,674.3,280.9L674.3,280.9z
		 M997.2,288.8c-3.7,7.1-9,12.7-15.7,16.6c-6.8,4-14.5,6-23.2,6s-16.3-2-23-6c-6.6-4-11.8-9.5-15.6-16.6c-3.7-7.1-5.6-15.4-5.6-24.8
		s1.9-17.3,5.6-24.4c3.7-7.1,9-12.7,15.7-16.6c6.8-4,14.3-6,22.8-6c8.4,0,16.4,2,23.2,6s12,9.5,15.7,16.6s5.6,15.3,5.6,24.4
		S1000.9,281.6,997.2,288.8L997.2,288.8z"/>
	<path class="st4" d="M820.4,256.4V71c0-39.1-32.1-71-71.6-71S677,31.8,677,71v113c-4.6-4.4-9.8-8.1-15.7-11.1
		c-10-5.1-21.3-7.6-33.8-7.6c-16.4,0-30.9,4-43.6,11.9c-12.7,8-22.7,18.8-30,32.6c-7.4,13.8-11,29.3-11,46.7
		c0,17.4,3.7,32.6,11,46.3c7.3,13.8,17.4,24.6,30.2,32.6s27.3,11.9,43.4,11.9c12.5,0,23.9-2.7,34-8c6-3.2,11.3-7,15.9-11.5v15.9h47
		V71c0-13.2,10.9-24,24.4-24s24.6,10.8,24.6,24v185.4H820.4z M674.3,280.9c-3.7,7.1-8.9,12.7-15.6,16.6c-6.6,4-14.4,6-23.3,6
		c-8.4,0-16-2-22.8-6s-12-9.5-15.7-16.6s-5.6-15.4-5.6-24.8s1.9-17.2,5.6-24.2c3.7-7,8.9-12.5,15.6-16.6c6.6-4.1,14.4-6.1,23.3-6.1
		c8.9,0,16.3,2,23,6c6.6,4,11.8,9.5,15.6,16.6c3.7,7.1,5.6,15.3,5.6,24.4C679.9,265.2,678,273.8,674.3,280.9z"/>
	
		<linearGradient id="SVGID_1_" gradientUnits="userSpaceOnUse" x1="796.9" y1="47.2" x2="796.9" y2="418" gradientTransform="matrix(1 0 0 -1 0 489)">
		<stop  offset="0.2" style="stop-color:#FBAF00"/>
		<stop  offset="0.8" style="stop-color:#D61857"/>
	</linearGradient>
	<rect x="773.4" y="71" class="st5" width="47" height="370.8"/>
</g>
</svg>
