<?xml version="1.0" encoding="utf-8"?>
<!-- Generator: Adobe Illustrator 26.2.1, SVG Export Plug-In . SVG Version: 6.00 Build 0)  -->
<svg version="1.1" id="Layer_1" xmlns="http://www.w3.org/2000/svg" xmlns:xlink="http://www.w3.org/1999/xlink" x="0px" y="0px"
	 viewBox="0 0 250 250" style="enable-background:new 0 0 250 250;" xml:space="preserve">
<style type="text/css">
	.st0{fill:url(#SVGID_1_);}
	.st1{fill:url(#SVGID_00000091732663771959930460000018340736282374760588_);}
	.st2{fill:url(#SVGID_00000139294004716261324270000009717962618678358956_);}
	.st3{fill:url(#SVGID_00000159469758546106968710000013042092349316004795_);}
	.st4{fill:url(#SVGID_00000013880068445896187470000006498893014216863910_);}
	.st5{fill:url(#SVGID_00000033347431484776803970000001038367295954045324_);}
	.st6{fill:url(#SVGID_00000011752284916842182960000002827786634604040325_);}
	.st7{fill:url(#SVGID_00000176034413797631145130000012839833993181794982_);}
	.st8{fill:url(#SVGID_00000003082468369786263900000000676716001719785643_);}
	.st9{fill:url(#SVGID_00000179614009628388291420000006238549474996936362_);}
	.st10{fill:url(#SVGID_00000036959581695415751510000011648184911468082343_);}
	.st11{fill:url(#SVGID_00000111879193542114002270000010257119174908135845_);}
	.st12{fill:url(#SVGID_00000026857614934469958830000008913846706658010248_);}
	.st13{fill:url(#SVGID_00000101786548392192458980000006198486577467606696_);}
	.st14{fill:url(#SVGID_00000018947297583129477790000010277207816818140343_);}
	.st15{fill:url(#SVGID_00000037663162376565464580000000012007508906297729_);}
	.st16{fill:url(#SVGID_00000067930043595914830740000018375913957389670334_);}
	.st17{fill:url(#SVGID_00000145754133976809729890000010063532658967627160_);}
	.st18{fill:url(#SVGID_00000060722963593334271510000009545954567749750191_);}
	.st19{fill:url(#SVGID_00000058548141871088290820000003323314926350787222_);}
	.st20{fill:url(#SVGID_00000010311318221065022810000011269988442383657644_);}
	.st21{fill:url(#SVGID_00000060729967516703868010000008105224181659617963_);}
	.st22{fill:url(#SVGID_00000149378026474377507540000005907333700301529728_);}
	.st23{fill:url(#SVGID_00000153697239721879724860000005170477238113527457_);}
	.st24{fill:url(#SVGID_00000111175918160921403450000016891096738448024455_);}
	.st25{fill:url(#SVGID_00000156547355050694292500000007616420465328685481_);}
	.st26{fill:url(#SVGID_00000010307644238874944040000017398369964604201641_);}
	.st27{fill:url(#SVGID_00000057137540131392439370000005766072007243418758_);}
	.st28{fill:url(#SVGID_00000180366868926022869480000016851017651450601640_);}
	.st29{fill:url(#SVGID_00000179615907659008960840000014763759997922010555_);}
	.st30{fill:url(#SVGID_00000160912698596282798580000004075879765744204453_);}
	.st31{fill:url(#SVGID_00000053511169762729981460000010109067373490440075_);}
	.st32{fill:url(#SVGID_00000177465984302786832940000017480212489162024366_);}
</style>
<linearGradient id="SVGID_1_" gradientUnits="userSpaceOnUse" x1="120.4915" y1="230.9286" x2="48.0425" y2="54.9016" gradientTransform="matrix(1 0 0 -1 0 252)">
	<stop  offset="9.895830e-02" style="stop-color:#8F73DB"/>
	<stop  offset="0.3854" style="stop-color:#6483F9"/>
	<stop  offset="0.6875" style="stop-color:#4EC8FC"/>
	<stop  offset="0.901" style="stop-color:#B8E7DD"/>
</linearGradient>
<path class="st0" d="M98.1,99L90,122.4h-4.8L77.2,99h4.3l6.1,17.8L93.8,99H98.1z"/>
<linearGradient id="SVGID_00000171700312292699544740000012245352334396237489_" gradientUnits="userSpaceOnUse" x1="136.6654" y1="224.2717" x2="64.2164" y2="48.2447" gradientTransform="matrix(1 0 0 -1 0 252)">
	<stop  offset="9.895830e-02" style="stop-color:#8F73DB"/>
	<stop  offset="0.3854" style="stop-color:#6483F9"/>
	<stop  offset="0.6875" style="stop-color:#4EC8FC"/>
	<stop  offset="0.901" style="stop-color:#B8E7DD"/>
</linearGradient>
<path style="fill:url(#SVGID_00000171700312292699544740000012245352334396237489_);" d="M100.9,97l3.6-0.4h0.5v25.4h-4.1V97z"/>
<linearGradient id="SVGID_00000166662919068956992020000013600556418690439074_" gradientUnits="userSpaceOnUse" x1="149.6533" y1="218.9262" x2="77.2043" y2="42.8992" gradientTransform="matrix(1 0 0 -1 0 252)">
	<stop  offset="9.895830e-02" style="stop-color:#8F73DB"/>
	<stop  offset="0.3854" style="stop-color:#6483F9"/>
	<stop  offset="0.6875" style="stop-color:#4EC8FC"/>
	<stop  offset="0.901" style="stop-color:#B8E7DD"/>
</linearGradient>
<path style="fill:url(#SVGID_00000166662919068956992020000013600556418690439074_);" d="M123.4,122.4c-0.7,0-1.4-0.1-2-0.4
	c-0.7-0.3-1.4-0.7-2.1-1.5c-0.7,0.5-1.4,1-2.1,1.4c-0.8,0.4-1.6,0.6-2.8,0.6c-0.8,0-1.8-0.1-2.7-0.4c-0.9-0.3-1.7-0.8-2.3-1.7
	c-0.6-0.9-1-2.1-1-3.7c0-1.6,0.4-2.9,1.4-3.7c1-0.9,2.6-1.3,5-1.3c1,0,2.1,0,3.7,0.1v-0.9c0-1.3-0.4-2.1-1.1-2.7
	c-0.6-0.5-1.5-0.7-2.5-0.7c-0.8,0-1.6,0.1-2.5,0.4c-0.8,0.2-1.7,0.5-2.4,0.9l-1-3.6c1.9-0.9,4.3-1.5,6.6-1.5c1.8,0,3.5,0.4,4.7,1.3
	c1.2,0.9,2,2.4,2,4.7v6.8c0,0.9,0.3,1.5,0.8,1.9c0.5,0.4,1.1,0.7,1.9,0.8L123.4,122.4L123.4,122.4z M118.5,114.7
	c-1.9,0-3.4,0-4.4,0.2c-1,0.2-1.6,0.8-1.6,1.8c0,1.5,1.1,2.3,2.6,2.3c0.5,0,1.4-0.1,2.1-0.6s1.3-1.2,1.3-2.7L118.5,114.7
	L118.5,114.7z"/>
<linearGradient id="SVGID_00000114773828762091020730000008813791903488089243_" gradientUnits="userSpaceOnUse" x1="164.9668" y1="212.6235" x2="92.5178" y2="36.5965" gradientTransform="matrix(1 0 0 -1 0 252)">
	<stop  offset="9.895830e-02" style="stop-color:#8F73DB"/>
	<stop  offset="0.3854" style="stop-color:#6483F9"/>
	<stop  offset="0.6875" style="stop-color:#4EC8FC"/>
	<stop  offset="0.901" style="stop-color:#B8E7DD"/>
</linearGradient>
<path style="fill:url(#SVGID_00000114773828762091020730000008813791903488089243_);" d="M141.3,122.4c-0.7,0-1.3-0.1-2-0.4
	c-0.7-0.3-1.4-0.7-2.1-1.5c-0.7,0.5-1.3,1-2.1,1.4c-0.8,0.4-1.6,0.6-2.8,0.6c-0.8,0-1.8-0.1-2.7-0.4c-0.9-0.3-1.7-0.8-2.3-1.7
	c-0.6-0.9-1-2.1-1-3.7c0-1.6,0.4-2.9,1.4-3.7c1-0.9,2.6-1.3,5-1.3c1,0,2.1,0,3.7,0.1v-0.9c0-1.3-0.4-2.1-1.1-2.7
	c-0.6-0.5-1.5-0.7-2.5-0.7c-0.8,0-1.6,0.1-2.5,0.4c-0.8,0.2-1.7,0.5-2.4,0.9l-1-3.6c1.9-0.9,4.3-1.5,6.6-1.5c1.8,0,3.5,0.4,4.7,1.3
	c1.2,0.9,2,2.4,2,4.7v6.8c0,0.9,0.3,1.5,0.8,1.9c0.5,0.4,1.1,0.7,1.9,0.8L141.3,122.4L141.3,122.4z M136.4,114.7
	c-1.9,0-3.4,0-4.4,0.2c-1,0.2-1.6,0.8-1.6,1.8c0,1.5,1.1,2.3,2.6,2.3c0.5,0,1.4-0.1,2.1-0.6c0.7-0.5,1.3-1.2,1.3-2.7L136.4,114.7
	L136.4,114.7z"/>
<linearGradient id="SVGID_00000075884712680128704180000017249039742645705600_" gradientUnits="userSpaceOnUse" x1="181.2379" y1="205.9266" x2="108.7889" y2="29.8996" gradientTransform="matrix(1 0 0 -1 0 252)">
	<stop  offset="9.895830e-02" style="stop-color:#8F73DB"/>
	<stop  offset="0.3854" style="stop-color:#6483F9"/>
	<stop  offset="0.6875" style="stop-color:#4EC8FC"/>
	<stop  offset="0.901" style="stop-color:#B8E7DD"/>
</linearGradient>
<path style="fill:url(#SVGID_00000075884712680128704180000017249039742645705600_);" d="M145.6,103.9h3.5l0.4,1.4
	c1.7-1.1,3.8-1.8,5.8-1.8c1.7,0,3.4,0.5,4.6,1.5c1.2,1.1,2,2.7,2,4.9V122h-4.1v-10.9c0-1.4-0.5-2.3-1.2-2.9
	c-0.7-0.6-1.8-0.8-2.9-0.8c-1.4,0-2.8,0.4-4,1.1v13.5h-4.1V103.9z"/>
<linearGradient id="SVGID_00000039133770053512935670000010629965083586810047_" gradientUnits="userSpaceOnUse" x1="199.2008" y1="198.5335" x2="126.7518" y2="22.5065" gradientTransform="matrix(1 0 0 -1 0 252)">
	<stop  offset="9.895830e-02" style="stop-color:#8F73DB"/>
	<stop  offset="0.3854" style="stop-color:#6483F9"/>
	<stop  offset="0.6875" style="stop-color:#4EC8FC"/>
	<stop  offset="0.901" style="stop-color:#B8E7DD"/>
</linearGradient>
<path style="fill:url(#SVGID_00000039133770053512935670000010629965083586810047_);" d="M181.5,122.1h-3.1l-0.7-1.4
	c-1.4,1.1-2.9,1.7-4.9,1.7c-2.6,0-4.6-1.1-5.8-2.7c-1.3-1.6-1.9-3.8-1.9-6c0-3.4,1-6,2.7-7.7c1.7-1.7,4.1-2.5,6.9-2.5
	c0.8,0,1.7,0.1,2.7,0.2V97l3.5-0.4h0.6V122.1z M177.4,107.7c-1-0.3-2.1-0.4-2.9-0.4c-1.6,0-2.9,0.5-3.8,1.4
	c-0.9,0.9-1.4,2.3-1.4,4.2c0,1.4,0.4,2.7,1.1,3.8c0.7,1,1.8,1.7,3.3,1.7c1.2,0,2.6-0.4,3.7-1.1L177.4,107.7L177.4,107.7z"/>
<linearGradient id="SVGID_00000140727025544866299460000011920586530513979297_" gradientUnits="userSpaceOnUse" x1="215.1131" y1="191.9843" x2="142.6641" y2="15.9573" gradientTransform="matrix(1 0 0 -1 0 252)">
	<stop  offset="9.895830e-02" style="stop-color:#8F73DB"/>
	<stop  offset="0.3854" style="stop-color:#6483F9"/>
	<stop  offset="0.6875" style="stop-color:#4EC8FC"/>
	<stop  offset="0.901" style="stop-color:#B8E7DD"/>
</linearGradient>
<path style="fill:url(#SVGID_00000140727025544866299460000011920586530513979297_);" d="M199.4,117.3v4c-0.8,0.4-1.7,0.6-2.6,0.8
	c-0.9,0.2-1.8,0.3-2.6,0.3c-2.5,0-4.9-0.8-6.6-2.3c-1.7-1.6-2.8-3.9-2.8-7.1c0-3.2,1-5.4,2.6-7c1.5-1.6,3.6-2.4,5.6-2.4
	c0.6,0,1.6,0.1,2.7,0.4c1.1,0.4,2.2,1.1,3.1,2.3c0.9,1.2,1.5,3,1.5,5.5v2.7h-11c0.3,1.5,1.1,2.5,2.1,3.1c1,0.6,2.1,0.9,3.3,0.9
	c1.5,0,3.2-0.4,4.6-1.2L199.4,117.3L199.4,117.3z M196.5,111.2c-0.1-1.3-0.6-2.3-1.2-2.9c-0.6-0.6-1.4-0.9-2.2-0.9
	c-0.8,0-1.7,0.3-2.4,0.9c-0.7,0.6-1.3,1.6-1.5,2.9H196.5z"/>
<linearGradient id="SVGID_00000062888547223617598870000015771697039086703537_" gradientUnits="userSpaceOnUse" x1="225.8597" y1="187.5612" x2="153.4107" y2="11.5342" gradientTransform="matrix(1 0 0 -1 0 252)">
	<stop  offset="9.895830e-02" style="stop-color:#8F73DB"/>
	<stop  offset="0.3854" style="stop-color:#6483F9"/>
	<stop  offset="0.6875" style="stop-color:#4EC8FC"/>
	<stop  offset="0.901" style="stop-color:#B8E7DD"/>
</linearGradient>
<path style="fill:url(#SVGID_00000062888547223617598870000015771697039086703537_);" d="M214.1,108.4c-1-0.6-2.1-0.9-3.1-0.9
	c-1.3,0-2.6,0.5-3.7,1.3V122h-4.1v-18.2h3.5l0.4,1.5c1.3-1.1,2.8-1.8,4.6-1.8c0.5,0,1.2,0,1.8,0.2c0.7,0.1,1.3,0.3,1.8,0.6
	L214.1,108.4L214.1,108.4z"/>
<linearGradient id="SVGID_00000106826082526598597900000002671100947105745042_" gradientUnits="userSpaceOnUse" x1="241.1483" y1="181.2688" x2="168.6993" y2="5.2418" gradientTransform="matrix(1 0 0 -1 0 252)">
	<stop  offset="9.895830e-02" style="stop-color:#8F73DB"/>
	<stop  offset="0.3854" style="stop-color:#6483F9"/>
	<stop  offset="0.6875" style="stop-color:#4EC8FC"/>
	<stop  offset="0.901" style="stop-color:#B8E7DD"/>
</linearGradient>
<path style="fill:url(#SVGID_00000106826082526598597900000002671100947105745042_);" d="M229.8,117.3v4c-0.8,0.4-1.7,0.6-2.6,0.8
	c-0.9,0.2-1.8,0.3-2.6,0.3c-2.5,0-4.8-0.8-6.6-2.3c-1.7-1.6-2.8-3.9-2.8-7.1c0-3.2,1-5.4,2.6-7c1.5-1.6,3.6-2.4,5.6-2.4
	c0.6,0,1.6,0.1,2.7,0.4c1.1,0.4,2.2,1.1,3.1,2.3c0.9,1.2,1.5,3,1.5,5.5v2.7h-11c0.3,1.5,1.1,2.5,2.1,3.1c1,0.6,2.1,0.9,3.3,0.9
	c1.5,0,3.2-0.4,4.6-1.2L229.8,117.3L229.8,117.3z M227,111.2c-0.1-1.3-0.6-2.3-1.2-2.9c-0.6-0.6-1.4-0.9-2.2-0.9
	c-0.8,0-1.7,0.3-2.4,0.9c-0.7,0.6-1.3,1.6-1.5,2.9H227z"/>
<linearGradient id="SVGID_00000133504584499694783490000011219864741982529693_" gradientUnits="userSpaceOnUse" x1="256.6139" y1="174.9034" x2="184.1649" y2="-1.1236" gradientTransform="matrix(1 0 0 -1 0 252)">
	<stop  offset="9.895830e-02" style="stop-color:#8F73DB"/>
	<stop  offset="0.3854" style="stop-color:#6483F9"/>
	<stop  offset="0.6875" style="stop-color:#4EC8FC"/>
	<stop  offset="0.901" style="stop-color:#B8E7DD"/>
</linearGradient>
<path style="fill:url(#SVGID_00000133504584499694783490000011219864741982529693_);" d="M233.7,103.9h3.5l0.4,1.4
	c1.7-1.1,3.8-1.8,5.8-1.8c1.7,0,3.4,0.5,4.6,1.5c1.2,1.1,2,2.7,2,4.9V122h-4.1v-10.9c0-1.4-0.5-2.3-1.2-2.9
	c-0.7-0.6-1.8-0.8-2.9-0.8c-1.4,0-2.8,0.4-4,1.1v13.5h-4.1V103.9z"/>
<linearGradient id="SVGID_00000159463887161678695100000001532879654800266380_" gradientUnits="userSpaceOnUse" x1="133.6037" y1="225.5318" x2="61.1547" y2="49.5048" gradientTransform="matrix(1 0 0 -1 0 252)">
	<stop  offset="9.895830e-02" style="stop-color:#8F73DB"/>
	<stop  offset="0.3854" style="stop-color:#6483F9"/>
	<stop  offset="0.6875" style="stop-color:#4EC8FC"/>
	<stop  offset="0.901" style="stop-color:#B8E7DD"/>
</linearGradient>
<path style="fill:url(#SVGID_00000159463887161678695100000001532879654800266380_);" d="M91.9,138.1l-3.6,10.3h-2.1l-3.5-10.3h1.6
	l3,8.7l3-8.7H91.9z"/>
<linearGradient id="SVGID_00000010993857419888111310000016440840990071139741_" gradientUnits="userSpaceOnUse" x1="143.8098" y1="221.3312" x2="71.3608" y2="45.3042" gradientTransform="matrix(1 0 0 -1 0 252)">
	<stop  offset="9.895830e-02" style="stop-color:#8F73DB"/>
	<stop  offset="0.3854" style="stop-color:#6483F9"/>
	<stop  offset="0.6875" style="stop-color:#4EC8FC"/>
	<stop  offset="0.901" style="stop-color:#B8E7DD"/>
</linearGradient>
<path style="fill:url(#SVGID_00000010993857419888111310000016440840990071139741_);" d="M101,143.6h-6.4c0.1,1.2,0.5,2.1,1.1,2.7
	c0.6,0.6,1.4,0.9,2.3,0.9s1.8-0.3,2.8-0.7h0v1.4c-1.1,0.5-2,0.7-3,0.7c-1.3,0-2.5-0.4-3.4-1.3c-0.9-0.9-1.4-2.3-1.4-4.2
	c0-1.5,0.3-2.8,1.1-3.7c0.7-0.9,1.8-1.5,3.4-1.5c1.1,0,1.8,0.3,2.3,0.7c0.5,0.4,0.8,1,1,1.7c0.2,0.6,0.2,1.4,0.2,2L101,143.6
	L101,143.6z M99.5,142.2c0-0.8-0.1-1.5-0.4-2.1c-0.3-0.5-0.8-0.9-1.6-0.9s-1.4,0.3-1.9,0.8c-0.5,0.5-0.8,1.3-0.9,2.1H99.5z"/>
<linearGradient id="SVGID_00000167362881271838886500000011850681901033731730_" gradientUnits="userSpaceOnUse" x1="149.7995" y1="218.866" x2="77.3505" y2="42.839" gradientTransform="matrix(1 0 0 -1 0 252)">
	<stop  offset="9.895830e-02" style="stop-color:#8F73DB"/>
	<stop  offset="0.3854" style="stop-color:#6483F9"/>
	<stop  offset="0.6875" style="stop-color:#4EC8FC"/>
	<stop  offset="0.901" style="stop-color:#B8E7DD"/>
</linearGradient>
<path style="fill:url(#SVGID_00000167362881271838886500000011850681901033731730_);" d="M103.7,138.1h1l0.4,1.2
	c0.8-0.9,1.6-1.4,2.5-1.4c0.3,0,0.6,0,0.9,0.1c0.3,0.1,0.6,0.2,0.8,0.3l-0.5,1.4c-0.4-0.2-1-0.3-1.4-0.3c-0.9,0-1.6,0.6-2.1,1.4v7.7
	h-1.5V138.1z"/>
<linearGradient id="SVGID_00000018927075757764761660000008533012071561254029_" gradientUnits="userSpaceOnUse" x1="157.9576" y1="215.5083" x2="85.5086" y2="39.4813" gradientTransform="matrix(1 0 0 -1 0 252)">
	<stop  offset="9.895830e-02" style="stop-color:#8F73DB"/>
	<stop  offset="0.3854" style="stop-color:#6483F9"/>
	<stop  offset="0.6875" style="stop-color:#4EC8FC"/>
	<stop  offset="0.901" style="stop-color:#B8E7DD"/>
</linearGradient>
<path style="fill:url(#SVGID_00000018927075757764761660000008533012071561254029_);" d="M111.3,134.2l1.4-0.2h0.1v4.8
	c0.7-0.6,1.6-0.9,2.7-0.9c1.4,0,2.5,0.6,3.2,1.5c0.8,0.9,1.2,2.3,1.2,3.8c0,1.5-0.4,2.8-1.3,3.8c-0.9,1-2.2,1.6-3.9,1.6
	c-1.3,0-2.5-0.3-3.5-0.7V134.2L111.3,134.2z M112.8,146.9c0.7,0.3,1.3,0.3,2,0.3c1,0,1.9-0.4,2.6-1.1s1-1.7,1-3c0-1-0.2-2-0.7-2.6
	c-0.5-0.7-1.3-1.1-2.4-1.1c-1,0-1.9,0.4-2.4,1.1L112.8,146.9L112.8,146.9z"/>
<linearGradient id="SVGID_00000097493570847113404550000004708018306411514807_" gradientUnits="userSpaceOnUse" x1="168.2201" y1="211.2845" x2="95.7711" y2="35.2575" gradientTransform="matrix(1 0 0 -1 0 252)">
	<stop  offset="9.895830e-02" style="stop-color:#8F73DB"/>
	<stop  offset="0.3854" style="stop-color:#6483F9"/>
	<stop  offset="0.6875" style="stop-color:#4EC8FC"/>
	<stop  offset="0.901" style="stop-color:#B8E7DD"/>
</linearGradient>
<path style="fill:url(#SVGID_00000097493570847113404550000004708018306411514807_);" d="M129.5,143.6h-6.4c0.1,1.2,0.5,2.1,1.1,2.7
	s1.4,0.9,2.3,0.9c0.9,0,1.8-0.3,2.8-0.7h0v1.4c-1.1,0.5-2,0.7-3,0.7c-1.3,0-2.5-0.4-3.4-1.3c-0.9-0.9-1.4-2.3-1.4-4.2
	c0-1.5,0.3-2.8,1.1-3.7s1.8-1.5,3.4-1.5c1.1,0,1.8,0.3,2.3,0.7c0.5,0.4,0.8,1,1,1.7c0.2,0.6,0.2,1.4,0.2,2V143.6z M128,142.2
	c0-0.8-0.1-1.5-0.4-2.1c-0.3-0.5-0.8-0.9-1.6-0.9c-0.8,0-1.4,0.3-1.9,0.8c-0.5,0.5-0.8,1.3-0.9,2.1H128z"/>
<linearGradient id="SVGID_00000181809084061086977430000016103866195064525485_" gradientUnits="userSpaceOnUse" x1="176.267" y1="207.9726" x2="103.818" y2="31.9456" gradientTransform="matrix(1 0 0 -1 0 252)">
	<stop  offset="9.895830e-02" style="stop-color:#8F73DB"/>
	<stop  offset="0.3854" style="stop-color:#6483F9"/>
	<stop  offset="0.6875" style="stop-color:#4EC8FC"/>
	<stop  offset="0.901" style="stop-color:#B8E7DD"/>
</linearGradient>
<path style="fill:url(#SVGID_00000181809084061086977430000016103866195064525485_);" d="M138.9,143.6h-6.4c0.1,1.2,0.5,2.1,1.1,2.7
	s1.4,0.9,2.3,0.9c0.9,0,1.8-0.3,2.8-0.7h0v1.4c-1.1,0.5-2,0.7-3,0.7c-1.3,0-2.5-0.4-3.4-1.3c-0.9-0.9-1.4-2.3-1.4-4.2
	c0-1.5,0.3-2.8,1.1-3.7c0.7-0.9,1.8-1.5,3.4-1.5c1.1,0,1.8,0.3,2.3,0.7c0.5,0.4,0.8,1,1,1.7c0.2,0.6,0.2,1.4,0.2,2L138.9,143.6
	L138.9,143.6z M137.4,142.2c0-0.8-0.1-1.5-0.4-2.1c-0.3-0.5-0.8-0.9-1.6-0.9c-0.8,0-1.4,0.3-1.9,0.8c-0.5,0.5-0.8,1.3-0.9,2.1H137.4
	z"/>
<linearGradient id="SVGID_00000086654726643595143370000003599386258821345214_" gradientUnits="userSpaceOnUse" x1="181.1255" y1="205.9729" x2="108.6765" y2="29.9459" gradientTransform="matrix(1 0 0 -1 0 252)">
	<stop  offset="9.895830e-02" style="stop-color:#8F73DB"/>
	<stop  offset="0.3854" style="stop-color:#6483F9"/>
	<stop  offset="0.6875" style="stop-color:#4EC8FC"/>
	<stop  offset="0.901" style="stop-color:#B8E7DD"/>
</linearGradient>
<path style="fill:url(#SVGID_00000086654726643595143370000003599386258821345214_);" d="M141.1,134.2l1.4-0.2h0.1v14.4h-1.5V134.2z
	"/>
<linearGradient id="SVGID_00000059278291948081946200000012397743520893587084_" gradientUnits="userSpaceOnUse" x1="188.8726" y1="202.7844" x2="116.4236" y2="26.7574" gradientTransform="matrix(1 0 0 -1 0 252)">
	<stop  offset="9.895830e-02" style="stop-color:#8F73DB"/>
	<stop  offset="0.3854" style="stop-color:#6483F9"/>
	<stop  offset="0.6875" style="stop-color:#4EC8FC"/>
	<stop  offset="0.901" style="stop-color:#B8E7DD"/>
</linearGradient>
<path style="fill:url(#SVGID_00000059278291948081946200000012397743520893587084_);" d="M153.7,148.4h-1l-0.3-0.9
	c-0.8,0.7-1.7,1.1-2.9,1.1c-1.4,0-2.5-0.6-3.2-1.6c-0.8-1-1.2-2.4-1.2-3.9s0.4-2.8,1.3-3.7c0.9-0.9,2.2-1.5,3.9-1.5
	c0.7,0,1.3,0.1,1.9,0.2v-3.9l1.4-0.2h0.1L153.7,148.4L153.7,148.4z M152.2,139.7c-0.7-0.3-1.4-0.4-2-0.4c-1,0-1.9,0.3-2.5,1
	c-0.6,0.7-1,1.6-1,3c0,1,0.2,2,0.7,2.7c0.5,0.7,1.3,1.2,2.4,1.2c1,0,1.9-0.4,2.4-1.1L152.2,139.7L152.2,139.7z"/>
<linearGradient id="SVGID_00000047778324769370705430000001573636506550448303_" gradientUnits="userSpaceOnUse" x1="194.8882" y1="200.3085" x2="122.4392" y2="24.2815" gradientTransform="matrix(1 0 0 -1 0 252)">
	<stop  offset="9.895830e-02" style="stop-color:#8F73DB"/>
	<stop  offset="0.3854" style="stop-color:#6483F9"/>
	<stop  offset="0.6875" style="stop-color:#4EC8FC"/>
	<stop  offset="0.901" style="stop-color:#B8E7DD"/>
</linearGradient>
<path style="fill:url(#SVGID_00000047778324769370705430000001573636506550448303_);" d="M156.9,135.3c0-0.3,0.1-0.6,0.3-0.8
	c0.2-0.2,0.5-0.3,0.7-0.3c0.3,0,0.6,0.1,0.8,0.3c0.2,0.2,0.3,0.5,0.3,0.8c0,0.3-0.1,0.5-0.3,0.7c-0.2,0.2-0.5,0.3-0.8,0.3
	c-0.3,0-0.6-0.1-0.7-0.3C157,135.8,156.9,135.5,156.9,135.3z M157.2,138.1h1.5v10.3h-1.5V138.1z"/>
<linearGradient id="SVGID_00000030466055705849721120000007169331462050983608_" gradientUnits="userSpaceOnUse" x1="202.6366" y1="197.1194" x2="130.1876" y2="21.0924" gradientTransform="matrix(1 0 0 -1 0 252)">
	<stop  offset="9.895830e-02" style="stop-color:#8F73DB"/>
	<stop  offset="0.3854" style="stop-color:#6483F9"/>
	<stop  offset="0.6875" style="stop-color:#4EC8FC"/>
	<stop  offset="0.901" style="stop-color:#B8E7DD"/>
</linearGradient>
<path style="fill:url(#SVGID_00000030466055705849721120000007169331462050983608_);" d="M162.2,138.1h1l0.3,0.9
	c0.4-0.3,0.9-0.6,1.5-0.8c0.5-0.2,1.1-0.4,1.6-0.4c1,0,1.9,0.3,2.6,0.9c0.7,0.6,1.1,1.6,1.1,3.1v6.6h-1.5v-6.5c0-1-0.3-1.6-0.7-2
	c-0.4-0.4-1-0.5-1.6-0.5c-0.5,0-1,0.1-1.4,0.3c-0.5,0.2-0.9,0.4-1.3,0.7v8.1h-1.5L162.2,138.1L162.2,138.1z"/>
<linearGradient id="SVGID_00000112627472383731373790000005055580338696255636_" gradientUnits="userSpaceOnUse" x1="212.6631" y1="193.0077" x2="140.2141" y2="16.9807" gradientTransform="matrix(1 0 0 -1 0 252)">
	<stop  offset="9.895830e-02" style="stop-color:#8F73DB"/>
	<stop  offset="0.3854" style="stop-color:#6483F9"/>
	<stop  offset="0.6875" style="stop-color:#4EC8FC"/>
	<stop  offset="0.901" style="stop-color:#B8E7DD"/>
</linearGradient>
<path style="fill:url(#SVGID_00000112627472383731373790000005055580338696255636_);" d="M177.5,146.2c1.4,0,2.5,0.3,3.2,0.9
	c0.7,0.5,1,1.3,1,2c0,1.1-0.7,2.1-1.7,2.8c-1,0.7-2.3,1.2-3.6,1.2c-1.2,0-2.1-0.4-2.8-1c-0.7-0.6-1-1.4-1-2.3c0-0.8,0.4-1.8,1.2-2.6
	c-0.3-0.2-0.5-0.4-0.6-0.7c-0.1-0.3-0.2-0.6-0.2-0.9c0-0.6,0.3-1.2,0.7-1.8c-0.3-0.3-0.5-0.7-0.6-1.1c-0.1-0.4-0.2-0.9-0.2-1.3
	c0-1,0.4-1.8,1.1-2.5c0.7-0.6,1.6-1,2.8-1c0.8,0,1.4,0.2,2,0.5c0.4-0.3,0.9-0.6,1.4-0.8c0.5-0.2,0.9-0.3,1.2-0.3l0.5,1.3
	c-0.5,0.1-1.3,0.3-1.9,0.7c0.4,0.6,0.6,1.2,0.6,1.9c0,1-0.4,1.9-1.1,2.6c-0.7,0.7-1.6,1.1-2.8,1.1c-0.7,0-1.4-0.2-1.9-0.4
	c-0.2,0.3-0.4,0.6-0.4,0.8c0,0.5,0.4,0.9,1.3,0.9L177.5,146.2L177.5,146.2z M174.9,147.6c-0.6,0.6-0.9,1.4-0.9,2.2
	c0,0.6,0.2,1.1,0.6,1.5c0.4,0.4,1,0.6,1.9,0.6c1,0,1.9-0.3,2.6-0.8c0.6-0.5,1-1.1,1-1.7c0-0.8-0.4-1.2-1.2-1.4
	c-0.7-0.2-1.7-0.3-2.8-0.3H174.9z M176.6,139.3c-0.8,0-1.4,0.3-1.7,0.7c-0.4,0.4-0.6,0.9-0.6,1.5c0,0.5,0.2,1.1,0.6,1.5
	c0.4,0.4,1,0.7,1.8,0.7s1.3-0.3,1.7-0.7c0.4-0.4,0.6-0.9,0.6-1.4c0-0.5-0.2-1.1-0.6-1.5C177.9,139.5,177.3,139.3,176.6,139.3
	L176.6,139.3z"/>
<linearGradient id="SVGID_00000007426365347661816460000012240029300444070830_" gradientUnits="userSpaceOnUse" x1="226.5078" y1="187.2945" x2="154.0588" y2="11.2675" gradientTransform="matrix(1 0 0 -1 0 252)">
	<stop  offset="9.895830e-02" style="stop-color:#8F73DB"/>
	<stop  offset="0.3854" style="stop-color:#6483F9"/>
	<stop  offset="0.6875" style="stop-color:#4EC8FC"/>
	<stop  offset="0.901" style="stop-color:#B8E7DD"/>
</linearGradient>
<path style="fill:url(#SVGID_00000007426365347661816460000012240029300444070830_);" d="M203.3,138.1l-3.3,10.3h-1.9l-2.3-7.9
	l-2.3,7.9h-1.9l-3.3-10.3h1.5l2.7,8.6l2.6-8.6h1.4l2.6,8.6l2.7-8.6H203.3z"/>
<linearGradient id="SVGID_00000096016818703370426270000014360351609212012733_" gradientUnits="userSpaceOnUse" x1="239.0908" y1="182.1156" x2="166.6418" y2="6.0886" gradientTransform="matrix(1 0 0 -1 0 252)">
	<stop  offset="9.895830e-02" style="stop-color:#8F73DB"/>
	<stop  offset="0.3854" style="stop-color:#6483F9"/>
	<stop  offset="0.6875" style="stop-color:#4EC8FC"/>
	<stop  offset="0.901" style="stop-color:#B8E7DD"/>
</linearGradient>
<path style="fill:url(#SVGID_00000096016818703370426270000014360351609212012733_);" d="M212.4,143.6H206c0.1,1.2,0.5,2.1,1.1,2.7
	c0.6,0.6,1.4,0.9,2.3,0.9c0.9,0,1.8-0.3,2.8-0.7h0v1.4c-1.1,0.5-2,0.7-3,0.7c-1.3,0-2.5-0.4-3.4-1.3c-0.9-0.9-1.4-2.3-1.4-4.2
	c0-1.5,0.3-2.8,1.1-3.7s1.8-1.5,3.4-1.5c1.1,0,1.8,0.3,2.3,0.7c0.5,0.4,0.8,1,1,1.7c0.2,0.6,0.2,1.4,0.2,2V143.6z M210.9,142.2
	c0-0.8-0.1-1.5-0.4-2.1c-0.3-0.5-0.8-0.9-1.6-0.9c-0.8,0-1.4,0.3-1.9,0.8c-0.5,0.5-0.8,1.3-0.9,2.1H210.9z"/>
<linearGradient id="SVGID_00000166637224610361278620000016856263989947587504_" gradientUnits="userSpaceOnUse" x1="245.0811" y1="179.6501" x2="172.6321" y2="3.6231" gradientTransform="matrix(1 0 0 -1 0 252)">
	<stop  offset="9.895830e-02" style="stop-color:#8F73DB"/>
	<stop  offset="0.3854" style="stop-color:#6483F9"/>
	<stop  offset="0.6875" style="stop-color:#4EC8FC"/>
	<stop  offset="0.901" style="stop-color:#B8E7DD"/>
</linearGradient>
<path style="fill:url(#SVGID_00000166637224610361278620000016856263989947587504_);" d="M215.1,138.1h1l0.4,1.2
	c0.8-0.9,1.6-1.4,2.5-1.4c0.3,0,0.6,0,0.9,0.1c0.3,0.1,0.6,0.2,0.8,0.3l-0.5,1.4c-0.4-0.2-1-0.3-1.4-0.3c-0.9,0-1.6,0.6-2.1,1.4v7.7
	h-1.5V138.1z"/>
<linearGradient id="SVGID_00000143595460633137410780000010433103046758565023_" gradientUnits="userSpaceOnUse" x1="253.3723" y1="176.2376" x2="180.9234" y2="0.2106" gradientTransform="matrix(1 0 0 -1 0 252)">
	<stop  offset="9.895830e-02" style="stop-color:#8F73DB"/>
	<stop  offset="0.3854" style="stop-color:#6483F9"/>
	<stop  offset="0.6875" style="stop-color:#4EC8FC"/>
	<stop  offset="0.901" style="stop-color:#B8E7DD"/>
</linearGradient>
<path style="fill:url(#SVGID_00000143595460633137410780000010433103046758565023_);" d="M229.9,148.6c-0.5,0-1.1-0.4-1.7-0.8
	c-0.6-0.5-1.2-1.1-1.8-1.7c-0.6-0.6-1.1-1.3-1.5-1.8c-0.2-0.3-0.3-0.5-0.4-0.7c-0.1-0.2-0.2-0.3-0.2-0.4v5.2h-1.5v-14.1l1.4-0.3h0.1
	v9l4.1-4.9h2l-4.2,5c0.1,0.2,0.4,0.7,0.9,1.3c0.5,0.6,1.1,1.2,1.7,1.8c0.6,0.5,1.3,1,1.8,1.1L229.9,148.6L229.9,148.6z"/>
<linearGradient id="SVGID_00000159459553253509759040000004816423999000946052_" gradientUnits="userSpaceOnUse" x1="261.0412" y1="173.0813" x2="188.5922" y2="-2.9457" gradientTransform="matrix(1 0 0 -1 0 252)">
	<stop  offset="9.895830e-02" style="stop-color:#8F73DB"/>
	<stop  offset="0.3854" style="stop-color:#6483F9"/>
	<stop  offset="0.6875" style="stop-color:#4EC8FC"/>
	<stop  offset="0.901" style="stop-color:#B8E7DD"/>
</linearGradient>
<path style="fill:url(#SVGID_00000159459553253509759040000004816423999000946052_);" d="M231.2,138.1h1.1v-1.8l1.4-0.3h0.1v2.1h2.9
	v1.4h-2.9v5.1c0,0.9,0.2,1.6,0.5,2c0.3,0.4,0.8,0.6,1.3,0.6c0.6,0,1.3-0.2,1.9-0.6l0.4,1.4c-0.9,0.4-1.7,0.6-2.5,0.6
	c-0.9,0-1.7-0.3-2.3-0.9c-0.6-0.6-0.9-1.6-0.9-3.1v-5.1h-1.1L231.2,138.1L231.2,138.1z"/>
<linearGradient id="SVGID_00000000923702730475000230000014552423030919581621_" gradientUnits="userSpaceOnUse" x1="109.1508" y1="235.5962" x2="36.7018" y2="59.5692" gradientTransform="matrix(1 0 0 -1 0 252)">
	<stop  offset="9.895830e-02" style="stop-color:#8F73DB"/>
	<stop  offset="0.3854" style="stop-color:#6483F9"/>
	<stop  offset="0.6875" style="stop-color:#4EC8FC"/>
	<stop  offset="0.901" style="stop-color:#B8E7DD"/>
</linearGradient>
<path style="fill:url(#SVGID_00000000923702730475000230000014552423030919581621_);" d="M47,72l-0.5,0.2l35.8,105.2l0.5-0.2L47,72z
	"/>
<linearGradient id="SVGID_00000081636018619959688910000017066233242885877414_" gradientUnits="userSpaceOnUse" x1="81.909" y1="246.8083" x2="9.46" y2="70.7813" gradientTransform="matrix(1 0 0 -1 0 252)">
	<stop  offset="9.895830e-02" style="stop-color:#8F73DB"/>
	<stop  offset="0.3854" style="stop-color:#6483F9"/>
	<stop  offset="0.6875" style="stop-color:#4EC8FC"/>
	<stop  offset="0.901" style="stop-color:#B8E7DD"/>
</linearGradient>
<path style="fill:url(#SVGID_00000081636018619959688910000017066233242885877414_);" d="M46.7,124.4c-2.6-2-3.8,0-5.4-0.1
	c-1.4-0.1-2.7-2.3-3.7-1.8c-2,1,0.8,4.7,2.1,5.4c1.1,0.7,2.5,1.3,2.8,1.4c1.6,0.8,2.3,1.9,2.5,3.7c0.1,0.4,0,1.4-0.1,1.8
	c-0.7,3.2-6.3,6-9.4,3.9c-1.5-1-2.9-2.3-3.3-4.7c-0.8-4.2-3.8-7.2-4.8-11.3c-0.6-2.5-1-5.1-1.7-7.5c-0.7-2.6-1.3-5.1-1.9-7.4
	c-0.5-2.2-1.5-5.4-2.3-7.4c-3-7.9-4.4-7.3-4.4-7.3s1.1,2.2,5.1,21.6c0.2,0.8,1.6,9.3,2.7,12.2c0.4,1,1.1,3.2,1.5,4.1
	c1.3,2.8,4.6,7,4.9,10.8c0.1,2.2,0.4,4,0.4,5.7c0,0.5,0.3,2.5,0.6,3.3c0.8,2.3,7.5,9.8,14.5,9.8v-5.7c-7,0-13.6-3.9-13.8-4.3
	c-0.1-0.2,0.4-2.9,0.8-4.1c0.9-2.3,2.6-4.4,5.7-4.6c3.4-0.2,5.4,0.7,7.2,0.7L46.7,124.4L46.7,124.4z"/>
<linearGradient id="SVGID_00000168106045022266109790000003540711331934207677_" gradientUnits="userSpaceOnUse" x1="62.231" y1="254.9073" x2="-10.218" y2="78.8804" gradientTransform="matrix(1 0 0 -1 0 252)">
	<stop  offset="9.895830e-02" style="stop-color:#8F73DB"/>
	<stop  offset="0.3854" style="stop-color:#6483F9"/>
	<stop  offset="0.6875" style="stop-color:#4EC8FC"/>
	<stop  offset="0.901" style="stop-color:#B8E7DD"/>
</linearGradient>
<path style="fill:url(#SVGID_00000168106045022266109790000003540711331934207677_);" d="M16.2,103.9c-0.3,4.2-6.8,10-8.9,13.8
	c-1,1.8-2.2,5-2.6,6.8c-0.9,5.1,0.2,8.2,1.5,11.2c2.2,5.2-0.3,7.1,1.4,6.1c2.1-1.7,1.8-5.7,1.6-8.2c-0.1-2-0.3-4.3,0.1-6.7
	c0.6-4.5,3.3-9.4,5.6-12.8C17.8,109.9,16.8,105.7,16.2,103.9"/>
<linearGradient id="SVGID_00000097480492704133214120000005226324062015775388_" gradientUnits="userSpaceOnUse" x1="77.1144" y1="248.7817" x2="4.6654" y2="72.7547" gradientTransform="matrix(1 0 0 -1 0 252)">
	<stop  offset="9.895830e-02" style="stop-color:#8F73DB"/>
	<stop  offset="0.3854" style="stop-color:#6483F9"/>
	<stop  offset="0.6875" style="stop-color:#4EC8FC"/>
	<stop  offset="0.901" style="stop-color:#B8E7DD"/>
</linearGradient>
<path style="fill:url(#SVGID_00000097480492704133214120000005226324062015775388_);" d="M17.6,115.9c0,0,0.7,3.4-2.3,12
	c-7.8,22.6,7.1,24.7,11.3,30.1c0,0,1.6-2.3-5.1-9.7c-2.5-2.7-4.7-8.6-2.7-17.1C21.5,118.9,17.6,115.9,17.6,115.9"/>
<linearGradient id="SVGID_00000034789991097768675060000013753195813293482643_" gradientUnits="userSpaceOnUse" x1="49.0518" y1="260.3317" x2="-23.3972" y2="84.3046" gradientTransform="matrix(1 0 0 -1 0 252)">
	<stop  offset="9.895830e-02" style="stop-color:#8F73DB"/>
	<stop  offset="0.3854" style="stop-color:#6483F9"/>
	<stop  offset="0.6875" style="stop-color:#4EC8FC"/>
	<stop  offset="0.901" style="stop-color:#B8E7DD"/>
</linearGradient>
<path style="fill:url(#SVGID_00000034789991097768675060000013753195813293482643_);" d="M2.9,101.1c-0.4-1.3-0.5-2.5-0.4-3.6
	c0.4-5.3,5.2-7.5,6.4-8.3c0,0,2.2-1.5,2.4-3c0,0,2.2,5.6-2.9,8.8C5.9,96.7,4.1,98.6,2.9,101.1"/>
<linearGradient id="SVGID_00000116931895498596868710000012642342570419434910_" gradientUnits="userSpaceOnUse" x1="53.505" y1="258.4988" x2="-18.944" y2="82.4718" gradientTransform="matrix(1 0 0 -1 0 252)">
	<stop  offset="9.895830e-02" style="stop-color:#8F73DB"/>
	<stop  offset="0.3854" style="stop-color:#6483F9"/>
	<stop  offset="0.6875" style="stop-color:#4EC8FC"/>
	<stop  offset="0.901" style="stop-color:#B8E7DD"/>
</linearGradient>
<path style="fill:url(#SVGID_00000116931895498596868710000012642342570419434910_);" d="M15,96c0.3,0.5,2.3,3.5-5.9,10.2
	c-8.2,6.8-5.6,11.6-5.6,11.6s-8.7-4.8,1.3-13.2c10-8.4,8-10.1,8-10.1S14.3,94.4,15,96z"/>
<linearGradient id="SVGID_00000044168240098938801770000001650746263895813810_" gradientUnits="userSpaceOnUse" x1="73.4988" y1="250.2698" x2="1.0498" y2="74.2428" gradientTransform="matrix(1 0 0 -1 0 252)">
	<stop  offset="9.895830e-02" style="stop-color:#8F73DB"/>
	<stop  offset="0.3854" style="stop-color:#6483F9"/>
	<stop  offset="0.6875" style="stop-color:#4EC8FC"/>
	<stop  offset="0.901" style="stop-color:#B8E7DD"/>
</linearGradient>
<path style="fill:url(#SVGID_00000044168240098938801770000001650746263895813810_);" d="M25.7,98.6c1.4,0.2,2.3,4.6,5.6,5.6
	c2.4,0.7,5,0.3,5.5,1.8c-1.1,0.6-0.2,2.5,0.9,2.2C38.6,105.5,39.1,95.5,25.7,98.6L25.7,98.6z M30.1,100.5c0.1-0.3,0.3-0.1,0.6-0.3
	c0.4-0.4,0.8-0.9,1.4-1.2c0.4-0.1,1.1-0.1,1.5,0.1c0.3,0.1,0.1,0.8-0.1,1c-0.4,0.3-1.7-0.2-1.7,0.8c0.1,1.6,2.2-0.1,3.3,0
	C35.6,104.8,29.1,103.8,30.1,100.5L30.1,100.5z"/>
</svg>
